M48
; DRILL file {KiCad 9.0.7-9.0.7~ubuntu22.04.1} date 2026-01-29T18:43:36+0530
; FORMAT={-:-/ absolute / metric / decimal}
; #@! TF.CreationDate,2026-01-29T18:43:36+05:30
; #@! TF.GenerationSoftware,Kicad,Pcbnew,9.0.7-9.0.7~ubuntu22.04.1
; #@! TF.FileFunction,Plated,1,2,PTH
FMAT,2
METRIC
; #@! TA.AperFunction,Plated,PTH,ViaDrill
T1C0.300
; #@! TA.AperFunction,Plated,PTH,ComponentDrill
T2C0.400
; #@! TA.AperFunction,Plated,PTH,ComponentDrill
T3C0.800
; #@! TA.AperFunction,Plated,PTH,ComponentDrill
T4C1.000
; #@! TA.AperFunction,Plated,PTH,ComponentDrill
T5C1.290
; #@! TA.AperFunction,Plated,PTH,ComponentDrill
T6C1.300
; #@! TA.AperFunction,Plated,PTH,ComponentDrill
T7C1.320
; #@! TA.AperFunction,Plated,PTH,ComponentDrill
T8C1.980
; #@! TA.AperFunction,Plated,PTH,ComponentDrill
T9C2.200
%
G90
G05
T1
X105.25Y-79.5
X106.2Y-65.65
X109.15Y-44.35
X110.9Y-47.5
X113.5Y-45.25
X117.5Y-30.25
X118.5Y-49.0
X121.98Y-41.28
X122.55Y-44.8
X123.75Y-32.25
X126.0Y-44.25
X126.5Y-38.5
X126.505Y-36.203
X127.25Y-73.0
X127.3Y-35.2
X127.85Y-37.1
X132.33Y-38.08
X138.35Y-27.75
X138.4Y-33.75
X143.0Y-39.5
X154.75Y-31.75
T2
X78.6Y-91.85
X78.933Y-31.833
X79.083Y-90.683
X79.083Y-93.017
X79.417Y-30.667
X79.417Y-33.0
X80.25Y-90.2
X80.25Y-93.5
X80.583Y-30.183
X80.583Y-33.483
X81.417Y-90.683
X81.417Y-93.017
X81.75Y-30.667
X81.75Y-33.0
X81.9Y-91.85
X82.233Y-31.833
X163.35Y-31.75
X163.35Y-91.833
X163.833Y-30.583
X163.833Y-32.917
X163.833Y-90.667
X163.833Y-93.0
X165.0Y-30.1
X165.0Y-33.4
X165.0Y-90.183
X165.0Y-93.483
X166.167Y-30.583
X166.167Y-32.917
X166.167Y-90.667
X166.167Y-93.0
X166.65Y-31.75
X166.65Y-91.833
T3
X112.25Y-66.5
X114.79Y-66.5
X117.33Y-66.5
X119.87Y-66.5
X122.0Y-58.25
X122.41Y-66.5
X126.0Y-50.75
T4
X134.305Y-59.0
X134.305Y-74.0
X163.385Y-64.0
X163.385Y-69.0
T5
X83.8Y-34.85
X83.8Y-51.9
X83.8Y-68.95
X83.8Y-86.0
T6
X114.0Y-89.435
X119.0Y-89.435
X129.5Y-89.435
X134.5Y-89.435
X145.0Y-89.435
X150.0Y-89.435
X163.25Y-81.25
X163.25Y-86.25
T7
X85.8Y-28.85
X85.8Y-40.85
X85.8Y-45.9
X85.8Y-57.9
X85.8Y-62.95
X85.8Y-74.95
X85.8Y-80.0
X85.8Y-92.0
X98.0Y-28.85
X98.0Y-40.85
X98.0Y-45.9
X98.0Y-57.9
X98.0Y-62.95
X98.0Y-74.95
X98.0Y-80.0
X98.0Y-92.0
T8
X131.0Y-49.25
X138.62Y-49.25
X157.59Y-49.25
X165.21Y-49.25
T9
X80.25Y-91.85
X80.583Y-31.833
X165.0Y-31.75
X165.0Y-91.833
M30
