%TF.GenerationSoftware,KiCad,Pcbnew,9.0.6*%
%TF.CreationDate,2026-04-25T17:02:34+05:30*%
%TF.ProjectId,TIME_BASED_RELAY,54494d45-5f42-4415-9345-445f52454c41,rev?*%
%TF.SameCoordinates,Original*%
%TF.FileFunction,Copper,L1,Top*%
%TF.FilePolarity,Positive*%
%FSLAX46Y46*%
G04 Gerber Fmt 4.6, Leading zero omitted, Abs format (unit mm)*
G04 Created by KiCad (PCBNEW 9.0.6) date 2026-04-25 17:02:34*
%MOMM*%
%LPD*%
G01*
G04 APERTURE LIST*
G04 Aperture macros list*
%AMRoundRect*
0 Rectangle with rounded corners*
0 $1 Rounding radius*
0 $2 $3 $4 $5 $6 $7 $8 $9 X,Y pos of 4 corners*
0 Add a 4 corners polygon primitive as box body*
4,1,4,$2,$3,$4,$5,$6,$7,$8,$9,$2,$3,0*
0 Add four circle primitives for the rounded corners*
1,1,$1+$1,$2,$3*
1,1,$1+$1,$4,$5*
1,1,$1+$1,$6,$7*
1,1,$1+$1,$8,$9*
0 Add four rect primitives between the rounded corners*
20,1,$1+$1,$2,$3,$4,$5,0*
20,1,$1+$1,$4,$5,$6,$7,0*
20,1,$1+$1,$6,$7,$8,$9,0*
20,1,$1+$1,$8,$9,$2,$3,0*%
%AMFreePoly0*
4,1,14,0.728536,0.728536,0.730000,0.725000,0.730000,-0.725000,0.728536,-0.728536,0.725000,-0.730000,-0.725000,-0.730000,-0.728536,-0.728536,-0.730000,-0.725000,-0.730000,0.125000,-0.728536,0.128536,-0.128536,0.728536,-0.125000,0.730000,0.725000,0.730000,0.728536,0.728536,0.728536,0.728536,$1*%
G04 Aperture macros list end*
%TA.AperFunction,SMDPad,CuDef*%
%ADD10RoundRect,0.250000X-0.350000X-0.450000X0.350000X-0.450000X0.350000X0.450000X-0.350000X0.450000X0*%
%TD*%
%TA.AperFunction,SMDPad,CuDef*%
%ADD11RoundRect,0.150000X-0.587500X-0.150000X0.587500X-0.150000X0.587500X0.150000X-0.587500X0.150000X0*%
%TD*%
%TA.AperFunction,ComponentPad*%
%ADD12RoundRect,0.750000X0.750000X0.750000X-0.750000X0.750000X-0.750000X-0.750000X0.750000X-0.750000X0*%
%TD*%
%TA.AperFunction,ComponentPad*%
%ADD13C,3.000000*%
%TD*%
%TA.AperFunction,ComponentPad*%
%ADD14R,1.980000X1.980000*%
%TD*%
%TA.AperFunction,ComponentPad*%
%ADD15C,1.980000*%
%TD*%
%TA.AperFunction,ComponentPad*%
%ADD16C,1.935000*%
%TD*%
%TA.AperFunction,SMDPad,CuDef*%
%ADD17RoundRect,0.250000X0.337500X0.475000X-0.337500X0.475000X-0.337500X-0.475000X0.337500X-0.475000X0*%
%TD*%
%TA.AperFunction,SMDPad,CuDef*%
%ADD18R,0.800000X0.400000*%
%TD*%
%TA.AperFunction,SMDPad,CuDef*%
%ADD19R,0.400000X0.800000*%
%TD*%
%TA.AperFunction,SMDPad,CuDef*%
%ADD20FreePoly0,0.000000*%
%TD*%
%TA.AperFunction,SMDPad,CuDef*%
%ADD21R,1.450000X1.450000*%
%TD*%
%TA.AperFunction,SMDPad,CuDef*%
%ADD22R,0.700000X0.700000*%
%TD*%
%TA.AperFunction,SMDPad,CuDef*%
%ADD23RoundRect,0.250000X0.450000X-0.350000X0.450000X0.350000X-0.450000X0.350000X-0.450000X-0.350000X0*%
%TD*%
%TA.AperFunction,SMDPad,CuDef*%
%ADD24RoundRect,0.250000X0.650000X-1.000000X0.650000X1.000000X-0.650000X1.000000X-0.650000X-1.000000X0*%
%TD*%
%TA.AperFunction,SMDPad,CuDef*%
%ADD25RoundRect,0.250000X0.350000X0.450000X-0.350000X0.450000X-0.350000X-0.450000X0.350000X-0.450000X0*%
%TD*%
%TA.AperFunction,SMDPad,CuDef*%
%ADD26R,1.250000X1.000000*%
%TD*%
%TA.AperFunction,SMDPad,CuDef*%
%ADD27RoundRect,0.250000X-0.325000X-0.450000X0.325000X-0.450000X0.325000X0.450000X-0.325000X0.450000X0*%
%TD*%
%TA.AperFunction,SMDPad,CuDef*%
%ADD28RoundRect,0.250000X0.325000X0.450000X-0.325000X0.450000X-0.325000X-0.450000X0.325000X-0.450000X0*%
%TD*%
%TA.AperFunction,ComponentPad*%
%ADD29RoundRect,0.250001X1.149999X1.149999X-1.149999X1.149999X-1.149999X-1.149999X1.149999X-1.149999X0*%
%TD*%
%TA.AperFunction,ComponentPad*%
%ADD30C,2.800000*%
%TD*%
%TA.AperFunction,SMDPad,CuDef*%
%ADD31RoundRect,0.150000X-0.150000X0.587500X-0.150000X-0.587500X0.150000X-0.587500X0.150000X0.587500X0*%
%TD*%
%TA.AperFunction,ComponentPad*%
%ADD32RoundRect,0.250000X-0.600000X-0.750000X0.600000X-0.750000X0.600000X0.750000X-0.600000X0.750000X0*%
%TD*%
%TA.AperFunction,ComponentPad*%
%ADD33O,1.700000X2.000000*%
%TD*%
%TA.AperFunction,SMDPad,CuDef*%
%ADD34RoundRect,0.150000X0.587500X0.150000X-0.587500X0.150000X-0.587500X-0.150000X0.587500X-0.150000X0*%
%TD*%
%TA.AperFunction,ComponentPad*%
%ADD35RoundRect,0.250001X-1.149999X1.149999X-1.149999X-1.149999X1.149999X-1.149999X1.149999X1.149999X0*%
%TD*%
%TA.AperFunction,SMDPad,CuDef*%
%ADD36RoundRect,0.250000X-0.475000X0.337500X-0.475000X-0.337500X0.475000X-0.337500X0.475000X0.337500X0*%
%TD*%
%TA.AperFunction,SMDPad,CuDef*%
%ADD37RoundRect,0.250000X-0.450000X0.350000X-0.450000X-0.350000X0.450000X-0.350000X0.450000X0.350000X0*%
%TD*%
%TA.AperFunction,ComponentPad*%
%ADD38C,0.700000*%
%TD*%
%TA.AperFunction,ComponentPad*%
%ADD39C,4.400000*%
%TD*%
%TA.AperFunction,SMDPad,CuDef*%
%ADD40RoundRect,0.250000X0.450000X-0.325000X0.450000X0.325000X-0.450000X0.325000X-0.450000X-0.325000X0*%
%TD*%
%TA.AperFunction,SMDPad,CuDef*%
%ADD41RoundRect,0.375000X0.375000X-0.625000X0.375000X0.625000X-0.375000X0.625000X-0.375000X-0.625000X0*%
%TD*%
%TA.AperFunction,SMDPad,CuDef*%
%ADD42RoundRect,0.500000X1.400000X-0.500000X1.400000X0.500000X-1.400000X0.500000X-1.400000X-0.500000X0*%
%TD*%
%TA.AperFunction,SMDPad,CuDef*%
%ADD43RoundRect,0.150000X-0.150000X-0.625000X0.150000X-0.625000X0.150000X0.625000X-0.150000X0.625000X0*%
%TD*%
%TA.AperFunction,SMDPad,CuDef*%
%ADD44RoundRect,0.250000X-0.350000X-0.650000X0.350000X-0.650000X0.350000X0.650000X-0.350000X0.650000X0*%
%TD*%
%TA.AperFunction,SMDPad,CuDef*%
%ADD45RoundRect,0.250000X-0.337500X-0.475000X0.337500X-0.475000X0.337500X0.475000X-0.337500X0.475000X0*%
%TD*%
%TA.AperFunction,SMDPad,CuDef*%
%ADD46RoundRect,0.150000X-0.875000X-0.150000X0.875000X-0.150000X0.875000X0.150000X-0.875000X0.150000X0*%
%TD*%
%TA.AperFunction,ComponentPad*%
%ADD47C,1.800000*%
%TD*%
%TA.AperFunction,ComponentPad*%
%ADD48R,1.600000X1.600000*%
%TD*%
%TA.AperFunction,ComponentPad*%
%ADD49C,1.600000*%
%TD*%
%TA.AperFunction,ViaPad*%
%ADD50C,0.600000*%
%TD*%
%TA.AperFunction,Conductor*%
%ADD51C,0.400000*%
%TD*%
G04 APERTURE END LIST*
D10*
%TO.P,R5,1*%
%TO.N,/RELAY MODULES/5V*%
X137192000Y-102285800D03*
%TO.P,R5,2*%
%TO.N,Net-(D7-A)*%
X139192000Y-102285800D03*
%TD*%
D11*
%TO.P,Q4,1,G*%
%TO.N,REL4*%
X195456400Y-62619600D03*
%TO.P,Q4,2,S*%
%TO.N,GND*%
X195456400Y-64519600D03*
%TO.P,Q4,3,D*%
%TO.N,/RELAY MODULES/MOS_4*%
X197331400Y-63569600D03*
%TD*%
D12*
%TO.P,F1,1*%
%TO.N,LIVE*%
X196410000Y-115805000D03*
X188790000Y-115805000D03*
D13*
%TO.P,F1,2*%
%TO.N,FUSED_LIVE*%
X169820000Y-115805000D03*
X162200000Y-115805000D03*
%TD*%
D14*
%TO.P,K4,A1*%
%TO.N,/RELAY MODULES/5V*%
X208915000Y-106857800D03*
D15*
%TO.P,K4,A2*%
%TO.N,/RELAY MODULES/MOS_4*%
X208915000Y-118857800D03*
D16*
%TO.P,K4,COM*%
%TO.N,LIVE*%
X206915000Y-112857800D03*
D15*
%TO.P,K4,NC*%
%TO.N,unconnected-(K4-PadNC)*%
X221115000Y-106857800D03*
%TO.P,K4,NO*%
%TO.N,/RELAY MODULES/LIVE4*%
X221115000Y-118857800D03*
%TD*%
D17*
%TO.P,C2,1*%
%TO.N,3V3*%
X181272500Y-72480000D03*
%TO.P,C2,2*%
%TO.N,GND*%
X179197500Y-72480000D03*
%TD*%
D18*
%TO.P,U3,1,GND*%
%TO.N,GND*%
X173797800Y-51168600D03*
%TO.P,U3,2,GND*%
X173797800Y-51968600D03*
%TO.P,U3,3,3V3*%
%TO.N,3V3*%
X173797800Y-52768600D03*
%TO.P,U3,4,NC*%
%TO.N,unconnected-(U3-NC-Pad4)*%
X173797800Y-53568600D03*
%TO.P,U3,5,IO2*%
%TO.N,unconnected-(U3-IO2-Pad5)*%
X173797800Y-54368600D03*
%TO.P,U3,6,IO3*%
%TO.N,SCL*%
X173797800Y-55168600D03*
%TO.P,U3,7,NC*%
%TO.N,unconnected-(U3-NC-Pad7)*%
X173797800Y-55968600D03*
%TO.P,U3,8,EN*%
%TO.N,EN*%
X173797800Y-56768600D03*
%TO.P,U3,9,NC*%
%TO.N,unconnected-(U3-NC-Pad9)*%
X173797800Y-57568600D03*
%TO.P,U3,10,NC*%
%TO.N,unconnected-(U3-NC-Pad10)*%
X173797800Y-58368600D03*
%TO.P,U3,11,GND*%
%TO.N,GND*%
X173797800Y-59168600D03*
D19*
%TO.P,U3,12,IO0*%
%TO.N,REL1*%
X174897800Y-60068600D03*
%TO.P,U3,13,IO1*%
%TO.N,REL2*%
X175697800Y-60068600D03*
%TO.P,U3,14,GND*%
%TO.N,GND*%
X176497800Y-60068600D03*
%TO.P,U3,15,NC*%
%TO.N,unconnected-(U3-NC-Pad15)*%
X177297800Y-60068600D03*
%TO.P,U3,16,IO10*%
%TO.N,unconnected-(U3-IO10-Pad16)*%
X178097800Y-60068600D03*
%TO.P,U3,17,NC*%
%TO.N,unconnected-(U3-NC-Pad17)*%
X178897800Y-60068600D03*
%TO.P,U3,18,IO4*%
%TO.N,SDA*%
X179697800Y-60068600D03*
%TO.P,U3,19,IO5*%
%TO.N,unconnected-(U3-IO5-Pad19)*%
X180497800Y-60068600D03*
%TO.P,U3,20,IO6*%
%TO.N,REL3*%
X181297800Y-60068600D03*
%TO.P,U3,21,IO7*%
%TO.N,REL4*%
X182097800Y-60068600D03*
%TO.P,U3,22,IO8*%
%TO.N,GPIO8*%
X182897800Y-60068600D03*
%TO.P,U3,23,IO9*%
%TO.N,BOOT*%
X183697800Y-60068600D03*
%TO.P,U3,24,NC*%
%TO.N,unconnected-(U3-NC-Pad24)*%
X184497800Y-60068600D03*
D18*
%TO.P,U3,25,NC*%
%TO.N,unconnected-(U3-NC-Pad25)*%
X185597800Y-59168600D03*
%TO.P,U3,26,IO18*%
%TO.N,unconnected-(U3-IO18-Pad26)*%
X185597800Y-58368600D03*
%TO.P,U3,27,IO19*%
%TO.N,unconnected-(U3-IO19-Pad27)*%
X185597800Y-57568600D03*
%TO.P,U3,28,NC*%
%TO.N,unconnected-(U3-NC-Pad28)*%
X185597800Y-56768600D03*
%TO.P,U3,29,NC*%
%TO.N,unconnected-(U3-NC-Pad29)*%
X185597800Y-55968600D03*
%TO.P,U3,30,RXD0*%
%TO.N,RX*%
X185597800Y-55168600D03*
%TO.P,U3,31,TXD0*%
%TO.N,TX*%
X185597800Y-54368600D03*
%TO.P,U3,32,NC*%
%TO.N,unconnected-(U3-NC-Pad32)*%
X185597800Y-53568600D03*
%TO.P,U3,33,NC*%
%TO.N,unconnected-(U3-NC-Pad33)*%
X185597800Y-52768600D03*
%TO.P,U3,34,NC*%
%TO.N,unconnected-(U3-NC-Pad34)*%
X185597800Y-51968600D03*
%TO.P,U3,35,NC*%
%TO.N,unconnected-(U3-NC-Pad35)*%
X185597800Y-51168600D03*
D19*
%TO.P,U3,36,GND*%
%TO.N,GND*%
X184497800Y-50268600D03*
%TO.P,U3,37,GND*%
X183697800Y-50268600D03*
%TO.P,U3,38,GND*%
X182897800Y-50268600D03*
%TO.P,U3,39,GND*%
X182097800Y-50268600D03*
%TO.P,U3,40,GND*%
X181297800Y-50268600D03*
%TO.P,U3,41,GND*%
X180497800Y-50268600D03*
%TO.P,U3,42,GND*%
X179697800Y-50268600D03*
%TO.P,U3,43,GND*%
X178897800Y-50268600D03*
%TO.P,U3,44,GND*%
X178097800Y-50268600D03*
%TO.P,U3,45,GND*%
X177297800Y-50268600D03*
%TO.P,U3,46,GND*%
X176497800Y-50268600D03*
%TO.P,U3,47,GND*%
X175697800Y-50268600D03*
%TO.P,U3,48,GND*%
X174897800Y-50268600D03*
D20*
%TO.P,U3,49_1,GND*%
X177722800Y-53193600D03*
D21*
%TO.P,U3,49_2,GND*%
X179697800Y-53193600D03*
%TO.P,U3,49_3,GND*%
X181672800Y-53193600D03*
%TO.P,U3,49_4,GND*%
X181672800Y-55168600D03*
%TO.P,U3,49_5,GND*%
X181672800Y-57143600D03*
%TO.P,U3,49_6,GND*%
X179697800Y-57143600D03*
%TO.P,U3,49_7,GND*%
X177722800Y-57143600D03*
%TO.P,U3,49_8,GND*%
X177722800Y-55168600D03*
%TO.P,U3,49_9,GND*%
X179697800Y-55168600D03*
D22*
%TO.P,U3,50,GND*%
X185647800Y-50218600D03*
%TO.P,U3,51,GND*%
X185647800Y-60118600D03*
%TO.P,U3,52,GND*%
X173747800Y-60118600D03*
%TO.P,U3,53,GND*%
X173747800Y-50218600D03*
%TD*%
D17*
%TO.P,C4,1*%
%TO.N,3V3*%
X181272500Y-75480000D03*
%TO.P,C4,2*%
%TO.N,GND*%
X179197500Y-75480000D03*
%TD*%
D23*
%TO.P,R4,1*%
%TO.N,/RELAY MODULES/5V*%
X136959997Y-85754185D03*
%TO.P,R4,2*%
%TO.N,Net-(D6-A)*%
X136959997Y-83754185D03*
%TD*%
D24*
%TO.P,D4,1,K*%
%TO.N,/RELAY MODULES/MOS_3*%
X202210000Y-86960000D03*
%TO.P,D4,2,A*%
%TO.N,/RELAY MODULES/5V*%
X202210000Y-82960000D03*
%TD*%
D25*
%TO.P,R7,1*%
%TO.N,/RELAY MODULES/5V*%
X197456400Y-69519600D03*
%TO.P,R7,2*%
%TO.N,Net-(D9-A)*%
X195456400Y-69519600D03*
%TD*%
D26*
%TO.P,BOOT1,1,1*%
%TO.N,BOOT*%
X186705000Y-86500000D03*
%TO.P,BOOT1,2,2*%
%TO.N,GND*%
X178955000Y-86500000D03*
%TD*%
D27*
%TO.P,D7,1,K*%
%TO.N,/RELAY MODULES/MOS_2*%
X137142000Y-104785800D03*
%TO.P,D7,2,A*%
%TO.N,Net-(D7-A)*%
X139192000Y-104785800D03*
%TD*%
D26*
%TO.P,RST,1,1*%
%TO.N,EN*%
X187110000Y-80230000D03*
%TO.P,RST,2,2*%
%TO.N,GND*%
X179360000Y-80230000D03*
%TD*%
D24*
%TO.P,D2,1,K*%
%TO.N,/RELAY MODULES/MOS_1*%
X202336400Y-69189600D03*
%TO.P,D2,2,A*%
%TO.N,/RELAY MODULES/5V*%
X202336400Y-65189600D03*
%TD*%
D28*
%TO.P,D1,1,K*%
%TO.N,GND*%
X139877800Y-116789200D03*
%TO.P,D1,2,A*%
%TO.N,Net-(D1-A)*%
X137827800Y-116789200D03*
%TD*%
D29*
%TO.P,J2,1,Pin_1*%
%TO.N,/RELAY MODULES/LIVE1*%
X186956400Y-66084600D03*
D30*
%TO.P,J2,2,Pin_2*%
%TO.N,NEUTRAL*%
X181956400Y-66084600D03*
%TD*%
D31*
%TO.P,Q3,1,G*%
%TO.N,REL3*%
X143627800Y-77213400D03*
%TO.P,Q3,2,S*%
%TO.N,GND*%
X141727800Y-77213400D03*
%TO.P,Q3,3,D*%
%TO.N,/RELAY MODULES/MOS_3*%
X142677800Y-79088400D03*
%TD*%
D32*
%TO.P,PS1,1,AC/L*%
%TO.N,FUSED_LIVE*%
X164025000Y-98680000D03*
D33*
%TO.P,PS1,2,AC/N*%
%TO.N,NEUTRAL*%
X164025000Y-103680000D03*
%TO.P,PS1,3,-Vout*%
%TO.N,GND*%
X193105000Y-93680000D03*
%TO.P,PS1,4,+Vout*%
%TO.N,/5V*%
X193105000Y-108680000D03*
%TD*%
D17*
%TO.P,C6,1*%
%TO.N,EN*%
X185310000Y-75480000D03*
%TO.P,C6,2*%
%TO.N,GND*%
X183235000Y-75480000D03*
%TD*%
D10*
%TO.P,R3,1*%
%TO.N,3V3*%
X183235000Y-72480000D03*
%TO.P,R3,2*%
%TO.N,EN*%
X185235000Y-72480000D03*
%TD*%
D29*
%TO.P,J4,1,Pin_1*%
%TO.N,/RELAY MODULES/LIVE2*%
X156071400Y-65992100D03*
D30*
%TO.P,J4,2,Pin_2*%
%TO.N,NEUTRAL*%
X151071400Y-65992100D03*
%TD*%
D24*
%TO.P,D5,1,K*%
%TO.N,/RELAY MODULES/MOS_4*%
X202210000Y-115960000D03*
%TO.P,D5,2,A*%
%TO.N,/RELAY MODULES/5V*%
X202210000Y-111960000D03*
%TD*%
D34*
%TO.P,Q2,1,G*%
%TO.N,REL2*%
X138692000Y-109285800D03*
%TO.P,Q2,2,S*%
%TO.N,GND*%
X138692000Y-107385800D03*
%TO.P,Q2,3,D*%
%TO.N,/RELAY MODULES/MOS_2*%
X136817000Y-108335800D03*
%TD*%
D35*
%TO.P,J5,1,Pin_1*%
%TO.N,/RELAY MODULES/LIVE4*%
X164160000Y-81430000D03*
D30*
%TO.P,J5,2,Pin_2*%
%TO.N,NEUTRAL*%
X164160000Y-86430000D03*
%TD*%
D36*
%TO.P,C1,1*%
%TO.N,3V3*%
X140077800Y-112311700D03*
%TO.P,C1,2*%
%TO.N,GND*%
X140077800Y-114386700D03*
%TD*%
D37*
%TO.P,R2,1*%
%TO.N,3V3*%
X189291715Y-72690000D03*
%TO.P,R2,2*%
%TO.N,GPIO8*%
X189291715Y-74690000D03*
%TD*%
D14*
%TO.P,K3,A1*%
%TO.N,/RELAY MODULES/5V*%
X209010000Y-74360000D03*
D15*
%TO.P,K3,A2*%
%TO.N,/RELAY MODULES/MOS_3*%
X209010000Y-86360000D03*
D16*
%TO.P,K3,COM*%
%TO.N,LIVE*%
X207010000Y-80360000D03*
D15*
%TO.P,K3,NC*%
%TO.N,unconnected-(K3-PadNC)*%
X221210000Y-74360000D03*
%TO.P,K3,NO*%
%TO.N,/RELAY MODULES/LIVE3*%
X221210000Y-86360000D03*
%TD*%
D29*
%TO.P,J3,1,Pin_1*%
%TO.N,/RELAY MODULES/LIVE3*%
X171571400Y-65992100D03*
D30*
%TO.P,J3,2,Pin_2*%
%TO.N,NEUTRAL*%
X166571400Y-65992100D03*
%TD*%
D31*
%TO.P,Q1,1,G*%
%TO.N,REL1*%
X144459997Y-84254185D03*
%TO.P,Q1,2,S*%
%TO.N,GND*%
X142559997Y-84254185D03*
%TO.P,Q1,3,D*%
%TO.N,/RELAY MODULES/MOS_1*%
X143509997Y-86129185D03*
%TD*%
D38*
%TO.P,H3,1*%
%TO.N,N/C*%
X135765674Y-53468674D03*
X136248948Y-52301948D03*
X136248948Y-54635400D03*
X137415674Y-51818674D03*
D39*
X137415674Y-53468674D03*
D38*
X137415674Y-55118674D03*
X138582400Y-52301948D03*
X138582400Y-54635400D03*
X139065674Y-53468674D03*
%TD*%
D40*
%TO.P,D8,1,K*%
%TO.N,/RELAY MODULES/MOS_3*%
X139127800Y-78763400D03*
%TO.P,D8,2,A*%
%TO.N,Net-(D8-A)*%
X139127800Y-76713400D03*
%TD*%
D41*
%TO.P,U2,1,GND*%
%TO.N,GND*%
X137577800Y-95733400D03*
%TO.P,U2,2,VO*%
%TO.N,3V3*%
X139877800Y-95733400D03*
D42*
X139877800Y-89433400D03*
D41*
%TO.P,U2,3,VI*%
%TO.N,/5V*%
X142177800Y-95733400D03*
%TD*%
D14*
%TO.P,K1,A1*%
%TO.N,/RELAY MODULES/5V*%
X209088800Y-58262000D03*
D15*
%TO.P,K1,A2*%
%TO.N,/RELAY MODULES/MOS_1*%
X209088800Y-70262000D03*
D16*
%TO.P,K1,COM*%
%TO.N,LIVE*%
X207088800Y-64262000D03*
D15*
%TO.P,K1,NC*%
%TO.N,unconnected-(K1-PadNC)*%
X221288800Y-58262000D03*
%TO.P,K1,NO*%
%TO.N,/RELAY MODULES/LIVE1*%
X221288800Y-70262000D03*
%TD*%
D43*
%TO.P,J1,1,Pin_1*%
%TO.N,3V3*%
X171960000Y-83700000D03*
%TO.P,J1,2,Pin_2*%
%TO.N,RX*%
X172960000Y-83700000D03*
%TO.P,J1,3,Pin_3*%
%TO.N,TX*%
X173960000Y-83700000D03*
%TO.P,J1,4,Pin_4*%
%TO.N,GND*%
X174960000Y-83700000D03*
D44*
%TO.P,J1,MP*%
%TO.N,N/C*%
X170660000Y-87575000D03*
X176260000Y-87575000D03*
%TD*%
D38*
%TO.P,H2,1*%
%TO.N,N/C*%
X220410000Y-123812800D03*
X220893274Y-122646074D03*
X220893274Y-124979526D03*
X222060000Y-122162800D03*
D39*
X222060000Y-123812800D03*
D38*
X222060000Y-125462800D03*
X223226726Y-122646074D03*
X223226726Y-124979526D03*
X223710000Y-123812800D03*
%TD*%
D24*
%TO.P,D3,1,K*%
%TO.N,/RELAY MODULES/MOS_2*%
X202210000Y-103960000D03*
%TO.P,D3,2,A*%
%TO.N,/RELAY MODULES/5V*%
X202210000Y-99960000D03*
%TD*%
D40*
%TO.P,D6,1,K*%
%TO.N,/RELAY MODULES/MOS_1*%
X139959997Y-85804185D03*
%TO.P,D6,2,A*%
%TO.N,Net-(D6-A)*%
X139959997Y-83754185D03*
%TD*%
D45*
%TO.P,C3,1*%
%TO.N,/5V*%
X141377800Y-98733400D03*
%TO.P,C3,2*%
%TO.N,GND*%
X143452800Y-98733400D03*
%TD*%
D38*
%TO.P,H4,1*%
%TO.N,N/C*%
X220410000Y-53530000D03*
X220893274Y-52363274D03*
X220893274Y-54696726D03*
X222060000Y-51880000D03*
D39*
X222060000Y-53530000D03*
D38*
X222060000Y-55180000D03*
X223226726Y-52363274D03*
X223226726Y-54696726D03*
X223710000Y-53530000D03*
%TD*%
D23*
%TO.P,R6,1*%
%TO.N,/RELAY MODULES/5V*%
X136627800Y-78713400D03*
%TO.P,R6,2*%
%TO.N,Net-(D8-A)*%
X136627800Y-76713400D03*
%TD*%
D46*
%TO.P,U1,1,32KHZ*%
%TO.N,32K*%
X145640000Y-110150000D03*
%TO.P,U1,2,VCC*%
%TO.N,3V3*%
X145640000Y-111420000D03*
%TO.P,U1,3,~{INT}/SQW*%
%TO.N,INT*%
X145640000Y-112690000D03*
%TO.P,U1,4,~{RST}*%
%TO.N,unconnected-(U1-~{RST}-Pad4)*%
X145640000Y-113960000D03*
%TO.P,U1,5,GND*%
%TO.N,GND*%
X145640000Y-115230000D03*
%TO.P,U1,6,GND*%
X145640000Y-116500000D03*
%TO.P,U1,7,GND*%
X145640000Y-117770000D03*
%TO.P,U1,8,GND*%
X145640000Y-119040000D03*
%TO.P,U1,9,GND*%
X154940000Y-119040000D03*
%TO.P,U1,10,GND*%
X154940000Y-117770000D03*
%TO.P,U1,11,GND*%
X154940000Y-116500000D03*
%TO.P,U1,12,GND*%
X154940000Y-115230000D03*
%TO.P,U1,13,GND*%
X154940000Y-113960000D03*
%TO.P,U1,14,VBAT*%
%TO.N,VBAT*%
X154940000Y-112690000D03*
%TO.P,U1,15,SDA*%
%TO.N,SDA*%
X154940000Y-111420000D03*
%TO.P,U1,16,SCL*%
%TO.N,SCL*%
X154940000Y-110150000D03*
%TD*%
D14*
%TO.P,K2,A1*%
%TO.N,/RELAY MODULES/5V*%
X208965800Y-90601800D03*
D15*
%TO.P,K2,A2*%
%TO.N,/RELAY MODULES/MOS_2*%
X208965800Y-102601800D03*
D16*
%TO.P,K2,COM*%
%TO.N,LIVE*%
X206965800Y-96601800D03*
D15*
%TO.P,K2,NC*%
%TO.N,unconnected-(K2-PadNC)*%
X221165800Y-90601800D03*
%TO.P,K2,NO*%
%TO.N,/RELAY MODULES/LIVE2*%
X221165800Y-102601800D03*
%TD*%
D37*
%TO.P,R1,1*%
%TO.N,3V3*%
X137577800Y-112289200D03*
%TO.P,R1,2*%
%TO.N,Net-(D1-A)*%
X137577800Y-114289200D03*
%TD*%
D17*
%TO.P,C5,1*%
%TO.N,3V3*%
X138877800Y-98733400D03*
%TO.P,C5,2*%
%TO.N,GND*%
X136802800Y-98733400D03*
%TD*%
D47*
%TO.P,RV1,1*%
%TO.N,/5V*%
X156047803Y-86379215D03*
%TO.P,RV1,2*%
%TO.N,GND*%
X152047803Y-93879215D03*
%TD*%
D38*
%TO.P,H1,1*%
%TO.N,N/C*%
X135663400Y-123825000D03*
X136146674Y-122658274D03*
X136146674Y-124991726D03*
X137313400Y-122175000D03*
D39*
X137313400Y-123825000D03*
D38*
X137313400Y-125475000D03*
X138480126Y-122658274D03*
X138480126Y-124991726D03*
X138963400Y-123825000D03*
%TD*%
D28*
%TO.P,D9,1,K*%
%TO.N,/RELAY MODULES/MOS_4*%
X197506400Y-67019600D03*
%TO.P,D9,2,A*%
%TO.N,Net-(D9-A)*%
X195456400Y-67019600D03*
%TD*%
D48*
%TO.P,RN1,1,common*%
%TO.N,3V3*%
X142290000Y-106345000D03*
D49*
%TO.P,RN1,2,R1*%
%TO.N,unconnected-(RN1-R1-Pad2)*%
X144830000Y-106345000D03*
%TO.P,RN1,3,R2*%
%TO.N,INT*%
X147370000Y-106345000D03*
%TO.P,RN1,4,R3*%
%TO.N,SCL*%
X149910000Y-106345000D03*
%TO.P,RN1,5,R4*%
%TO.N,SDA*%
X152450000Y-106345000D03*
%TD*%
D50*
%TO.N,GND*%
X151968200Y-86588600D03*
X147701000Y-82448400D03*
X147774400Y-94411800D03*
%TO.N,3V3*%
X191084200Y-72618600D03*
X191084200Y-75311000D03*
%TO.N,/5V*%
X148183600Y-89712800D03*
%TO.N,/RELAY MODULES/5V*%
X199364600Y-69596000D03*
X196773800Y-70993000D03*
X199364600Y-66598800D03*
X170967400Y-60168600D03*
%TO.N,/RELAY MODULES/MOS_2*%
X206705200Y-102565200D03*
X204673200Y-104470200D03*
%TO.N,/RELAY MODULES/MOS_3*%
X207619600Y-83845400D03*
X141732000Y-75107800D03*
X139242800Y-80975200D03*
X202184000Y-89890600D03*
%TO.N,LIVE*%
X202717400Y-110210000D03*
X208915000Y-97282000D03*
X202742800Y-108610400D03*
X214503000Y-74955400D03*
%TO.N,TX*%
X170840400Y-73761600D03*
%TO.N,REL1*%
X169697400Y-58648600D03*
X174980600Y-58648600D03*
%TO.N,REL3*%
X178663600Y-58674000D03*
X146608800Y-71907400D03*
%TO.N,SDA*%
X178130200Y-68503800D03*
%TO.N,VBAT*%
X165227000Y-108026200D03*
%TD*%
D51*
%TO.N,*%
X170660000Y-87575000D02*
X176260000Y-87575000D01*
%TO.N,GND*%
X136802800Y-98733400D02*
X136802800Y-96508400D01*
X177722800Y-53193600D02*
X177722800Y-57143600D01*
X177722800Y-57143600D02*
X179697800Y-55168600D01*
X154940000Y-119040000D02*
X145640000Y-119040000D01*
X174627800Y-50218600D02*
X174675800Y-50266600D01*
X179697800Y-53193600D02*
X179697800Y-55168600D01*
X177722800Y-53193600D02*
X179697800Y-53193600D01*
X152047803Y-86668203D02*
X152047803Y-88539323D01*
X145640000Y-119040000D02*
X145640000Y-115230000D01*
X139877800Y-116789200D02*
X139877800Y-114586700D01*
X144262912Y-82194400D02*
X144619782Y-82194400D01*
X181672800Y-55168600D02*
X179697800Y-55168600D01*
X173797800Y-60068600D02*
X173747800Y-60118600D01*
X181672800Y-57143600D02*
X177722800Y-57143600D01*
X163414001Y-88231000D02*
X167318400Y-88231000D01*
X173797800Y-50268600D02*
X173747800Y-50218600D01*
X173797800Y-59168600D02*
X173797800Y-60068600D01*
X147777200Y-94411800D02*
X147774400Y-94411800D01*
X176497800Y-60068600D02*
X176497800Y-58368600D01*
X136166000Y-105597299D02*
X137954501Y-107385800D01*
X142559997Y-84254185D02*
X144619782Y-82194400D01*
X152047803Y-93879215D02*
X152047803Y-88539323D01*
X151968200Y-86588600D02*
X152047803Y-86668203D01*
X174960000Y-84258388D02*
X174960000Y-83700000D01*
X152047803Y-88539323D02*
X155508911Y-85078215D01*
X142110200Y-100076000D02*
X136166000Y-100076000D01*
X143452800Y-98733400D02*
X142110200Y-100076000D01*
X141727800Y-77213400D02*
X141727800Y-79659288D01*
X173797800Y-51968600D02*
X173797800Y-50268600D01*
X175697800Y-51168600D02*
X177722800Y-53193600D01*
X170673400Y-84876000D02*
X174342388Y-84876000D01*
X136802800Y-96508400D02*
X137577800Y-95733400D01*
X179697800Y-57143600D02*
X179697800Y-55168600D01*
X177722800Y-53193600D02*
X179697800Y-55168600D01*
X143452800Y-98733400D02*
X147774400Y-94411800D01*
X154940000Y-119040000D02*
X154940000Y-113960000D01*
X181672800Y-57143600D02*
X181672800Y-53193600D01*
X181672800Y-53193600D02*
X179697800Y-53193600D01*
X139877800Y-114586700D02*
X140077800Y-114386700D01*
X174627800Y-50218600D02*
X173747800Y-50218600D01*
X136166000Y-100076000D02*
X136166000Y-105597299D01*
X160261216Y-85078215D02*
X163414001Y-88231000D01*
X176497800Y-58368600D02*
X177722800Y-57143600D01*
X174897800Y-50268600D02*
X185597800Y-50268600D01*
X136802800Y-98733400D02*
X136166000Y-99370200D01*
X144619782Y-82194400D02*
X147447000Y-82194400D01*
X167318400Y-88231000D02*
X170673400Y-84876000D01*
X147447000Y-82194400D02*
X147701000Y-82448400D01*
X140921100Y-115230000D02*
X145640000Y-115230000D01*
X178955000Y-86500000D02*
X177760000Y-86500000D01*
X174342388Y-84876000D02*
X174960000Y-84258388D01*
X136166000Y-99370200D02*
X136166000Y-100076000D01*
X141727800Y-79659288D02*
X144262912Y-82194400D01*
X177722800Y-55168600D02*
X179697800Y-55168600D01*
X155508911Y-85078215D02*
X160261216Y-85078215D01*
X181672800Y-53193600D02*
X179697800Y-55168600D01*
X140077800Y-114386700D02*
X140921100Y-115230000D01*
X173797800Y-51168600D02*
X175697800Y-51168600D01*
X181672800Y-57143600D02*
X179697800Y-55168600D01*
X177760000Y-86500000D02*
X174960000Y-83700000D01*
X185597800Y-50268600D02*
X185647800Y-50218600D01*
X137954501Y-107385800D02*
X138692000Y-107385800D01*
%TO.N,3V3*%
X140077800Y-112311700D02*
X140969500Y-111420000D01*
X140969500Y-111420000D02*
X145640000Y-111420000D01*
X189291715Y-72690000D02*
X187980715Y-71379000D01*
X139877800Y-89433400D02*
X139877800Y-95733400D01*
X182398500Y-76606000D02*
X189789200Y-76606000D01*
X187980715Y-71379000D02*
X182373500Y-71379000D01*
X137577800Y-112289200D02*
X140055300Y-112289200D01*
X181272500Y-75480000D02*
X182398500Y-76606000D01*
X139877800Y-97733400D02*
X138877800Y-98733400D01*
X139877800Y-95733400D02*
X139877800Y-97733400D01*
X182373500Y-71379000D02*
X181272500Y-72480000D01*
X191084200Y-72618600D02*
X189363115Y-72618600D01*
X189789200Y-76606000D02*
X191084200Y-75311000D01*
X189363115Y-72618600D02*
X189291715Y-72690000D01*
X183235000Y-72480000D02*
X181272500Y-72480000D01*
X140055300Y-112289200D02*
X140077800Y-112311700D01*
%TO.N,/5V*%
X142177800Y-95733400D02*
X148183600Y-89727600D01*
X148183600Y-89727600D02*
X148183600Y-89712800D01*
X193105000Y-108680000D02*
X178348588Y-108680000D01*
X141377800Y-96533400D02*
X142177800Y-95733400D01*
X141377800Y-98733400D02*
X141377800Y-96533400D01*
X178348588Y-108680000D02*
X156047803Y-86379215D01*
%TO.N,Net-(D1-A)*%
X137827800Y-114539200D02*
X137577800Y-114289200D01*
X137827800Y-116789200D02*
X137827800Y-114539200D01*
%TO.N,/RELAY MODULES/MOS_1*%
X139959997Y-85804185D02*
X143184997Y-85804185D01*
X143184997Y-85804185D02*
X143509997Y-86129185D01*
X203408800Y-70262000D02*
X202336400Y-69189600D01*
X209088800Y-70262000D02*
X203408800Y-70262000D01*
%TO.N,/RELAY MODULES/5V*%
X199364600Y-69596000D02*
X197532800Y-69596000D01*
X135526800Y-76086820D02*
X151445020Y-60168600D01*
X222556800Y-102025628D02*
X222556800Y-103177972D01*
X197532800Y-69596000D02*
X197456400Y-69519600D01*
X135858997Y-84653185D02*
X135858997Y-79482203D01*
X221786172Y-87751000D02*
X207001000Y-87751000D01*
X222601000Y-86936172D02*
X221786172Y-87751000D01*
X208915000Y-106857800D02*
X208915000Y-106665000D01*
X135526800Y-77612400D02*
X135526800Y-76086820D01*
X197459600Y-69522800D02*
X197456400Y-69519600D01*
X202336400Y-65189600D02*
X199911200Y-65189600D01*
X209088800Y-58262000D02*
X209088800Y-58437200D01*
X209088800Y-58437200D02*
X202336400Y-65189600D01*
X199364600Y-65736200D02*
X199364600Y-66598800D01*
X196773800Y-70993000D02*
X197459600Y-70307200D01*
X211132972Y-90601800D02*
X222556800Y-102025628D01*
X207001000Y-87751000D02*
X202210000Y-82960000D01*
X221691172Y-120248800D02*
X212370648Y-120248800D01*
X202210000Y-83846000D02*
X208965800Y-90601800D01*
X208965800Y-90601800D02*
X211132972Y-90601800D01*
X206242800Y-103992800D02*
X202210000Y-99960000D01*
X208915000Y-106665000D02*
X206242800Y-103992800D01*
X222556800Y-103177972D02*
X221741972Y-103992800D01*
X199911200Y-65189600D02*
X199364600Y-65736200D01*
X208915000Y-106857800D02*
X211082172Y-106857800D01*
X204081848Y-111960000D02*
X202210000Y-111960000D01*
X151445020Y-60168600D02*
X170967400Y-60168600D01*
X202210000Y-82960000D02*
X202210000Y-83846000D01*
X222506000Y-118281628D02*
X222506000Y-119433972D01*
X212370648Y-120248800D02*
X204081848Y-111960000D01*
X199898000Y-65176400D02*
X199911200Y-65189600D01*
X197456400Y-69519600D02*
X201025800Y-73089000D01*
X209010000Y-74360000D02*
X211177172Y-74360000D01*
X135858997Y-79482203D02*
X136627800Y-78713400D01*
X222601000Y-85783828D02*
X222601000Y-86936172D01*
X211082172Y-106857800D02*
X222506000Y-118281628D01*
X207739000Y-73089000D02*
X209010000Y-74360000D01*
X211177172Y-74360000D02*
X222601000Y-85783828D01*
X136959997Y-85754185D02*
X135858997Y-84653185D01*
X197459600Y-70307200D02*
X197459600Y-69522800D01*
X222506000Y-119433972D02*
X221691172Y-120248800D01*
X201025800Y-73089000D02*
X207739000Y-73089000D01*
X221741972Y-103992800D02*
X206242800Y-103992800D01*
X136627800Y-78713400D02*
X135526800Y-77612400D01*
%TO.N,/RELAY MODULES/MOS_2*%
X204673200Y-104470200D02*
X202720200Y-104470200D01*
X204673200Y-104470200D02*
X204673200Y-104495600D01*
X202720200Y-104470200D02*
X202210000Y-103960000D01*
X208965800Y-102601800D02*
X206741800Y-102601800D01*
X206741800Y-102601800D02*
X206705200Y-102565200D01*
%TO.N,/RELAY MODULES/MOS_3*%
X202184000Y-89890600D02*
X202210000Y-89864600D01*
X142677800Y-76053600D02*
X141732000Y-75107800D01*
X142677800Y-79088400D02*
X142677800Y-76053600D01*
X202210000Y-89864600D02*
X202210000Y-86960000D01*
X139242800Y-80975200D02*
X139242800Y-78878400D01*
X209010000Y-86360000D02*
X207619600Y-84969600D01*
X207619600Y-84969600D02*
X207619600Y-83845400D01*
X139242800Y-78878400D02*
X139127800Y-78763400D01*
%TO.N,/RELAY MODULES/MOS_4*%
X205107800Y-118857800D02*
X202210000Y-115960000D01*
X208915000Y-118857800D02*
X205107800Y-118857800D01*
%TO.N,Net-(D6-A)*%
X136959997Y-83754185D02*
X139959997Y-83754185D01*
%TO.N,Net-(D7-A)*%
X139192000Y-102285800D02*
X139192000Y-104785800D01*
%TO.N,Net-(D8-A)*%
X139127800Y-76713400D02*
X136627800Y-76713400D01*
%TO.N,LIVE*%
X202742800Y-108610400D02*
X202742800Y-110184600D01*
X200909000Y-90545000D02*
X206965800Y-96601800D01*
X217255972Y-64262000D02*
X222679800Y-69685828D01*
X208915000Y-97282000D02*
X208234800Y-96601800D01*
X207010000Y-80360000D02*
X201035400Y-80360000D01*
X201035400Y-80360000D02*
X200909000Y-80486400D01*
X218562572Y-74955400D02*
X214503000Y-74955400D01*
X207088800Y-64262000D02*
X217255972Y-64262000D01*
X222679800Y-70838172D02*
X218562572Y-74955400D01*
X222679800Y-69685828D02*
X222679800Y-70838172D01*
X196410000Y-115805000D02*
X196410000Y-115182420D01*
X196410000Y-115182420D02*
X201283420Y-110309000D01*
X188790000Y-115805000D02*
X196410000Y-115805000D01*
X208234800Y-96601800D02*
X206965800Y-96601800D01*
X200909000Y-80486400D02*
X200909000Y-90545000D01*
X201283420Y-110309000D02*
X204366200Y-110309000D01*
X202742800Y-110184600D02*
X202717400Y-110210000D01*
X204366200Y-110309000D02*
X206915000Y-112857800D01*
%TO.N,FUSED_LIVE*%
X165928000Y-112077000D02*
X162200000Y-115805000D01*
X164025000Y-98680000D02*
X165928000Y-100583000D01*
X165928000Y-100583000D02*
X165928000Y-112077000D01*
X169820000Y-115805000D02*
X162200000Y-115805000D01*
%TO.N,TX*%
X168600820Y-73761600D02*
X170840400Y-73761600D01*
X165586580Y-83231000D02*
X162733420Y-83231000D01*
X173244200Y-82031000D02*
X166786580Y-82031000D01*
X162359000Y-80003420D02*
X168600820Y-73761600D01*
X173960000Y-83700000D02*
X173960000Y-82746800D01*
X173960000Y-82746800D02*
X173244200Y-82031000D01*
X166786580Y-82031000D02*
X165586580Y-83231000D01*
X162733420Y-83231000D02*
X162359000Y-82856580D01*
X162359000Y-82856580D02*
X162359000Y-80003420D01*
%TO.N,/RELAY MODULES/LIVE1*%
X186956400Y-66084600D02*
X189290400Y-68418600D01*
X200529820Y-68418600D02*
X201409820Y-67538600D01*
X189290400Y-68418600D02*
X200529820Y-68418600D01*
X201409820Y-67538600D02*
X218565400Y-67538600D01*
X218565400Y-67538600D02*
X221288800Y-70262000D01*
%TO.N,NEUTRAL*%
X168372400Y-64191100D02*
X166571400Y-65992100D01*
X181956400Y-66084600D02*
X180062900Y-64191100D01*
X151071400Y-73341400D02*
X164160000Y-86430000D01*
X166571400Y-65992100D02*
X164770400Y-64191100D01*
X152872400Y-64191100D02*
X151071400Y-65992100D01*
X180062900Y-64191100D02*
X168372400Y-64191100D01*
X151071400Y-65992100D02*
X151071400Y-73341400D01*
X164770400Y-64191100D02*
X152872400Y-64191100D01*
%TO.N,/RELAY MODULES/LIVE3*%
X177869301Y-73690000D02*
X205558000Y-73690000D01*
X171571400Y-67392099D02*
X177869301Y-73690000D01*
X218228000Y-86360000D02*
X221210000Y-86360000D01*
X171571400Y-65992100D02*
X171571400Y-67392099D01*
X205558000Y-73690000D02*
X218228000Y-86360000D01*
%TO.N,/RELAY MODULES/LIVE2*%
X200264200Y-98309000D02*
X216873000Y-98309000D01*
X171324988Y-69369788D02*
X200264200Y-98309000D01*
X216873000Y-98309000D02*
X221165800Y-102601800D01*
X156071400Y-65992100D02*
X159449088Y-69369788D01*
X159449088Y-69369788D02*
X171324988Y-69369788D01*
%TO.N,/RELAY MODULES/LIVE4*%
X218171800Y-118857800D02*
X221115000Y-118857800D01*
X201283420Y-105611000D02*
X204925000Y-105611000D01*
X164160000Y-81430000D02*
X177102420Y-81430000D01*
X204925000Y-105611000D02*
X218171800Y-118857800D01*
X177102420Y-81430000D02*
X201283420Y-105611000D01*
%TO.N,REL1*%
X134925800Y-85447568D02*
X136233417Y-86755185D01*
X141060997Y-84355765D02*
X141060997Y-83152605D01*
X138434417Y-84754185D02*
X140662577Y-84754185D01*
X141060997Y-83152605D02*
X140686577Y-82778185D01*
X136233417Y-86755185D02*
X137686577Y-86755185D01*
X148669400Y-82471364D02*
X146886579Y-84254185D01*
X169011600Y-59334400D02*
X151429278Y-59334400D01*
X138060997Y-86380765D02*
X138060997Y-85127605D01*
X134925800Y-75837878D02*
X134925800Y-85447568D01*
X175006000Y-58674000D02*
X175006000Y-59960400D01*
X137686577Y-86755185D02*
X138060997Y-86380765D01*
X138060997Y-85127605D02*
X138434417Y-84754185D01*
X174980600Y-58648600D02*
X175006000Y-58674000D01*
X140686577Y-72979982D02*
X148669400Y-64997159D01*
X148669400Y-64997159D02*
X148669400Y-82471364D01*
X169697400Y-58648600D02*
X169011600Y-59334400D01*
X146886579Y-84254185D02*
X144459997Y-84254185D01*
X175006000Y-59960400D02*
X174897800Y-60068600D01*
X151429278Y-59334400D02*
X134925800Y-75837878D01*
X140662577Y-84754185D02*
X141060997Y-84355765D01*
X140686577Y-82778185D02*
X140686577Y-72979982D01*
%TO.N,REL2*%
X175717200Y-60731400D02*
X175697800Y-60712000D01*
X149270400Y-65246101D02*
X153647901Y-60868600D01*
X175697800Y-60712000D02*
X175697800Y-60068600D01*
X149270400Y-96962600D02*
X149270400Y-65246101D01*
X141089000Y-105144000D02*
X149270400Y-96962600D01*
X138692000Y-109285800D02*
X141089000Y-106888800D01*
X141089000Y-106888800D02*
X141089000Y-105144000D01*
X153647901Y-60868600D02*
X175580000Y-60868600D01*
X175580000Y-60868600D02*
X175717200Y-60731400D01*
%TO.N,REL3*%
X180881000Y-58851800D02*
X181297800Y-59268600D01*
X143627800Y-77213400D02*
X146608800Y-74232400D01*
X178663600Y-58674000D02*
X178841400Y-58851800D01*
X146608800Y-74232400D02*
X146608800Y-71907400D01*
X181297800Y-59268600D02*
X181297800Y-60068600D01*
X178841400Y-58851800D02*
X180881000Y-58851800D01*
%TO.N,INT*%
X146664999Y-112690000D02*
X147370000Y-111984999D01*
X145640000Y-112690000D02*
X146664999Y-112690000D01*
X147370000Y-111984999D02*
X147370000Y-106345000D01*
%TO.N,SCL*%
X173797800Y-55168600D02*
X154745136Y-55168600D01*
X143024671Y-109986800D02*
X146169000Y-106842471D01*
X148709000Y-105144000D02*
X149910000Y-106345000D01*
X136947112Y-109986800D02*
X143024671Y-109986800D01*
X153715000Y-110150000D02*
X149910000Y-106345000D01*
X146169000Y-105847529D02*
X146872529Y-105144000D01*
X134324800Y-75588936D02*
X134324800Y-107364488D01*
X134324800Y-107364488D02*
X136947112Y-109986800D01*
X154940000Y-110150000D02*
X153715000Y-110150000D01*
X146872529Y-105144000D02*
X148709000Y-105144000D01*
X154745136Y-55168600D02*
X134324800Y-75588936D01*
X146169000Y-106842471D02*
X146169000Y-105847529D01*
%TO.N,SDA*%
X152943388Y-106345000D02*
X156366000Y-109767612D01*
X156366000Y-111018999D02*
X155964999Y-111420000D01*
X179697800Y-60068600D02*
X179697800Y-60868600D01*
X179697800Y-60868600D02*
X183757400Y-64928200D01*
X152450000Y-106345000D02*
X152943388Y-106345000D01*
X183757400Y-64928200D02*
X183757400Y-66830599D01*
X182084199Y-68503800D02*
X178130200Y-68503800D01*
X155964999Y-111420000D02*
X154940000Y-111420000D01*
X156366000Y-109767612D02*
X156366000Y-111018999D01*
X183757400Y-66830599D02*
X182084199Y-68503800D01*
%TO.N,VBAT*%
X154940000Y-112690000D02*
X160563200Y-112690000D01*
X160563200Y-112690000D02*
X165227000Y-108026200D01*
%TD*%
M02*
