%TF.GenerationSoftware,KiCad,Pcbnew,9.0.6*%
%TF.CreationDate,2026-04-25T17:02:34+05:30*%
%TF.ProjectId,TIME_BASED_RELAY,54494d45-5f42-4415-9345-445f52454c41,rev?*%
%TF.SameCoordinates,Original*%
%TF.FileFunction,Paste,Top*%
%TF.FilePolarity,Positive*%
%FSLAX46Y46*%
G04 Gerber Fmt 4.6, Leading zero omitted, Abs format (unit mm)*
G04 Created by KiCad (PCBNEW 9.0.6) date 2026-04-25 17:02:34*
%MOMM*%
%LPD*%
G01*
G04 APERTURE LIST*
G04 Aperture macros list*
%AMRoundRect*
0 Rectangle with rounded corners*
0 $1 Rounding radius*
0 $2 $3 $4 $5 $6 $7 $8 $9 X,Y pos of 4 corners*
0 Add a 4 corners polygon primitive as box body*
4,1,4,$2,$3,$4,$5,$6,$7,$8,$9,$2,$3,0*
0 Add four circle primitives for the rounded corners*
1,1,$1+$1,$2,$3*
1,1,$1+$1,$4,$5*
1,1,$1+$1,$6,$7*
1,1,$1+$1,$8,$9*
0 Add four rect primitives between the rounded corners*
20,1,$1+$1,$2,$3,$4,$5,0*
20,1,$1+$1,$4,$5,$6,$7,0*
20,1,$1+$1,$6,$7,$8,$9,0*
20,1,$1+$1,$8,$9,$2,$3,0*%
G04 Aperture macros list end*
%ADD10C,0.010000*%
%ADD11RoundRect,0.250000X-0.350000X-0.450000X0.350000X-0.450000X0.350000X0.450000X-0.350000X0.450000X0*%
%ADD12RoundRect,0.150000X-0.587500X-0.150000X0.587500X-0.150000X0.587500X0.150000X-0.587500X0.150000X0*%
%ADD13RoundRect,0.250000X0.337500X0.475000X-0.337500X0.475000X-0.337500X-0.475000X0.337500X-0.475000X0*%
%ADD14R,0.800000X0.400000*%
%ADD15R,0.400000X0.800000*%
%ADD16R,1.450000X1.450000*%
%ADD17R,0.700000X0.700000*%
%ADD18RoundRect,0.250000X0.450000X-0.350000X0.450000X0.350000X-0.450000X0.350000X-0.450000X-0.350000X0*%
%ADD19RoundRect,0.250000X0.650000X-1.000000X0.650000X1.000000X-0.650000X1.000000X-0.650000X-1.000000X0*%
%ADD20RoundRect,0.250000X0.350000X0.450000X-0.350000X0.450000X-0.350000X-0.450000X0.350000X-0.450000X0*%
%ADD21R,1.250000X1.000000*%
%ADD22RoundRect,0.250000X-0.325000X-0.450000X0.325000X-0.450000X0.325000X0.450000X-0.325000X0.450000X0*%
%ADD23RoundRect,0.250000X0.325000X0.450000X-0.325000X0.450000X-0.325000X-0.450000X0.325000X-0.450000X0*%
%ADD24RoundRect,0.150000X-0.150000X0.587500X-0.150000X-0.587500X0.150000X-0.587500X0.150000X0.587500X0*%
%ADD25RoundRect,0.150000X0.587500X0.150000X-0.587500X0.150000X-0.587500X-0.150000X0.587500X-0.150000X0*%
%ADD26RoundRect,0.250000X-0.475000X0.337500X-0.475000X-0.337500X0.475000X-0.337500X0.475000X0.337500X0*%
%ADD27RoundRect,0.250000X-0.450000X0.350000X-0.450000X-0.350000X0.450000X-0.350000X0.450000X0.350000X0*%
%ADD28RoundRect,0.250000X0.450000X-0.325000X0.450000X0.325000X-0.450000X0.325000X-0.450000X-0.325000X0*%
%ADD29RoundRect,0.375000X0.375000X-0.625000X0.375000X0.625000X-0.375000X0.625000X-0.375000X-0.625000X0*%
%ADD30RoundRect,0.500000X1.400000X-0.500000X1.400000X0.500000X-1.400000X0.500000X-1.400000X-0.500000X0*%
%ADD31RoundRect,0.150000X-0.150000X-0.625000X0.150000X-0.625000X0.150000X0.625000X-0.150000X0.625000X0*%
%ADD32RoundRect,0.250000X-0.350000X-0.650000X0.350000X-0.650000X0.350000X0.650000X-0.350000X0.650000X0*%
%ADD33RoundRect,0.250000X-0.337500X-0.475000X0.337500X-0.475000X0.337500X0.475000X-0.337500X0.475000X0*%
%ADD34RoundRect,0.150000X-0.875000X-0.150000X0.875000X-0.150000X0.875000X0.150000X-0.875000X0.150000X0*%
G04 APERTURE END LIST*
D10*
%TO.C,U3*%
X178447800Y-53918600D02*
X176997800Y-53918600D01*
X176997800Y-53068600D01*
X177597800Y-52468600D01*
X178447800Y-52468600D01*
X178447800Y-53918600D01*
G36*
X178447800Y-53918600D02*
G01*
X176997800Y-53918600D01*
X176997800Y-53068600D01*
X177597800Y-52468600D01*
X178447800Y-52468600D01*
X178447800Y-53918600D01*
G37*
%TD*%
D11*
%TO.C,R5*%
X137192000Y-102285800D03*
X139192000Y-102285800D03*
%TD*%
D12*
%TO.C,Q4*%
X195456400Y-62619600D03*
X195456400Y-64519600D03*
X197331400Y-63569600D03*
%TD*%
D13*
%TO.C,C2*%
X181272500Y-72480000D03*
X179197500Y-72480000D03*
%TD*%
D14*
%TO.C,U3*%
X173797800Y-51168600D03*
X173797800Y-51968600D03*
X173797800Y-52768600D03*
X173797800Y-53568600D03*
X173797800Y-54368600D03*
X173797800Y-55168600D03*
X173797800Y-55968600D03*
X173797800Y-56768600D03*
X173797800Y-57568600D03*
X173797800Y-58368600D03*
X173797800Y-59168600D03*
D15*
X174897800Y-60068600D03*
X175697800Y-60068600D03*
X176497800Y-60068600D03*
X177297800Y-60068600D03*
X178097800Y-60068600D03*
X178897800Y-60068600D03*
X179697800Y-60068600D03*
X180497800Y-60068600D03*
X181297800Y-60068600D03*
X182097800Y-60068600D03*
X182897800Y-60068600D03*
X183697800Y-60068600D03*
X184497800Y-60068600D03*
D14*
X185597800Y-59168600D03*
X185597800Y-58368600D03*
X185597800Y-57568600D03*
X185597800Y-56768600D03*
X185597800Y-55968600D03*
X185597800Y-55168600D03*
X185597800Y-54368600D03*
X185597800Y-53568600D03*
X185597800Y-52768600D03*
X185597800Y-51968600D03*
X185597800Y-51168600D03*
D15*
X184497800Y-50268600D03*
X183697800Y-50268600D03*
X182897800Y-50268600D03*
X182097800Y-50268600D03*
X181297800Y-50268600D03*
X180497800Y-50268600D03*
X179697800Y-50268600D03*
X178897800Y-50268600D03*
X178097800Y-50268600D03*
X177297800Y-50268600D03*
X176497800Y-50268600D03*
X175697800Y-50268600D03*
X174897800Y-50268600D03*
D16*
X179697800Y-53193600D03*
X181672800Y-53193600D03*
X181672800Y-55168600D03*
X181672800Y-57143600D03*
X179697800Y-57143600D03*
X177722800Y-57143600D03*
X177722800Y-55168600D03*
X179697800Y-55168600D03*
D17*
X185647800Y-50218600D03*
X185647800Y-60118600D03*
X173747800Y-60118600D03*
X173747800Y-50218600D03*
%TD*%
D13*
%TO.C,C4*%
X181272500Y-75480000D03*
X179197500Y-75480000D03*
%TD*%
D18*
%TO.C,R4*%
X136959997Y-85754185D03*
X136959997Y-83754185D03*
%TD*%
D19*
%TO.C,D4*%
X202210000Y-86960000D03*
X202210000Y-82960000D03*
%TD*%
D20*
%TO.C,R7*%
X197456400Y-69519600D03*
X195456400Y-69519600D03*
%TD*%
D21*
%TO.C,BOOT1*%
X186705000Y-86500000D03*
X178955000Y-86500000D03*
%TD*%
D22*
%TO.C,D7*%
X137142000Y-104785800D03*
X139192000Y-104785800D03*
%TD*%
D21*
%TO.C,RST*%
X187110000Y-80230000D03*
X179360000Y-80230000D03*
%TD*%
D19*
%TO.C,D2*%
X202336400Y-69189600D03*
X202336400Y-65189600D03*
%TD*%
D23*
%TO.C,D1*%
X139877800Y-116789200D03*
X137827800Y-116789200D03*
%TD*%
D24*
%TO.C,Q3*%
X143627800Y-77213400D03*
X141727800Y-77213400D03*
X142677800Y-79088400D03*
%TD*%
D13*
%TO.C,C6*%
X185310000Y-75480000D03*
X183235000Y-75480000D03*
%TD*%
D11*
%TO.C,R3*%
X183235000Y-72480000D03*
X185235000Y-72480000D03*
%TD*%
D19*
%TO.C,D5*%
X202210000Y-115960000D03*
X202210000Y-111960000D03*
%TD*%
D25*
%TO.C,Q2*%
X138692000Y-109285800D03*
X138692000Y-107385800D03*
X136817000Y-108335800D03*
%TD*%
D26*
%TO.C,C1*%
X140077800Y-112311700D03*
X140077800Y-114386700D03*
%TD*%
D27*
%TO.C,R2*%
X189291715Y-72690000D03*
X189291715Y-74690000D03*
%TD*%
D24*
%TO.C,Q1*%
X144459997Y-84254185D03*
X142559997Y-84254185D03*
X143509997Y-86129185D03*
%TD*%
D28*
%TO.C,D8*%
X139127800Y-78763400D03*
X139127800Y-76713400D03*
%TD*%
D29*
%TO.C,U2*%
X137577800Y-95733400D03*
X139877800Y-95733400D03*
D30*
X139877800Y-89433400D03*
D29*
X142177800Y-95733400D03*
%TD*%
D31*
%TO.C,J1*%
X171960000Y-83700000D03*
X172960000Y-83700000D03*
X173960000Y-83700000D03*
X174960000Y-83700000D03*
D32*
X170660000Y-87575000D03*
X176260000Y-87575000D03*
%TD*%
D19*
%TO.C,D3*%
X202210000Y-103960000D03*
X202210000Y-99960000D03*
%TD*%
D28*
%TO.C,D6*%
X139959997Y-85804185D03*
X139959997Y-83754185D03*
%TD*%
D33*
%TO.C,C3*%
X141377800Y-98733400D03*
X143452800Y-98733400D03*
%TD*%
D18*
%TO.C,R6*%
X136627800Y-78713400D03*
X136627800Y-76713400D03*
%TD*%
D34*
%TO.C,U1*%
X145640000Y-110150000D03*
X145640000Y-111420000D03*
X145640000Y-112690000D03*
X145640000Y-113960000D03*
X145640000Y-115230000D03*
X145640000Y-116500000D03*
X145640000Y-117770000D03*
X145640000Y-119040000D03*
X154940000Y-119040000D03*
X154940000Y-117770000D03*
X154940000Y-116500000D03*
X154940000Y-115230000D03*
X154940000Y-113960000D03*
X154940000Y-112690000D03*
X154940000Y-111420000D03*
X154940000Y-110150000D03*
%TD*%
D27*
%TO.C,R1*%
X137577800Y-112289200D03*
X137577800Y-114289200D03*
%TD*%
D13*
%TO.C,C5*%
X138877800Y-98733400D03*
X136802800Y-98733400D03*
%TD*%
D23*
%TO.C,D9*%
X197506400Y-67019600D03*
X195456400Y-67019600D03*
%TD*%
M02*
