%TF.GenerationSoftware,KiCad,Pcbnew,9.0.6*%
%TF.CreationDate,2026-04-25T17:02:34+05:30*%
%TF.ProjectId,TIME_BASED_RELAY,54494d45-5f42-4415-9345-445f52454c41,rev?*%
%TF.SameCoordinates,Original*%
%TF.FileFunction,Legend,Bot*%
%TF.FilePolarity,Positive*%
%FSLAX46Y46*%
G04 Gerber Fmt 4.6, Leading zero omitted, Abs format (unit mm)*
G04 Created by KiCad (PCBNEW 9.0.6) date 2026-04-25 17:02:34*
%MOMM*%
%LPD*%
G01*
G04 APERTURE LIST*
%ADD10C,0.250000*%
%ADD11C,0.400000*%
%ADD12C,0.000000*%
%ADD13C,0.010000*%
%ADD14C,0.120000*%
G04 APERTURE END LIST*
D10*
X207552193Y-52500690D02*
X207552193Y-53334023D01*
X208742669Y-52024500D02*
X209933146Y-52917357D01*
X209933146Y-52917357D02*
X206837907Y-52917357D01*
X202076002Y-53214976D02*
X202314098Y-53274500D01*
X202314098Y-53274500D02*
X203028383Y-53334023D01*
X203028383Y-53334023D02*
X203504574Y-53334023D01*
X203504574Y-53334023D02*
X204218860Y-53274500D01*
X204218860Y-53274500D02*
X204695050Y-53155452D01*
X204695050Y-53155452D02*
X204933145Y-53036404D01*
X204933145Y-53036404D02*
X205171241Y-52798309D01*
X205171241Y-52798309D02*
X205171241Y-52619738D01*
X205171241Y-52619738D02*
X204933145Y-52381642D01*
X204933145Y-52381642D02*
X204695050Y-52262595D01*
X204695050Y-52262595D02*
X204218860Y-52143547D01*
X204218860Y-52143547D02*
X203504574Y-52084023D01*
X203504574Y-52084023D02*
X203028383Y-52084023D01*
X203028383Y-52084023D02*
X202314098Y-52143547D01*
X202314098Y-52143547D02*
X202076002Y-52203071D01*
X199933145Y-53334023D02*
X199933145Y-52084023D01*
X199933145Y-52679261D02*
X197076002Y-52679261D01*
X197076002Y-53334023D02*
X197076002Y-52084023D01*
X194933146Y-52976880D02*
X192552193Y-52976880D01*
X195409336Y-53334023D02*
X193742669Y-52084023D01*
X193742669Y-52084023D02*
X192076003Y-53334023D01*
X190409336Y-53334023D02*
X190409336Y-52084023D01*
X190409336Y-52084023D02*
X187552193Y-53334023D01*
X187552193Y-53334023D02*
X187552193Y-52084023D01*
X185171241Y-53334023D02*
X185171241Y-52084023D01*
X185171241Y-52084023D02*
X182314098Y-53334023D01*
X182314098Y-53334023D02*
X182314098Y-52084023D01*
X179933146Y-52679261D02*
X178266480Y-52679261D01*
X177552194Y-53334023D02*
X179933146Y-53334023D01*
X179933146Y-53334023D02*
X179933146Y-52084023D01*
X179933146Y-52084023D02*
X177552194Y-52084023D01*
X173028384Y-53334023D02*
X175409336Y-53334023D01*
X175409336Y-53334023D02*
X175409336Y-52084023D01*
X164695050Y-53334023D02*
X166361717Y-52738785D01*
X167552193Y-53334023D02*
X167552193Y-52084023D01*
X167552193Y-52084023D02*
X165647431Y-52084023D01*
X165647431Y-52084023D02*
X165171241Y-52143547D01*
X165171241Y-52143547D02*
X164933146Y-52203071D01*
X164933146Y-52203071D02*
X164695050Y-52322119D01*
X164695050Y-52322119D02*
X164695050Y-52500690D01*
X164695050Y-52500690D02*
X164933146Y-52619738D01*
X164933146Y-52619738D02*
X165171241Y-52679261D01*
X165171241Y-52679261D02*
X165647431Y-52738785D01*
X165647431Y-52738785D02*
X167552193Y-52738785D01*
X162552193Y-52679261D02*
X160885527Y-52679261D01*
X160171241Y-53334023D02*
X162552193Y-53334023D01*
X162552193Y-53334023D02*
X162552193Y-52084023D01*
X162552193Y-52084023D02*
X160171241Y-52084023D01*
X155647431Y-53334023D02*
X158028383Y-53334023D01*
X158028383Y-53334023D02*
X158028383Y-52084023D01*
X154218860Y-52976880D02*
X151837907Y-52976880D01*
X154695050Y-53334023D02*
X153028383Y-52084023D01*
X153028383Y-52084023D02*
X151361717Y-53334023D01*
X148742669Y-52738785D02*
X148742669Y-53334023D01*
X150409336Y-52084023D02*
X148742669Y-52738785D01*
X148742669Y-52738785D02*
X147076003Y-52084023D01*
D11*
X175960652Y-125884438D02*
X175960652Y-123884438D01*
X175960652Y-123884438D02*
X175484462Y-123884438D01*
X175484462Y-123884438D02*
X175198747Y-123979676D01*
X175198747Y-123979676D02*
X175008271Y-124170152D01*
X175008271Y-124170152D02*
X174913033Y-124360628D01*
X174913033Y-124360628D02*
X174817795Y-124741580D01*
X174817795Y-124741580D02*
X174817795Y-125027295D01*
X174817795Y-125027295D02*
X174913033Y-125408247D01*
X174913033Y-125408247D02*
X175008271Y-125598723D01*
X175008271Y-125598723D02*
X175198747Y-125789200D01*
X175198747Y-125789200D02*
X175484462Y-125884438D01*
X175484462Y-125884438D02*
X175960652Y-125884438D01*
X173960652Y-124836819D02*
X173293985Y-124836819D01*
X173008271Y-125884438D02*
X173960652Y-125884438D01*
X173960652Y-125884438D02*
X173960652Y-123884438D01*
X173960652Y-123884438D02*
X173008271Y-123884438D01*
X172246366Y-125789200D02*
X171960652Y-125884438D01*
X171960652Y-125884438D02*
X171484461Y-125884438D01*
X171484461Y-125884438D02*
X171293985Y-125789200D01*
X171293985Y-125789200D02*
X171198747Y-125693961D01*
X171198747Y-125693961D02*
X171103509Y-125503485D01*
X171103509Y-125503485D02*
X171103509Y-125313009D01*
X171103509Y-125313009D02*
X171198747Y-125122533D01*
X171198747Y-125122533D02*
X171293985Y-125027295D01*
X171293985Y-125027295D02*
X171484461Y-124932057D01*
X171484461Y-124932057D02*
X171865414Y-124836819D01*
X171865414Y-124836819D02*
X172055890Y-124741580D01*
X172055890Y-124741580D02*
X172151128Y-124646342D01*
X172151128Y-124646342D02*
X172246366Y-124455866D01*
X172246366Y-124455866D02*
X172246366Y-124265390D01*
X172246366Y-124265390D02*
X172151128Y-124074914D01*
X172151128Y-124074914D02*
X172055890Y-123979676D01*
X172055890Y-123979676D02*
X171865414Y-123884438D01*
X171865414Y-123884438D02*
X171389223Y-123884438D01*
X171389223Y-123884438D02*
X171103509Y-123979676D01*
X170246366Y-125884438D02*
X170246366Y-123884438D01*
X169293985Y-125884438D02*
X169293985Y-123884438D01*
X169293985Y-123884438D02*
X168151128Y-125884438D01*
X168151128Y-125884438D02*
X168151128Y-123884438D01*
X166151128Y-123979676D02*
X166341604Y-123884438D01*
X166341604Y-123884438D02*
X166627318Y-123884438D01*
X166627318Y-123884438D02*
X166913033Y-123979676D01*
X166913033Y-123979676D02*
X167103509Y-124170152D01*
X167103509Y-124170152D02*
X167198747Y-124360628D01*
X167198747Y-124360628D02*
X167293985Y-124741580D01*
X167293985Y-124741580D02*
X167293985Y-125027295D01*
X167293985Y-125027295D02*
X167198747Y-125408247D01*
X167198747Y-125408247D02*
X167103509Y-125598723D01*
X167103509Y-125598723D02*
X166913033Y-125789200D01*
X166913033Y-125789200D02*
X166627318Y-125884438D01*
X166627318Y-125884438D02*
X166436842Y-125884438D01*
X166436842Y-125884438D02*
X166151128Y-125789200D01*
X166151128Y-125789200D02*
X166055890Y-125693961D01*
X166055890Y-125693961D02*
X166055890Y-125027295D01*
X166055890Y-125027295D02*
X166436842Y-125027295D01*
X165198747Y-124836819D02*
X164532080Y-124836819D01*
X164246366Y-125884438D02*
X165198747Y-125884438D01*
X165198747Y-125884438D02*
X165198747Y-123884438D01*
X165198747Y-123884438D02*
X164246366Y-123884438D01*
X163389223Y-125884438D02*
X163389223Y-123884438D01*
X163389223Y-123884438D02*
X162913033Y-123884438D01*
X162913033Y-123884438D02*
X162627318Y-123979676D01*
X162627318Y-123979676D02*
X162436842Y-124170152D01*
X162436842Y-124170152D02*
X162341604Y-124360628D01*
X162341604Y-124360628D02*
X162246366Y-124741580D01*
X162246366Y-124741580D02*
X162246366Y-125027295D01*
X162246366Y-125027295D02*
X162341604Y-125408247D01*
X162341604Y-125408247D02*
X162436842Y-125598723D01*
X162436842Y-125598723D02*
X162627318Y-125789200D01*
X162627318Y-125789200D02*
X162913033Y-125884438D01*
X162913033Y-125884438D02*
X163389223Y-125884438D01*
X159198746Y-124836819D02*
X158913032Y-124932057D01*
X158913032Y-124932057D02*
X158817794Y-125027295D01*
X158817794Y-125027295D02*
X158722556Y-125217771D01*
X158722556Y-125217771D02*
X158722556Y-125503485D01*
X158722556Y-125503485D02*
X158817794Y-125693961D01*
X158817794Y-125693961D02*
X158913032Y-125789200D01*
X158913032Y-125789200D02*
X159103508Y-125884438D01*
X159103508Y-125884438D02*
X159865413Y-125884438D01*
X159865413Y-125884438D02*
X159865413Y-123884438D01*
X159865413Y-123884438D02*
X159198746Y-123884438D01*
X159198746Y-123884438D02*
X159008270Y-123979676D01*
X159008270Y-123979676D02*
X158913032Y-124074914D01*
X158913032Y-124074914D02*
X158817794Y-124265390D01*
X158817794Y-124265390D02*
X158817794Y-124455866D01*
X158817794Y-124455866D02*
X158913032Y-124646342D01*
X158913032Y-124646342D02*
X159008270Y-124741580D01*
X159008270Y-124741580D02*
X159198746Y-124836819D01*
X159198746Y-124836819D02*
X159865413Y-124836819D01*
X157484461Y-124932057D02*
X157484461Y-125884438D01*
X158151127Y-123884438D02*
X157484461Y-124932057D01*
X157484461Y-124932057D02*
X156817794Y-123884438D01*
D12*
%TO.C,G\u002A\u002A\u002A*%
G36*
X155172533Y-124369227D02*
G01*
X155227146Y-124402187D01*
X155264887Y-124454764D01*
X155278974Y-124522940D01*
X155269141Y-124565182D01*
X155239597Y-124617347D01*
X155198311Y-124661181D01*
X155194578Y-124663724D01*
X155158437Y-124676188D01*
X155110831Y-124681533D01*
X155056616Y-124672466D01*
X155005389Y-124640354D01*
X154970995Y-124591913D01*
X154955203Y-124534381D01*
X154959779Y-124474995D01*
X154986491Y-124420993D01*
X155037105Y-124379612D01*
X155039821Y-124378235D01*
X155107831Y-124359903D01*
X155172533Y-124369227D01*
G37*
G36*
X152343544Y-125733151D02*
G01*
X152396081Y-125751413D01*
X152465644Y-125792519D01*
X152516541Y-125851980D01*
X152540625Y-125921501D01*
X152537218Y-125995776D01*
X152505647Y-126069497D01*
X152445233Y-126137355D01*
X152407177Y-126163621D01*
X152364694Y-126176624D01*
X152304335Y-126180000D01*
X152268046Y-126179348D01*
X152225401Y-126172836D01*
X152191613Y-126154336D01*
X152151961Y-126117843D01*
X152129775Y-126093622D01*
X152096601Y-126048597D01*
X152078815Y-126011903D01*
X152073151Y-125974752D01*
X152083276Y-125898400D01*
X152119719Y-125829381D01*
X152178305Y-125774163D01*
X152254857Y-125739215D01*
X152301023Y-125729993D01*
X152343544Y-125733151D01*
G37*
G36*
X155217453Y-123108054D02*
G01*
X155221012Y-123141395D01*
X155224094Y-123202775D01*
X155226621Y-123289329D01*
X155228519Y-123398191D01*
X155229714Y-123526497D01*
X155230128Y-123671382D01*
X155230128Y-124240072D01*
X155187227Y-124273818D01*
X155186097Y-124274700D01*
X155148040Y-124297941D01*
X155116154Y-124307564D01*
X155115403Y-124307552D01*
X155083040Y-124297358D01*
X155045081Y-124273818D01*
X155002180Y-124240072D01*
X155002180Y-123783818D01*
X155002180Y-123327564D01*
X155095801Y-123230322D01*
X155109845Y-123215628D01*
X155151422Y-123170746D01*
X155181678Y-123135984D01*
X155194851Y-123117886D01*
X155196093Y-123115112D01*
X155215203Y-123102692D01*
X155217453Y-123108054D01*
G37*
G36*
X146701746Y-122243724D02*
G01*
X146702656Y-122290149D01*
X146704119Y-122381687D01*
X146705676Y-122496052D01*
X146707257Y-122627457D01*
X146708795Y-122770117D01*
X146710221Y-122918246D01*
X146711467Y-123066057D01*
X146712248Y-123200494D01*
X146712457Y-123324678D01*
X146712123Y-123434402D01*
X146711279Y-123526044D01*
X146709959Y-123595985D01*
X146708195Y-123640604D01*
X146706022Y-123656282D01*
X146701289Y-123654147D01*
X146675696Y-123636422D01*
X146634252Y-123604632D01*
X146583187Y-123563483D01*
X146470385Y-123470685D01*
X146470385Y-122808133D01*
X146470385Y-122145581D01*
X146508207Y-122136088D01*
X146529301Y-122127639D01*
X146573118Y-122102628D01*
X146621322Y-122069105D01*
X146696615Y-122011615D01*
X146701746Y-122243724D01*
G37*
G36*
X144326104Y-122417077D02*
G01*
X144716211Y-122806077D01*
X144705286Y-122864310D01*
X144704403Y-122868722D01*
X144689348Y-122914813D01*
X144669415Y-122947489D01*
X144656047Y-122959602D01*
X144639580Y-122968981D01*
X144620557Y-122971031D01*
X144596700Y-122964012D01*
X144565731Y-122946184D01*
X144525372Y-122915806D01*
X144473344Y-122871137D01*
X144407369Y-122810437D01*
X144325169Y-122731966D01*
X144224466Y-122633983D01*
X144102981Y-122514747D01*
X144066585Y-122478881D01*
X143967898Y-122380883D01*
X143878085Y-122290616D01*
X143799559Y-122210574D01*
X143734730Y-122143253D01*
X143686013Y-122091148D01*
X143655817Y-122056755D01*
X143646556Y-122042567D01*
X143650591Y-122039905D01*
X143680299Y-122033856D01*
X143731377Y-122029652D01*
X143795754Y-122028077D01*
X143935997Y-122028077D01*
X144326104Y-122417077D01*
G37*
G36*
X146122615Y-122095723D02*
G01*
X146167235Y-122116978D01*
X146211154Y-122135088D01*
X146236589Y-122142051D01*
X146237855Y-122142223D01*
X146243687Y-122149277D01*
X146248422Y-122168765D01*
X146252181Y-122203564D01*
X146255087Y-122256548D01*
X146257263Y-122330594D01*
X146258829Y-122428576D01*
X146259909Y-122553370D01*
X146260624Y-122707852D01*
X146260976Y-122815294D01*
X146261438Y-122971702D01*
X146261734Y-123099576D01*
X146261861Y-123201443D01*
X146261816Y-123279832D01*
X146261596Y-123337270D01*
X146261199Y-123376286D01*
X146260622Y-123399408D01*
X146259862Y-123409162D01*
X146259445Y-123409741D01*
X146248703Y-123404711D01*
X146221609Y-123384581D01*
X146175445Y-123347235D01*
X146107495Y-123290558D01*
X146030769Y-123226053D01*
X146030769Y-122637724D01*
X146030769Y-122049395D01*
X146122615Y-122095723D01*
G37*
G36*
X144890354Y-124253003D02*
G01*
X144915617Y-124254961D01*
X144975233Y-124260451D01*
X145018300Y-124265686D01*
X145036844Y-124269756D01*
X145036001Y-124271538D01*
X145018842Y-124291338D01*
X144981446Y-124331192D01*
X144925933Y-124388930D01*
X144854421Y-124462382D01*
X144769031Y-124549378D01*
X144671880Y-124647749D01*
X144565088Y-124755323D01*
X144450774Y-124869931D01*
X143857283Y-125463590D01*
X143735084Y-125463340D01*
X143727785Y-125463298D01*
X143665854Y-125460811D01*
X143616089Y-125455281D01*
X143588684Y-125447789D01*
X143586922Y-125445196D01*
X143590576Y-125433055D01*
X143605746Y-125410750D01*
X143633902Y-125376704D01*
X143676515Y-125329342D01*
X143735055Y-125267088D01*
X143810991Y-125188365D01*
X143905795Y-125091599D01*
X144020935Y-124975211D01*
X144157884Y-124837628D01*
X144751284Y-124242768D01*
X144890354Y-124253003D01*
G37*
G36*
X148722549Y-121558740D02*
G01*
X148842773Y-121559069D01*
X148942135Y-121559632D01*
X149017710Y-121560419D01*
X149066572Y-121561422D01*
X149085796Y-121562632D01*
X149087871Y-121563631D01*
X149096495Y-121584959D01*
X149090131Y-121631986D01*
X149088889Y-121637505D01*
X149076971Y-121692197D01*
X149067326Y-121739070D01*
X149058610Y-121783846D01*
X148123664Y-121783846D01*
X147986449Y-121783710D01*
X147822689Y-121783177D01*
X147671134Y-121782276D01*
X147534691Y-121781046D01*
X147416270Y-121779525D01*
X147318778Y-121777753D01*
X147245125Y-121775767D01*
X147198219Y-121773606D01*
X147180969Y-121771309D01*
X147177105Y-121755852D01*
X147172332Y-121715446D01*
X147168709Y-121661406D01*
X147164197Y-121564038D01*
X148115785Y-121559813D01*
X148265959Y-121559235D01*
X148431216Y-121558814D01*
X148584388Y-121558652D01*
X148722549Y-121558740D01*
G37*
G36*
X149171981Y-122038649D02*
G01*
X149243218Y-122114349D01*
X149233834Y-123768617D01*
X149224450Y-125422884D01*
X149115682Y-125524536D01*
X149090343Y-125547638D01*
X149044629Y-125586167D01*
X149010182Y-125610999D01*
X148992996Y-125617585D01*
X148991530Y-125612718D01*
X148989402Y-125586601D01*
X148987697Y-125537364D01*
X148986417Y-125464281D01*
X148985564Y-125366625D01*
X148985140Y-125243671D01*
X148985147Y-125094692D01*
X148985587Y-124918962D01*
X148986463Y-124715754D01*
X148987777Y-124484343D01*
X148989530Y-124224002D01*
X148991725Y-123934004D01*
X148994364Y-123613625D01*
X148997449Y-123262137D01*
X149000982Y-122878814D01*
X149007453Y-122190897D01*
X148070666Y-122190897D01*
X147133878Y-122190897D01*
X147144055Y-122140016D01*
X147144643Y-122136969D01*
X147151434Y-122083358D01*
X147154231Y-122026041D01*
X147154231Y-121962948D01*
X148127488Y-121962948D01*
X149100745Y-121962948D01*
X149171981Y-122038649D01*
G37*
G36*
X144810520Y-122960351D02*
G01*
X144847764Y-122985901D01*
X144905109Y-123034956D01*
X144982969Y-123107881D01*
X145081758Y-123205036D01*
X145105211Y-123228510D01*
X145182212Y-123306168D01*
X145239505Y-123365529D01*
X145279956Y-123410119D01*
X145306429Y-123443463D01*
X145321790Y-123469088D01*
X145328906Y-123490519D01*
X145330641Y-123511283D01*
X145327402Y-123547451D01*
X145305549Y-123599245D01*
X145265513Y-123627383D01*
X145245737Y-123629876D01*
X145206525Y-123625185D01*
X145191663Y-123616845D01*
X145155391Y-123588663D01*
X145104706Y-123544903D01*
X145043901Y-123489714D01*
X144977271Y-123427242D01*
X144909110Y-123361635D01*
X144843713Y-123297042D01*
X144785373Y-123237609D01*
X144738385Y-123187484D01*
X144707043Y-123150815D01*
X144695641Y-123131749D01*
X144697522Y-123119265D01*
X144709531Y-123080140D01*
X144728967Y-123031493D01*
X144745910Y-122997010D01*
X144770584Y-122965394D01*
X144797584Y-122956154D01*
X144810520Y-122960351D01*
G37*
G36*
X155151303Y-124722231D02*
G01*
X155196382Y-124757516D01*
X155208857Y-124775636D01*
X155218386Y-124798338D01*
X155224552Y-124830085D01*
X155228055Y-124876755D01*
X155229597Y-124944228D01*
X155229879Y-125038381D01*
X155229709Y-125073948D01*
X155228252Y-125155898D01*
X155225560Y-125224176D01*
X155221931Y-125272486D01*
X155217667Y-125294531D01*
X155206104Y-125305297D01*
X155171360Y-125328465D01*
X155124295Y-125354830D01*
X155090069Y-125371718D01*
X155047467Y-125390208D01*
X155022532Y-125397703D01*
X155018809Y-125396260D01*
X155012229Y-125381038D01*
X155007499Y-125346542D01*
X155004395Y-125289453D01*
X155002696Y-125206453D01*
X155002180Y-125094222D01*
X155002181Y-125081637D01*
X155002414Y-124977765D01*
X155003407Y-124901027D01*
X155005669Y-124846508D01*
X155009708Y-124809293D01*
X155016034Y-124784463D01*
X155025156Y-124767104D01*
X155037582Y-124752299D01*
X155049661Y-124740873D01*
X155099854Y-124716600D01*
X155151303Y-124722231D01*
G37*
G36*
X156190769Y-123953155D02*
G01*
X156190769Y-125630252D01*
X156139117Y-125689389D01*
X156126227Y-125703593D01*
X156080170Y-125748803D01*
X156037354Y-125784311D01*
X156029203Y-125789927D01*
X155993711Y-125809809D01*
X155970962Y-125815480D01*
X155969605Y-125811757D01*
X155966896Y-125779946D01*
X155964592Y-125715772D01*
X155962693Y-125619373D01*
X155961200Y-125490886D01*
X155960114Y-125330448D01*
X155959435Y-125138196D01*
X155959164Y-124914268D01*
X155959302Y-124658801D01*
X155959850Y-124371931D01*
X155960808Y-124053797D01*
X155960866Y-124037348D01*
X155961709Y-123801645D01*
X155962553Y-123575391D01*
X155963390Y-123360687D01*
X155964208Y-123159633D01*
X155964999Y-122974332D01*
X155965753Y-122806885D01*
X155966460Y-122659394D01*
X155967110Y-122533958D01*
X155967694Y-122432682D01*
X155968202Y-122357664D01*
X155968623Y-122311008D01*
X155968950Y-122294815D01*
X155968972Y-122294797D01*
X155985350Y-122292662D01*
X156025502Y-122288959D01*
X156080865Y-122284478D01*
X156190769Y-122276057D01*
X156190769Y-123953155D01*
G37*
G36*
X149739376Y-125932219D02*
G01*
X149726801Y-126014659D01*
X149691535Y-126094132D01*
X149638577Y-126161080D01*
X149572923Y-126205944D01*
X149550679Y-126213319D01*
X149494817Y-126223704D01*
X149433718Y-126227941D01*
X149415635Y-126227601D01*
X149319023Y-126209552D01*
X149240908Y-126166295D01*
X149184133Y-126100914D01*
X149151547Y-126016494D01*
X149147696Y-125946892D01*
X149314430Y-125946892D01*
X149329455Y-125995907D01*
X149371185Y-126039959D01*
X149394126Y-126053823D01*
X149440030Y-126063540D01*
X149492911Y-126046985D01*
X149525595Y-126024083D01*
X149553898Y-125978139D01*
X149558064Y-125926140D01*
X149538050Y-125877348D01*
X149493817Y-125841019D01*
X149444131Y-125826524D01*
X149390960Y-125832731D01*
X149349045Y-125859038D01*
X149322247Y-125899180D01*
X149314430Y-125946892D01*
X149147696Y-125946892D01*
X149145993Y-125916117D01*
X149149648Y-125884522D01*
X149173846Y-125802264D01*
X149220235Y-125740240D01*
X149292434Y-125692936D01*
X149310442Y-125684891D01*
X149401682Y-125662378D01*
X149492666Y-125666407D01*
X149577485Y-125694297D01*
X149650231Y-125743363D01*
X149704994Y-125810922D01*
X149735865Y-125894291D01*
X149738813Y-125926140D01*
X149739376Y-125932219D01*
G37*
G36*
X155924024Y-125932282D02*
G01*
X155923633Y-125970660D01*
X155916886Y-125995312D01*
X155907198Y-126036277D01*
X155899947Y-126059150D01*
X155863649Y-126118735D01*
X155808583Y-126173773D01*
X155743687Y-126214523D01*
X155693280Y-126232214D01*
X155604305Y-126240726D01*
X155519291Y-126223391D01*
X155443688Y-126183521D01*
X155382946Y-126124428D01*
X155342515Y-126049423D01*
X155328358Y-125964877D01*
X155506060Y-125964877D01*
X155534828Y-126018348D01*
X155554031Y-126037880D01*
X155605881Y-126064479D01*
X155659812Y-126059540D01*
X155711226Y-126022943D01*
X155714386Y-126019487D01*
X155745026Y-125973234D01*
X155745907Y-125929964D01*
X155717408Y-125880978D01*
X155683459Y-125850320D01*
X155631480Y-125838077D01*
X155581417Y-125844990D01*
X155532620Y-125872108D01*
X155506412Y-125914100D01*
X155506060Y-125964877D01*
X155328358Y-125964877D01*
X155327846Y-125961820D01*
X155337683Y-125878211D01*
X155375604Y-125792645D01*
X155442855Y-125720779D01*
X155466130Y-125704412D01*
X155544920Y-125671755D01*
X155631819Y-125662062D01*
X155718287Y-125674474D01*
X155795783Y-125708136D01*
X155855767Y-125762191D01*
X155860749Y-125769097D01*
X155888738Y-125819695D01*
X155911111Y-125878026D01*
X155923472Y-125929964D01*
X155924024Y-125932282D01*
G37*
G36*
X146693263Y-121811041D02*
G01*
X146644160Y-121899348D01*
X146569460Y-121971241D01*
X146471853Y-122023033D01*
X146401337Y-122038549D01*
X146309341Y-122038551D01*
X146216807Y-122021427D01*
X146137157Y-121988557D01*
X146093970Y-121958690D01*
X146028322Y-121887365D01*
X145986637Y-121803271D01*
X145968331Y-121711878D01*
X145968855Y-121701000D01*
X146183613Y-121701000D01*
X146207099Y-121753647D01*
X146262457Y-121800105D01*
X146279909Y-121810350D01*
X146325874Y-121829191D01*
X146366500Y-121826104D01*
X146416014Y-121801191D01*
X146454287Y-121770750D01*
X146481482Y-121719596D01*
X146478789Y-121656485D01*
X146476129Y-121646861D01*
X146444463Y-121588377D01*
X146396770Y-121551997D01*
X146340442Y-121538213D01*
X146282869Y-121547521D01*
X146231443Y-121580416D01*
X146193555Y-121637393D01*
X146191820Y-121641744D01*
X146183613Y-121701000D01*
X145968855Y-121701000D01*
X145972818Y-121618653D01*
X145999511Y-121529067D01*
X146047825Y-121448587D01*
X146117174Y-121382682D01*
X146206973Y-121336822D01*
X146317007Y-121314047D01*
X146421781Y-121320156D01*
X146516503Y-121352623D01*
X146597159Y-121408655D01*
X146659738Y-121485460D01*
X146700227Y-121580244D01*
X146714615Y-121690214D01*
X146714080Y-121710007D01*
X146712104Y-121719596D01*
X146693263Y-121811041D01*
G37*
G36*
X145481676Y-124335862D02*
G01*
X145500229Y-124336825D01*
X145562618Y-124340838D01*
X145610856Y-124345103D01*
X145635749Y-124348847D01*
X145635276Y-124351237D01*
X145618663Y-124372474D01*
X145581624Y-124414024D01*
X145525999Y-124473964D01*
X145453628Y-124550372D01*
X145366353Y-124641326D01*
X145266015Y-124744902D01*
X145154452Y-124859178D01*
X145033508Y-124982232D01*
X144905021Y-125112139D01*
X144154120Y-125869029D01*
X144078887Y-125875041D01*
X144017147Y-125879024D01*
X143931064Y-125882372D01*
X143843333Y-125883853D01*
X143762491Y-125883432D01*
X143697076Y-125881074D01*
X143655625Y-125876747D01*
X143653213Y-125876240D01*
X143618900Y-125862604D01*
X143604744Y-125844618D01*
X143604752Y-125844071D01*
X143612374Y-125814476D01*
X143630594Y-125769153D01*
X143653956Y-125719677D01*
X143677008Y-125677623D01*
X143694295Y-125654565D01*
X143704321Y-125651621D01*
X143742353Y-125648997D01*
X143800183Y-125649305D01*
X143869902Y-125652633D01*
X144029228Y-125663251D01*
X144130415Y-125558907D01*
X144159900Y-125528738D01*
X144210968Y-125476811D01*
X144279614Y-125407204D01*
X144363073Y-125322715D01*
X144458576Y-125226143D01*
X144563358Y-125120287D01*
X144674651Y-125007947D01*
X144789689Y-124891922D01*
X145347775Y-124329280D01*
X145481676Y-124335862D01*
G37*
G36*
X146052816Y-124749324D02*
G01*
X146081228Y-124768023D01*
X146121922Y-124800623D01*
X146167606Y-124840609D01*
X146210984Y-124881465D01*
X146244762Y-124916673D01*
X146261644Y-124939719D01*
X146262854Y-124944763D01*
X146266088Y-124978965D01*
X146268972Y-125038694D01*
X146271339Y-125118769D01*
X146273023Y-125214008D01*
X146273856Y-125319227D01*
X146275000Y-125671467D01*
X146338287Y-125726278D01*
X146342109Y-125729584D01*
X146472030Y-125836133D01*
X146616923Y-125943488D01*
X146662721Y-125976025D01*
X146697590Y-126000881D01*
X146713472Y-126012314D01*
X146714059Y-126013592D01*
X146712413Y-126036433D01*
X146704511Y-126081091D01*
X146691731Y-126139508D01*
X146688522Y-126152894D01*
X146674060Y-126208055D01*
X146661874Y-126246790D01*
X146654324Y-126261410D01*
X146648112Y-126258423D01*
X146620177Y-126240176D01*
X146575879Y-126209021D01*
X146521386Y-126169236D01*
X146504974Y-126157070D01*
X146427206Y-126099553D01*
X146342634Y-126037163D01*
X146266859Y-125981413D01*
X146236317Y-125958936D01*
X146174251Y-125912981D01*
X146120353Y-125872733D01*
X146083686Y-125844945D01*
X146030769Y-125804124D01*
X146030769Y-125275652D01*
X146030789Y-125244676D01*
X146031432Y-125102917D01*
X146032934Y-124981413D01*
X146035224Y-124882627D01*
X146038230Y-124809019D01*
X146041880Y-124763049D01*
X146046104Y-124747179D01*
X146052816Y-124749324D01*
G37*
G36*
X153962590Y-123945040D02*
G01*
X153961526Y-123976331D01*
X153938381Y-124081711D01*
X153888145Y-124177165D01*
X153814910Y-124257850D01*
X153722770Y-124318922D01*
X153615816Y-124355535D01*
X153509081Y-124363439D01*
X153398504Y-124342745D01*
X153297191Y-124294098D01*
X153210005Y-124219889D01*
X153141810Y-124122509D01*
X153133883Y-124105721D01*
X153111717Y-124024824D01*
X153104842Y-123931804D01*
X153105425Y-123925566D01*
X153357652Y-123925566D01*
X153367373Y-123987628D01*
X153399847Y-124044135D01*
X153455565Y-124087849D01*
X153501304Y-124106471D01*
X153552285Y-124108420D01*
X153610900Y-124086918D01*
X153618964Y-124082734D01*
X153672909Y-124039033D01*
X153701467Y-123985307D01*
X153707085Y-123927283D01*
X153692212Y-123870688D01*
X153659294Y-123821248D01*
X153610782Y-123784691D01*
X153549121Y-123766742D01*
X153476762Y-123773129D01*
X153460145Y-123778433D01*
X153404526Y-123813731D01*
X153370199Y-123865188D01*
X153357652Y-123925566D01*
X153105425Y-123925566D01*
X153113413Y-123840041D01*
X153137590Y-123762916D01*
X153147597Y-123743612D01*
X153214822Y-123649853D01*
X153299836Y-123578281D01*
X153397177Y-123533717D01*
X153428160Y-123525707D01*
X153547593Y-123513006D01*
X153658641Y-123528854D01*
X153757717Y-123570644D01*
X153841236Y-123635766D01*
X153905612Y-123721612D01*
X153947259Y-123825573D01*
X153960311Y-123927283D01*
X153962590Y-123945040D01*
G37*
G36*
X150115115Y-121722796D02*
G01*
X150111374Y-121791063D01*
X150103072Y-121842628D01*
X150077068Y-121904779D01*
X150020856Y-121982424D01*
X149945587Y-122052438D01*
X149858667Y-122108192D01*
X149767500Y-122143055D01*
X149647887Y-122158046D01*
X149532295Y-122144490D01*
X149427547Y-122104358D01*
X149337448Y-122040370D01*
X149265801Y-121955247D01*
X149216413Y-121851705D01*
X149193085Y-121732467D01*
X149190459Y-121674081D01*
X149459852Y-121674081D01*
X149462172Y-121743075D01*
X149487401Y-121806725D01*
X149534972Y-121855612D01*
X149590215Y-121881628D01*
X149659153Y-121889964D01*
X149724284Y-121875739D01*
X149780822Y-121843021D01*
X149823984Y-121795879D01*
X149848987Y-121738383D01*
X149851046Y-121674602D01*
X149825377Y-121608604D01*
X149796338Y-121571555D01*
X149734070Y-121528262D01*
X149662302Y-121512024D01*
X149587826Y-121523811D01*
X149517437Y-121564594D01*
X149481010Y-121609164D01*
X149459852Y-121674081D01*
X149190459Y-121674081D01*
X149190276Y-121670011D01*
X149194597Y-121622280D01*
X149209120Y-121575793D01*
X149236823Y-121515791D01*
X149257802Y-121476742D01*
X149332661Y-121377416D01*
X149424370Y-121305310D01*
X149531434Y-121261391D01*
X149652356Y-121246629D01*
X149741086Y-121252851D01*
X149837498Y-121279905D01*
X149932255Y-121332458D01*
X149970555Y-121361184D01*
X150045322Y-121443106D01*
X150092778Y-121542055D01*
X150113798Y-121659602D01*
X150114111Y-121674602D01*
X150115115Y-121722796D01*
G37*
G36*
X149542071Y-122263202D02*
G01*
X149585451Y-122265380D01*
X149643686Y-122268794D01*
X149764103Y-122276250D01*
X149752873Y-123255272D01*
X149752227Y-123312584D01*
X149750055Y-123519501D01*
X149748000Y-123736546D01*
X149746107Y-123957622D01*
X149744422Y-124176629D01*
X149742990Y-124387468D01*
X149741854Y-124584043D01*
X149741062Y-124760252D01*
X149740657Y-124910000D01*
X149740518Y-124979439D01*
X149740001Y-125120398D01*
X149739214Y-125249563D01*
X149738196Y-125363472D01*
X149736990Y-125458665D01*
X149735634Y-125531680D01*
X149734170Y-125579054D01*
X149732637Y-125597325D01*
X149722631Y-125597394D01*
X149693730Y-125581900D01*
X149653334Y-125553750D01*
X149608378Y-125518455D01*
X149565794Y-125481521D01*
X149532517Y-125448460D01*
X149515479Y-125424779D01*
X149514317Y-125406279D01*
X149513296Y-125358040D01*
X149512428Y-125282813D01*
X149511710Y-125183305D01*
X149511136Y-125062223D01*
X149510701Y-124922273D01*
X149510401Y-124766163D01*
X149510230Y-124596600D01*
X149510184Y-124416290D01*
X149510258Y-124227940D01*
X149510447Y-124034257D01*
X149510746Y-123837949D01*
X149511150Y-123641722D01*
X149511655Y-123448283D01*
X149512256Y-123260338D01*
X149512947Y-123080596D01*
X149513724Y-122911762D01*
X149514582Y-122756544D01*
X149515516Y-122617649D01*
X149516521Y-122497783D01*
X149517593Y-122399653D01*
X149518726Y-122325967D01*
X149519916Y-122279431D01*
X149521158Y-122262752D01*
X149521726Y-122262662D01*
X149542071Y-122263202D01*
G37*
G36*
X155199987Y-121995585D02*
G01*
X155256779Y-121997089D01*
X155296554Y-122000140D01*
X155311539Y-122004211D01*
X155311244Y-122005289D01*
X155298385Y-122024467D01*
X155266244Y-122066201D01*
X155214458Y-122130940D01*
X155142663Y-122219135D01*
X155050498Y-122331236D01*
X154937598Y-122467692D01*
X154889451Y-122526074D01*
X154825743Y-122603841D01*
X154750658Y-122695856D01*
X154667393Y-122798171D01*
X154579144Y-122906840D01*
X154489109Y-123017914D01*
X154400485Y-123127447D01*
X154316468Y-123231489D01*
X154240254Y-123326095D01*
X154175042Y-123407316D01*
X154124028Y-123471205D01*
X154090408Y-123513814D01*
X154074216Y-123534219D01*
X154034624Y-123578255D01*
X154003198Y-123600981D01*
X153973652Y-123607436D01*
X153964743Y-123607268D01*
X153941339Y-123602282D01*
X153925790Y-123585300D01*
X153914031Y-123549564D01*
X153901995Y-123488314D01*
X153897844Y-123454347D01*
X153904860Y-123418186D01*
X153932004Y-123382480D01*
X153936326Y-123377808D01*
X153969172Y-123340322D01*
X154012497Y-123288803D01*
X154058122Y-123232948D01*
X154066222Y-123222873D01*
X154103868Y-123176036D01*
X154157456Y-123109354D01*
X154223613Y-123027028D01*
X154298960Y-122933260D01*
X154380123Y-122832252D01*
X154463724Y-122728205D01*
X154481049Y-122706645D01*
X154568333Y-122598099D01*
X154655307Y-122490049D01*
X154737957Y-122387474D01*
X154812269Y-122295354D01*
X154874228Y-122218671D01*
X154919819Y-122162404D01*
X155055397Y-121995513D01*
X155183468Y-121995513D01*
X155199987Y-121995585D01*
G37*
G36*
X143270182Y-121710577D02*
G01*
X143270168Y-121719094D01*
X143268202Y-121787412D01*
X143260737Y-121838029D01*
X143244649Y-121884375D01*
X143216813Y-121939874D01*
X143204153Y-121962064D01*
X143127411Y-122059970D01*
X143031000Y-122134644D01*
X142919625Y-122182250D01*
X142847973Y-122197015D01*
X142728576Y-122198543D01*
X142616728Y-122172719D01*
X142515945Y-122122733D01*
X142429746Y-122051770D01*
X142361648Y-121963018D01*
X142315168Y-121859663D01*
X142293825Y-121744894D01*
X142296630Y-121697695D01*
X142567565Y-121697695D01*
X142576597Y-121770174D01*
X142614105Y-121840397D01*
X142649613Y-121875369D01*
X142687664Y-121898906D01*
X142744541Y-121915059D01*
X142827271Y-121916927D01*
X142897787Y-121891288D01*
X142952267Y-121839861D01*
X142986887Y-121764365D01*
X142988406Y-121758345D01*
X142990957Y-121683721D01*
X142966187Y-121615339D01*
X142918953Y-121559140D01*
X142854112Y-121521063D01*
X142776521Y-121507051D01*
X142756436Y-121507894D01*
X142681446Y-121528060D01*
X142622978Y-121570505D01*
X142584022Y-121629094D01*
X142567565Y-121697695D01*
X142296630Y-121697695D01*
X142301135Y-121621895D01*
X142309643Y-121583783D01*
X142354034Y-121474806D01*
X142422016Y-121383042D01*
X142509228Y-121310845D01*
X142611307Y-121260568D01*
X142723890Y-121234563D01*
X142842616Y-121235185D01*
X142963122Y-121264787D01*
X143058346Y-121312158D01*
X143149587Y-121389828D01*
X143222758Y-121493968D01*
X143247133Y-121542480D01*
X143261813Y-121587203D01*
X143268569Y-121639001D01*
X143269577Y-121683721D01*
X143270182Y-121710577D01*
G37*
G36*
X156491137Y-121793450D02*
G01*
X156455208Y-121904516D01*
X156390718Y-122007977D01*
X156342861Y-122059512D01*
X156273277Y-122110366D01*
X156182628Y-122152986D01*
X156181601Y-122153379D01*
X156139949Y-122163020D01*
X156079035Y-122170190D01*
X156011667Y-122173364D01*
X155968997Y-122173165D01*
X155906251Y-122167946D01*
X155851460Y-122153631D01*
X155788793Y-122126923D01*
X155744571Y-122103194D01*
X155654913Y-122030952D01*
X155590607Y-121938784D01*
X155552326Y-121827847D01*
X155541316Y-121705698D01*
X155816343Y-121705698D01*
X155819020Y-121732272D01*
X155838548Y-121791115D01*
X155870959Y-121844372D01*
X155909033Y-121878573D01*
X155967427Y-121900083D01*
X156043630Y-121903478D01*
X156113294Y-121881550D01*
X156170446Y-121837728D01*
X156209116Y-121775439D01*
X156223333Y-121698112D01*
X156223319Y-121694882D01*
X156218096Y-121651241D01*
X156199130Y-121613950D01*
X156160121Y-121570264D01*
X156152502Y-121562727D01*
X156111359Y-121527569D01*
X156074591Y-121511124D01*
X156029056Y-121507051D01*
X156014344Y-121507406D01*
X155932832Y-121524703D01*
X155870356Y-121565670D01*
X155830374Y-121627078D01*
X155816343Y-121705698D01*
X155541316Y-121705698D01*
X155540739Y-121699296D01*
X155550284Y-121599032D01*
X155581182Y-121505679D01*
X155637180Y-121418216D01*
X155641053Y-121413391D01*
X155727559Y-121332568D01*
X155835278Y-121276009D01*
X155963068Y-121244323D01*
X156023548Y-121238199D01*
X156119569Y-121242420D01*
X156206733Y-121268855D01*
X156296831Y-121320183D01*
X156363070Y-121374408D01*
X156434472Y-121465257D01*
X156480078Y-121568756D01*
X156499196Y-121679842D01*
X156497900Y-121698112D01*
X156491137Y-121793450D01*
G37*
G36*
X155691359Y-122505273D02*
G01*
X155693640Y-122534251D01*
X155695651Y-122593424D01*
X155697380Y-122681154D01*
X155698817Y-122795802D01*
X155699949Y-122935730D01*
X155700764Y-123099299D01*
X155701251Y-123284872D01*
X155701398Y-123490809D01*
X155701194Y-123715473D01*
X155700626Y-123957225D01*
X155700360Y-124045114D01*
X155699614Y-124285798D01*
X155698894Y-124496613D01*
X155698148Y-124679576D01*
X155697325Y-124836705D01*
X155696373Y-124970016D01*
X155695241Y-125081527D01*
X155693877Y-125173256D01*
X155692228Y-125247220D01*
X155690245Y-125305435D01*
X155687874Y-125349920D01*
X155685065Y-125382692D01*
X155681765Y-125405767D01*
X155677923Y-125421164D01*
X155673488Y-125430899D01*
X155668407Y-125436991D01*
X155662630Y-125441455D01*
X155644420Y-125453848D01*
X155601487Y-125482346D01*
X155543983Y-125520083D01*
X155479221Y-125562244D01*
X155393883Y-125621542D01*
X155315896Y-125687849D01*
X155254024Y-125757352D01*
X155178645Y-125855312D01*
X154972368Y-125850765D01*
X154766090Y-125846218D01*
X154761306Y-125728173D01*
X154756522Y-125610128D01*
X154892841Y-125610128D01*
X154936401Y-125609855D01*
X154980905Y-125607352D01*
X155019821Y-125600033D01*
X155058319Y-125585312D01*
X155101569Y-125560601D01*
X155154742Y-125523314D01*
X155223009Y-125470865D01*
X155311539Y-125400667D01*
X155449936Y-125290464D01*
X155459936Y-124640264D01*
X155461216Y-124553143D01*
X155463701Y-124362474D01*
X155466045Y-124155569D01*
X155468154Y-123942189D01*
X155469937Y-123732091D01*
X155471299Y-123535034D01*
X155472148Y-123360776D01*
X155474359Y-122731488D01*
X155574923Y-122619943D01*
X155597965Y-122594656D01*
X155640792Y-122549183D01*
X155673453Y-122516538D01*
X155690259Y-122502516D01*
X155691359Y-122505273D01*
G37*
G36*
X155566143Y-122067424D02*
G01*
X155576905Y-122082678D01*
X155601969Y-122113643D01*
X155617414Y-122126131D01*
X155636364Y-122134741D01*
X155667441Y-122156028D01*
X155705843Y-122185563D01*
X155618595Y-122295869D01*
X155599316Y-122320170D01*
X155567629Y-122359785D01*
X155531505Y-122404513D01*
X155488609Y-122457205D01*
X155436605Y-122520710D01*
X155373157Y-122597879D01*
X155295928Y-122691562D01*
X155202583Y-122804609D01*
X155090786Y-122939872D01*
X155082603Y-122949772D01*
X155016929Y-123029443D01*
X154937895Y-123125594D01*
X154851774Y-123230580D01*
X154764839Y-123336755D01*
X154683362Y-123436474D01*
X154673235Y-123448885D01*
X154575585Y-123568372D01*
X154495894Y-123665291D01*
X154431837Y-123742139D01*
X154381088Y-123801412D01*
X154341320Y-123845610D01*
X154310210Y-123877229D01*
X154285430Y-123898768D01*
X154264657Y-123912723D01*
X154245563Y-123921594D01*
X154225824Y-123927876D01*
X154218613Y-123929831D01*
X154165939Y-123941457D01*
X154122349Y-123947301D01*
X154118223Y-123947498D01*
X154097171Y-123946332D01*
X154087209Y-123935373D01*
X154085740Y-123907085D01*
X154090168Y-123853935D01*
X154092446Y-123832097D01*
X154098944Y-123793973D01*
X154111041Y-123760618D01*
X154132748Y-123724754D01*
X154168073Y-123679106D01*
X154221024Y-123616397D01*
X154261929Y-123568410D01*
X154315119Y-123505374D01*
X154360606Y-123450775D01*
X154391603Y-123412719D01*
X154393424Y-123410430D01*
X154420906Y-123376437D01*
X154464621Y-123322915D01*
X154520464Y-123254869D01*
X154584331Y-123177302D01*
X154652115Y-123095216D01*
X154777643Y-122943175D01*
X154912705Y-122778962D01*
X155036939Y-122627231D01*
X155148660Y-122490059D01*
X155246182Y-122369522D01*
X155327821Y-122267695D01*
X155391892Y-122186656D01*
X155436709Y-122128481D01*
X155526496Y-122009078D01*
X155566143Y-122067424D01*
G37*
G36*
X143689509Y-122392375D02*
G01*
X143692577Y-122395402D01*
X143807962Y-122509182D01*
X143938903Y-122638205D01*
X144077932Y-122775117D01*
X144217582Y-122912568D01*
X144350385Y-123043206D01*
X144468875Y-123159679D01*
X144540372Y-123230138D01*
X144630184Y-123319277D01*
X144710941Y-123400141D01*
X144779791Y-123469839D01*
X144833882Y-123525478D01*
X144870361Y-123564166D01*
X144886378Y-123583013D01*
X144887572Y-123584978D01*
X144897141Y-123601589D01*
X144903558Y-123617605D01*
X144905297Y-123634845D01*
X144900830Y-123655128D01*
X144888630Y-123680272D01*
X144867169Y-123712094D01*
X144834920Y-123752415D01*
X144790355Y-123803051D01*
X144731946Y-123865821D01*
X144658167Y-123942543D01*
X144567489Y-124035037D01*
X144458386Y-124145120D01*
X144329329Y-124274610D01*
X144178791Y-124425326D01*
X143450275Y-125154508D01*
X143374100Y-125068889D01*
X143297925Y-124983269D01*
X143382136Y-124894138D01*
X143408078Y-124867182D01*
X143455604Y-124818463D01*
X143520897Y-124751905D01*
X143601273Y-124670234D01*
X143694048Y-124576170D01*
X143796539Y-124472439D01*
X143906063Y-124361764D01*
X144019936Y-124246868D01*
X144135939Y-124129643D01*
X144251419Y-124012154D01*
X144346548Y-123914266D01*
X144422905Y-123834272D01*
X144482071Y-123770464D01*
X144525625Y-123721135D01*
X144555145Y-123684575D01*
X144572212Y-123659077D01*
X144578405Y-123642933D01*
X144578756Y-123633917D01*
X144574573Y-123614469D01*
X144561348Y-123590640D01*
X144536110Y-123558884D01*
X144495887Y-123515652D01*
X144437707Y-123457399D01*
X144358597Y-123380576D01*
X144342497Y-123365041D01*
X144271346Y-123296074D01*
X144188022Y-123214908D01*
X144095055Y-123124043D01*
X143994977Y-123025977D01*
X143890320Y-122923208D01*
X143783616Y-122818235D01*
X143677396Y-122713557D01*
X143574192Y-122611673D01*
X143476534Y-122515080D01*
X143386955Y-122426278D01*
X143307987Y-122347764D01*
X143242160Y-122282039D01*
X143192007Y-122231599D01*
X143160058Y-122198945D01*
X143148846Y-122186574D01*
X143148901Y-122186302D01*
X143160705Y-122171260D01*
X143189115Y-122139802D01*
X143228359Y-122098333D01*
X143307871Y-122015841D01*
X143689509Y-122392375D01*
G37*
G36*
X152041317Y-122080993D02*
G01*
X152075997Y-122123324D01*
X152131150Y-122193027D01*
X152180143Y-122257345D01*
X152190507Y-122271172D01*
X152231336Y-122324155D01*
X152284999Y-122392376D01*
X152345718Y-122468524D01*
X152407713Y-122545288D01*
X152424076Y-122565429D01*
X152490881Y-122648090D01*
X152558097Y-122731842D01*
X152618709Y-122807922D01*
X152665705Y-122867570D01*
X152711589Y-122926061D01*
X152773094Y-123003941D01*
X152839238Y-123087286D01*
X152901853Y-123165781D01*
X152947457Y-123222854D01*
X153017711Y-123311790D01*
X153070465Y-123381210D01*
X153107702Y-123434854D01*
X153131402Y-123476464D01*
X153143547Y-123509780D01*
X153146119Y-123538545D01*
X153141099Y-123566499D01*
X153130470Y-123597383D01*
X153108973Y-123632136D01*
X153072756Y-123665921D01*
X153058555Y-123674960D01*
X153035237Y-123683971D01*
X153013522Y-123675335D01*
X152981037Y-123646420D01*
X152969180Y-123633952D01*
X152933867Y-123593106D01*
X152880047Y-123528290D01*
X152808613Y-123440620D01*
X152720460Y-123331212D01*
X152616483Y-123201184D01*
X152497575Y-123051650D01*
X152364632Y-122883727D01*
X152218547Y-122698532D01*
X152060215Y-122497181D01*
X151861776Y-122244466D01*
X151775279Y-122234725D01*
X151763069Y-122233588D01*
X151706590Y-122230790D01*
X151628936Y-122229215D01*
X151538719Y-122228982D01*
X151444551Y-122230209D01*
X151374351Y-122231492D01*
X151268514Y-122232995D01*
X151143938Y-122234434D01*
X151008068Y-122235730D01*
X150868345Y-122236807D01*
X150732212Y-122237588D01*
X150264103Y-122239743D01*
X150264103Y-123923916D01*
X150264103Y-125608089D01*
X150157343Y-125698660D01*
X150137947Y-125714903D01*
X150090330Y-125752899D01*
X150053867Y-125779323D01*
X150035227Y-125789231D01*
X150034642Y-125788358D01*
X150032229Y-125764857D01*
X150030003Y-125710098D01*
X150027973Y-125625140D01*
X150026148Y-125511043D01*
X150024537Y-125368866D01*
X150023149Y-125199670D01*
X150021993Y-125004514D01*
X150021079Y-124784458D01*
X150020414Y-124540561D01*
X150020009Y-124273883D01*
X150019872Y-123985484D01*
X150019872Y-122181737D01*
X150113966Y-122088625D01*
X150208060Y-121995513D01*
X151088911Y-121995513D01*
X151969762Y-121995513D01*
X152041317Y-122080993D01*
G37*
G36*
X143498130Y-125685523D02*
G01*
X143494890Y-125744536D01*
X143486798Y-125790651D01*
X143471844Y-125834552D01*
X143448017Y-125886923D01*
X143420880Y-125938691D01*
X143339387Y-126055990D01*
X143242683Y-126150656D01*
X143134490Y-126219463D01*
X143018530Y-126259185D01*
X142982417Y-126266521D01*
X142930470Y-126277062D01*
X142896474Y-126283948D01*
X142868822Y-126286895D01*
X142804560Y-126285224D01*
X142728750Y-126276591D01*
X142653691Y-126262578D01*
X142591687Y-126244765D01*
X142524041Y-126213795D01*
X142415690Y-126139278D01*
X142320693Y-126042795D01*
X142245006Y-125930868D01*
X142194590Y-125810020D01*
X142191423Y-125798537D01*
X142174465Y-125691290D01*
X142174503Y-125621421D01*
X142530128Y-125621421D01*
X142531971Y-125654078D01*
X142555060Y-125742426D01*
X142600564Y-125820857D01*
X142663377Y-125882083D01*
X142738397Y-125918817D01*
X142783056Y-125929563D01*
X142828755Y-125932818D01*
X142880192Y-125925105D01*
X142903745Y-125920115D01*
X142949093Y-125910477D01*
X142992190Y-125891547D01*
X143044984Y-125848864D01*
X143092409Y-125792534D01*
X143125528Y-125731617D01*
X143128930Y-125722275D01*
X143145471Y-125630378D01*
X143132990Y-125543218D01*
X143094703Y-125465526D01*
X143033824Y-125402035D01*
X142953569Y-125357477D01*
X142857153Y-125336586D01*
X142828930Y-125335595D01*
X142732148Y-125349598D01*
X142649832Y-125388705D01*
X142586027Y-125449394D01*
X142544777Y-125528140D01*
X142530128Y-125621421D01*
X142174503Y-125621421D01*
X142174528Y-125574946D01*
X142190809Y-125462238D01*
X142222508Y-125365897D01*
X142258137Y-125300924D01*
X142338648Y-125195617D01*
X142436672Y-125104428D01*
X142543229Y-125036578D01*
X142551262Y-125032635D01*
X142600788Y-125009751D01*
X142642653Y-124995290D01*
X142686910Y-124987333D01*
X142743614Y-124983966D01*
X142822820Y-124983269D01*
X142839998Y-124983305D01*
X142922984Y-124985303D01*
X142986340Y-124991481D01*
X143041018Y-125003408D01*
X143097970Y-125022652D01*
X143175943Y-125059838D01*
X143282985Y-125136971D01*
X143375331Y-125235071D01*
X143445666Y-125347307D01*
X143467550Y-125394245D01*
X143484129Y-125439071D01*
X143493426Y-125484180D01*
X143497540Y-125540327D01*
X143498573Y-125618269D01*
X143498493Y-125630378D01*
X143498130Y-125685523D01*
G37*
G36*
X143487614Y-121549788D02*
G01*
X143510181Y-121551317D01*
X143578438Y-121555141D01*
X143635155Y-121557194D01*
X143669872Y-121557059D01*
X143714491Y-121555264D01*
X143782057Y-121554699D01*
X143860227Y-121555514D01*
X143941807Y-121557484D01*
X144019603Y-121560382D01*
X144086419Y-121563983D01*
X144135061Y-121568062D01*
X144158333Y-121572391D01*
X144167462Y-121580430D01*
X144198566Y-121610241D01*
X144250101Y-121660627D01*
X144320637Y-121730166D01*
X144408748Y-121817434D01*
X144513004Y-121921010D01*
X144631976Y-122039470D01*
X144764237Y-122171393D01*
X144908358Y-122315354D01*
X145062911Y-122469933D01*
X145226466Y-122633706D01*
X145397596Y-122805250D01*
X145574872Y-122983143D01*
X146966987Y-124380833D01*
X146971207Y-123554519D01*
X146971465Y-123506931D01*
X146972971Y-123302327D01*
X146974963Y-123128287D01*
X146977431Y-122985145D01*
X146980369Y-122873233D01*
X146983766Y-122792884D01*
X146987616Y-122744430D01*
X146991909Y-122728205D01*
X146995478Y-122729105D01*
X147021333Y-122743791D01*
X147063176Y-122772738D01*
X147113875Y-122811101D01*
X147219359Y-122893998D01*
X147219359Y-123926422D01*
X147219347Y-123972608D01*
X147219070Y-124150397D01*
X147218450Y-124317521D01*
X147217520Y-124471243D01*
X147216313Y-124608827D01*
X147214859Y-124727534D01*
X147213192Y-124824627D01*
X147211343Y-124897368D01*
X147209345Y-124943020D01*
X147207230Y-124958846D01*
X147201856Y-124954357D01*
X147175436Y-124929197D01*
X147128231Y-124883066D01*
X147061563Y-124817283D01*
X146976753Y-124733167D01*
X146875122Y-124632040D01*
X146757993Y-124515218D01*
X146626685Y-124384023D01*
X146482520Y-124239774D01*
X146326820Y-124083790D01*
X146160906Y-123917390D01*
X145986099Y-123741895D01*
X145803721Y-123558624D01*
X145615093Y-123368895D01*
X144035085Y-121778945D01*
X143732044Y-121790702D01*
X143643371Y-121793884D01*
X143555090Y-121796070D01*
X143492151Y-121795993D01*
X143450527Y-121793528D01*
X143426189Y-121788552D01*
X143415111Y-121780941D01*
X143404588Y-121761410D01*
X143385914Y-121717747D01*
X143366632Y-121665369D01*
X143350023Y-121613973D01*
X143339366Y-121573251D01*
X143337943Y-121552899D01*
X143342208Y-121550542D01*
X143372065Y-121547000D01*
X143423173Y-121546694D01*
X143487614Y-121549788D01*
G37*
G36*
X145499078Y-123598740D02*
G01*
X145552762Y-123632692D01*
X145575883Y-123659954D01*
X145588752Y-123695291D01*
X145588539Y-123746666D01*
X145586511Y-123775595D01*
X145588327Y-123805661D01*
X145601394Y-123817216D01*
X145630884Y-123819102D01*
X145633813Y-123819213D01*
X145649533Y-123823150D01*
X145670276Y-123834200D01*
X145698277Y-123854367D01*
X145735772Y-123885656D01*
X145784996Y-123930070D01*
X145848184Y-123989615D01*
X145927572Y-124066294D01*
X146025394Y-124162111D01*
X146143886Y-124279070D01*
X146168484Y-124303420D01*
X146272337Y-124406514D01*
X146370775Y-124504675D01*
X146460833Y-124594917D01*
X146539548Y-124674255D01*
X146603954Y-124739702D01*
X146651087Y-124788272D01*
X146677981Y-124816980D01*
X146747180Y-124894922D01*
X146747180Y-125234734D01*
X146747180Y-125574546D01*
X146831366Y-125650237D01*
X146864638Y-125680434D01*
X146903710Y-125715091D01*
X146932338Y-125735651D01*
X146952136Y-125739477D01*
X146964715Y-125723932D01*
X146971691Y-125686380D01*
X146974676Y-125624184D01*
X146975284Y-125534709D01*
X146975128Y-125415316D01*
X146975191Y-125380728D01*
X146976089Y-125282601D01*
X146977922Y-125198079D01*
X146980521Y-125131902D01*
X146983717Y-125088810D01*
X146987340Y-125073542D01*
X146992109Y-125075618D01*
X147017968Y-125093470D01*
X147059382Y-125125605D01*
X147109988Y-125167164D01*
X147220424Y-125260064D01*
X147228200Y-125762022D01*
X147228990Y-125816783D01*
X147230314Y-125937803D01*
X147230928Y-126046693D01*
X147230845Y-126139367D01*
X147230078Y-126211739D01*
X147228640Y-126259724D01*
X147226545Y-126279237D01*
X147221935Y-126281687D01*
X147198149Y-126273635D01*
X147163933Y-126249459D01*
X147154599Y-126241557D01*
X147054712Y-126157195D01*
X146954868Y-126073213D01*
X146858613Y-125992563D01*
X146769489Y-125918195D01*
X146691043Y-125853061D01*
X146626817Y-125800113D01*
X146580357Y-125762302D01*
X146555207Y-125742579D01*
X146554530Y-125742085D01*
X146534267Y-125725036D01*
X146520810Y-125704637D01*
X146512082Y-125673592D01*
X146506007Y-125624607D01*
X146500510Y-125550387D01*
X146496549Y-125477006D01*
X146492710Y-125377366D01*
X146489817Y-125270662D01*
X146488298Y-125170234D01*
X146486667Y-124950148D01*
X146004846Y-124470543D01*
X145991947Y-124457703D01*
X145876188Y-124342398D01*
X145781294Y-124247522D01*
X145705241Y-124170774D01*
X145646005Y-124109855D01*
X145601561Y-124062465D01*
X145569887Y-124026304D01*
X145548958Y-123999072D01*
X145536751Y-123978468D01*
X145531242Y-123962194D01*
X145530406Y-123947948D01*
X145532221Y-123933432D01*
X145541417Y-123875926D01*
X145466784Y-123881861D01*
X145425112Y-123881977D01*
X145355378Y-123864446D01*
X145304489Y-123826664D01*
X145276624Y-123772490D01*
X145275966Y-123705781D01*
X145284704Y-123678591D01*
X145321217Y-123630775D01*
X145374793Y-123600029D01*
X145436917Y-123588601D01*
X145499078Y-123598740D01*
G37*
G36*
X152212198Y-121608814D02*
G01*
X152218888Y-121616408D01*
X152246955Y-121650321D01*
X152291232Y-121705169D01*
X152349127Y-121777660D01*
X152418052Y-121864501D01*
X152495416Y-121962403D01*
X152578629Y-122068073D01*
X152665102Y-122178219D01*
X152752245Y-122289550D01*
X152837467Y-122398774D01*
X152918180Y-122502600D01*
X152991793Y-122597736D01*
X153055716Y-122680891D01*
X153067755Y-122696514D01*
X153113932Y-122755451D01*
X153172324Y-122828977D01*
X153236669Y-122909236D01*
X153300705Y-122988367D01*
X153333297Y-123028429D01*
X153387526Y-123095114D01*
X153433340Y-123151483D01*
X153466690Y-123192555D01*
X153483531Y-123213351D01*
X153495193Y-123225225D01*
X153511172Y-123224357D01*
X153534652Y-123198951D01*
X153538799Y-123193718D01*
X153564966Y-123160714D01*
X153605357Y-123109780D01*
X153655277Y-123046836D01*
X153710032Y-122977803D01*
X153715045Y-122971479D01*
X153782963Y-122885415D01*
X153860731Y-122786293D01*
X153939138Y-122685879D01*
X154008974Y-122595938D01*
X154026498Y-122573339D01*
X154090121Y-122492088D01*
X154153488Y-122412234D01*
X154210094Y-122341936D01*
X154253433Y-122289352D01*
X154258497Y-122283319D01*
X154305239Y-122226502D01*
X154363893Y-122153782D01*
X154427470Y-122073879D01*
X154488982Y-121995513D01*
X154495191Y-121987543D01*
X154558469Y-121906954D01*
X154624064Y-121824359D01*
X154684580Y-121749026D01*
X154732622Y-121690224D01*
X154830492Y-121572179D01*
X155146027Y-121572179D01*
X155157522Y-121572180D01*
X155263385Y-121572401D01*
X155341129Y-121573271D01*
X155394820Y-121575170D01*
X155428522Y-121578480D01*
X155446299Y-121583579D01*
X155452216Y-121590850D01*
X155450337Y-121600673D01*
X155445895Y-121615818D01*
X155437339Y-121660098D01*
X155430035Y-121714647D01*
X155420957Y-121800128D01*
X155354036Y-121802354D01*
X155330248Y-121802837D01*
X155270726Y-121803091D01*
X155195786Y-121802679D01*
X155116154Y-121801634D01*
X154945192Y-121798690D01*
X154729021Y-122072133D01*
X154652433Y-122169110D01*
X154537242Y-122315261D01*
X154417917Y-122466958D01*
X154299334Y-122617992D01*
X154186367Y-122762151D01*
X154083891Y-122893224D01*
X153996783Y-123005000D01*
X153903125Y-123124703D01*
X153812455Y-123238651D01*
X153739382Y-123328074D01*
X153684290Y-123392514D01*
X153647560Y-123431514D01*
X153629575Y-123444615D01*
X153628319Y-123444573D01*
X153600415Y-123438598D01*
X153559734Y-123425579D01*
X153534663Y-123417964D01*
X153493987Y-123416511D01*
X153444603Y-123432138D01*
X153430433Y-123437864D01*
X153391728Y-123452630D01*
X153370626Y-123459315D01*
X153365273Y-123456440D01*
X153340300Y-123431123D01*
X153296519Y-123379982D01*
X153234188Y-123303338D01*
X153153566Y-123201510D01*
X153054913Y-123074821D01*
X152938485Y-122923590D01*
X152903545Y-122878090D01*
X152826987Y-122778870D01*
X152747465Y-122676329D01*
X152672544Y-122580210D01*
X152609788Y-122500256D01*
X152560978Y-122438188D01*
X152490121Y-122347645D01*
X152411431Y-122246733D01*
X152331439Y-122143828D01*
X152256675Y-122047307D01*
X152051318Y-121781602D01*
X151165181Y-121785310D01*
X151121669Y-121785477D01*
X150943501Y-121785833D01*
X150780774Y-121785624D01*
X150635934Y-121784882D01*
X150511427Y-121783636D01*
X150409699Y-121781917D01*
X150333195Y-121779755D01*
X150284363Y-121777179D01*
X150265646Y-121774220D01*
X150260777Y-121766285D01*
X150247544Y-121731936D01*
X150234046Y-121684179D01*
X150228538Y-121662036D01*
X150215534Y-121613814D01*
X150205667Y-121582417D01*
X150205151Y-121580655D01*
X150206599Y-121575406D01*
X150214684Y-121570950D01*
X150231763Y-121567223D01*
X150260193Y-121564161D01*
X150302331Y-121561700D01*
X150360533Y-121559775D01*
X150437157Y-121558323D01*
X150534560Y-121557278D01*
X150655100Y-121556578D01*
X150801132Y-121556157D01*
X150975014Y-121555951D01*
X151179103Y-121555897D01*
X152162715Y-121555897D01*
X152212198Y-121608814D01*
G37*
G36*
X151772906Y-122503856D02*
G01*
X151777197Y-122508325D01*
X151822753Y-122558183D01*
X151876381Y-122619963D01*
X151927366Y-122681350D01*
X151972471Y-122736179D01*
X152031690Y-122806681D01*
X152097087Y-122883464D01*
X152160962Y-122957425D01*
X152267670Y-123080203D01*
X152417954Y-123254102D01*
X152554118Y-123412895D01*
X152675211Y-123555438D01*
X152780284Y-123680589D01*
X152868385Y-123787201D01*
X152938563Y-123874133D01*
X152989867Y-123940240D01*
X153021347Y-123984377D01*
X153032051Y-124005402D01*
X153030750Y-124006683D01*
X153007861Y-124010660D01*
X152962323Y-124013441D01*
X152901842Y-124014487D01*
X152854234Y-124014210D01*
X152804683Y-124011418D01*
X152770892Y-124003178D01*
X152742845Y-123986565D01*
X152710528Y-123958659D01*
X152707246Y-123955618D01*
X152665510Y-123912626D01*
X152615744Y-123855812D01*
X152568013Y-123796620D01*
X152556397Y-123781622D01*
X152517616Y-123733799D01*
X152486462Y-123698674D01*
X152468814Y-123682982D01*
X152466860Y-123683649D01*
X152460643Y-123706328D01*
X152454809Y-123758794D01*
X152449424Y-123838916D01*
X152444550Y-123944567D01*
X152440252Y-124073616D01*
X152436592Y-124223934D01*
X152433635Y-124393390D01*
X152431445Y-124579857D01*
X152430083Y-124781203D01*
X152429615Y-124995299D01*
X152429615Y-125531223D01*
X152382022Y-125578816D01*
X152362604Y-125597080D01*
X152322589Y-125621825D01*
X152285562Y-125619151D01*
X152242386Y-125589775D01*
X152199879Y-125553141D01*
X152200623Y-125048397D01*
X152200683Y-125018757D01*
X152201374Y-124864288D01*
X152202675Y-124688775D01*
X152204486Y-124501685D01*
X152206709Y-124312487D01*
X152209244Y-124130649D01*
X152211991Y-123965641D01*
X152222615Y-123387628D01*
X152136309Y-123285865D01*
X152123856Y-123271441D01*
X152082259Y-123226930D01*
X152048223Y-123195812D01*
X152028143Y-123184102D01*
X152019374Y-123190395D01*
X152013036Y-123212578D01*
X152008970Y-123254818D01*
X152006782Y-123321278D01*
X152006074Y-123416122D01*
X152006038Y-123438367D01*
X152005680Y-123527773D01*
X152004985Y-123637354D01*
X152003994Y-123763813D01*
X152002747Y-123903854D01*
X152001284Y-124054182D01*
X151999644Y-124211500D01*
X151997867Y-124372511D01*
X151995993Y-124533921D01*
X151994063Y-124692432D01*
X151992115Y-124844750D01*
X151990191Y-124987577D01*
X151988328Y-125117618D01*
X151986568Y-125231576D01*
X151984951Y-125326156D01*
X151983516Y-125398062D01*
X151982302Y-125443996D01*
X151981351Y-125460665D01*
X151979706Y-125460716D01*
X151958671Y-125450709D01*
X151919133Y-125427687D01*
X151867864Y-125395537D01*
X151758874Y-125325192D01*
X151769602Y-124169345D01*
X151771754Y-123946354D01*
X151773859Y-123749418D01*
X151775940Y-123580827D01*
X151778057Y-123438451D01*
X151780271Y-123320161D01*
X151782645Y-123223829D01*
X151785238Y-123147326D01*
X151788113Y-123088522D01*
X151791332Y-123045289D01*
X151794954Y-123015497D01*
X151799043Y-122997017D01*
X151803658Y-122987722D01*
X151803760Y-122987609D01*
X151811929Y-122973509D01*
X151810050Y-122955053D01*
X151795429Y-122927073D01*
X151765370Y-122884399D01*
X151717179Y-122821861D01*
X151679336Y-122775431D01*
X151635773Y-122726683D01*
X151601204Y-122693260D01*
X151580844Y-122680568D01*
X151574857Y-122682068D01*
X151568665Y-122689384D01*
X151563224Y-122704507D01*
X151558477Y-122729339D01*
X151554367Y-122765786D01*
X151550836Y-122815753D01*
X151547829Y-122881143D01*
X151545288Y-122963862D01*
X151543156Y-123065813D01*
X151541376Y-123188902D01*
X151539891Y-123335032D01*
X151538645Y-123506108D01*
X151537580Y-123704035D01*
X151536639Y-123930718D01*
X151535766Y-124188059D01*
X151532331Y-125281568D01*
X151569852Y-125316823D01*
X151580597Y-125325933D01*
X151618801Y-125354963D01*
X151675422Y-125395827D01*
X151744761Y-125444443D01*
X151821116Y-125496731D01*
X151864793Y-125526699D01*
X151933551Y-125575682D01*
X151989767Y-125618018D01*
X152028546Y-125649968D01*
X152044994Y-125667793D01*
X152052776Y-125696003D01*
X152050289Y-125756364D01*
X152022564Y-125805513D01*
X151991502Y-125826770D01*
X151949817Y-125838077D01*
X151948002Y-125837967D01*
X151917356Y-125826832D01*
X151864484Y-125799058D01*
X151793071Y-125756952D01*
X151706801Y-125702821D01*
X151609360Y-125638969D01*
X151504433Y-125567703D01*
X151395705Y-125491329D01*
X151298013Y-125421534D01*
X151294112Y-125161696D01*
X151293682Y-125112864D01*
X151293498Y-125028345D01*
X151293640Y-124917328D01*
X151294090Y-124783076D01*
X151294830Y-124628857D01*
X151295842Y-124457937D01*
X151297108Y-124273581D01*
X151298610Y-124079056D01*
X151300331Y-123877629D01*
X151302253Y-123672564D01*
X151314295Y-122443269D01*
X151509899Y-122438728D01*
X151705502Y-122434188D01*
X151772906Y-122503856D01*
G37*
D13*
%TO.C,REF\u002A\u002A*%
X207605406Y-126424949D02*
X207631127Y-126440647D01*
X207657778Y-126462227D01*
X207657778Y-127109684D01*
X207631127Y-127131264D01*
X207599767Y-127148739D01*
X207563966Y-127149575D01*
X207532528Y-127129082D01*
X207528652Y-127124416D01*
X207523186Y-127114949D01*
X207518979Y-127101267D01*
X207515867Y-127080748D01*
X207513687Y-127050768D01*
X207512276Y-127008704D01*
X207511471Y-126951932D01*
X207511107Y-126877830D01*
X207511022Y-126783773D01*
X207511022Y-126462227D01*
X207537673Y-126440647D01*
X207561386Y-126425877D01*
X207584400Y-126419067D01*
X207605406Y-126424949D01*
G36*
X207605406Y-126424949D02*
G01*
X207631127Y-126440647D01*
X207657778Y-126462227D01*
X207657778Y-127109684D01*
X207631127Y-127131264D01*
X207599767Y-127148739D01*
X207563966Y-127149575D01*
X207532528Y-127129082D01*
X207528652Y-127124416D01*
X207523186Y-127114949D01*
X207518979Y-127101267D01*
X207515867Y-127080748D01*
X207513687Y-127050768D01*
X207512276Y-127008704D01*
X207511471Y-126951932D01*
X207511107Y-126877830D01*
X207511022Y-126783773D01*
X207511022Y-126462227D01*
X207537673Y-126440647D01*
X207561386Y-126425877D01*
X207584400Y-126419067D01*
X207605406Y-126424949D01*
G37*
X214736137Y-126423463D02*
X214770291Y-126446776D01*
X214798000Y-126474485D01*
X214798000Y-126787537D01*
X214797959Y-126871567D01*
X214797701Y-126945789D01*
X214797030Y-127002541D01*
X214795752Y-127044512D01*
X214793673Y-127074389D01*
X214790599Y-127094861D01*
X214786334Y-127108614D01*
X214780684Y-127118337D01*
X214773455Y-127126717D01*
X214741991Y-127148181D01*
X214706826Y-127149947D01*
X214673822Y-127130267D01*
X214668516Y-127124398D01*
X214663066Y-127115314D01*
X214658900Y-127101973D01*
X214655846Y-127081757D01*
X214653732Y-127052049D01*
X214652386Y-127010232D01*
X214651638Y-126953689D01*
X214651314Y-126879802D01*
X214651245Y-126785956D01*
X214651284Y-126710294D01*
X214651539Y-126632385D01*
X214652183Y-126572375D01*
X214653387Y-126527648D01*
X214655324Y-126495585D01*
X214658164Y-126473571D01*
X214662079Y-126458987D01*
X214667242Y-126449218D01*
X214673822Y-126441645D01*
X214703006Y-126422623D01*
X214736137Y-126423463D01*
G36*
X214736137Y-126423463D02*
G01*
X214770291Y-126446776D01*
X214798000Y-126474485D01*
X214798000Y-126787537D01*
X214797959Y-126871567D01*
X214797701Y-126945789D01*
X214797030Y-127002541D01*
X214795752Y-127044512D01*
X214793673Y-127074389D01*
X214790599Y-127094861D01*
X214786334Y-127108614D01*
X214780684Y-127118337D01*
X214773455Y-127126717D01*
X214741991Y-127148181D01*
X214706826Y-127149947D01*
X214673822Y-127130267D01*
X214668516Y-127124398D01*
X214663066Y-127115314D01*
X214658900Y-127101973D01*
X214655846Y-127081757D01*
X214653732Y-127052049D01*
X214652386Y-127010232D01*
X214651638Y-126953689D01*
X214651314Y-126879802D01*
X214651245Y-126785956D01*
X214651284Y-126710294D01*
X214651539Y-126632385D01*
X214652183Y-126572375D01*
X214653387Y-126527648D01*
X214655324Y-126495585D01*
X214658164Y-126473571D01*
X214662079Y-126458987D01*
X214667242Y-126449218D01*
X214673822Y-126441645D01*
X214703006Y-126422623D01*
X214736137Y-126423463D01*
G37*
X214204562Y-121182850D02*
X214287313Y-121210053D01*
X214362406Y-121255484D01*
X214434298Y-121321302D01*
X214472846Y-121365567D01*
X214512256Y-121423961D01*
X214537446Y-121484586D01*
X214550861Y-121553865D01*
X214554948Y-121638222D01*
X214554669Y-121684307D01*
X214552460Y-121725450D01*
X214546894Y-121757582D01*
X214536586Y-121788122D01*
X214520148Y-121824489D01*
X214506200Y-121851728D01*
X214447665Y-121937429D01*
X214375619Y-122006617D01*
X214291947Y-122057741D01*
X214198531Y-122089250D01*
X214165434Y-122096225D01*
X214124960Y-122103094D01*
X214091999Y-122104919D01*
X214057698Y-122101947D01*
X214013200Y-122094426D01*
X213961934Y-122082002D01*
X213871434Y-122044112D01*
X213792345Y-121989836D01*
X213726528Y-121921770D01*
X213675840Y-121842511D01*
X213642140Y-121754654D01*
X213627286Y-121660795D01*
X213633136Y-121563530D01*
X213659399Y-121467220D01*
X213704418Y-121378494D01*
X213765373Y-121303419D01*
X213840184Y-121243641D01*
X213926768Y-121200809D01*
X214023043Y-121176571D01*
X214126928Y-121172576D01*
X214204562Y-121182850D01*
G36*
X214204562Y-121182850D02*
G01*
X214287313Y-121210053D01*
X214362406Y-121255484D01*
X214434298Y-121321302D01*
X214472846Y-121365567D01*
X214512256Y-121423961D01*
X214537446Y-121484586D01*
X214550861Y-121553865D01*
X214554948Y-121638222D01*
X214554669Y-121684307D01*
X214552460Y-121725450D01*
X214546894Y-121757582D01*
X214536586Y-121788122D01*
X214520148Y-121824489D01*
X214506200Y-121851728D01*
X214447665Y-121937429D01*
X214375619Y-122006617D01*
X214291947Y-122057741D01*
X214198531Y-122089250D01*
X214165434Y-122096225D01*
X214124960Y-122103094D01*
X214091999Y-122104919D01*
X214057698Y-122101947D01*
X214013200Y-122094426D01*
X213961934Y-122082002D01*
X213871434Y-122044112D01*
X213792345Y-121989836D01*
X213726528Y-121921770D01*
X213675840Y-121842511D01*
X213642140Y-121754654D01*
X213627286Y-121660795D01*
X213633136Y-121563530D01*
X213659399Y-121467220D01*
X213704418Y-121378494D01*
X213765373Y-121303419D01*
X213840184Y-121243641D01*
X213926768Y-121200809D01*
X214023043Y-121176571D01*
X214126928Y-121172576D01*
X214204562Y-121182850D01*
G37*
X206905767Y-126419068D02*
X206999890Y-126419158D01*
X207074405Y-126419498D01*
X207131811Y-126420239D01*
X207174611Y-126421535D01*
X207205304Y-126423537D01*
X207226391Y-126426396D01*
X207240373Y-126430266D01*
X207249750Y-126435298D01*
X207257022Y-126441645D01*
X207275828Y-126474362D01*
X207277275Y-126511939D01*
X207260917Y-126545178D01*
X207259557Y-126546631D01*
X207248354Y-126554992D01*
X207231252Y-126560547D01*
X207204082Y-126563840D01*
X207162678Y-126565418D01*
X207102873Y-126565822D01*
X206963511Y-126565822D01*
X206963511Y-126829589D01*
X206963436Y-126905417D01*
X206963028Y-126972083D01*
X206962046Y-127021867D01*
X206960250Y-127057784D01*
X206957399Y-127082850D01*
X206953253Y-127100081D01*
X206947571Y-127112492D01*
X206940114Y-127123100D01*
X206937824Y-127125906D01*
X206906646Y-127148548D01*
X206872266Y-127150112D01*
X206839334Y-127130267D01*
X206832355Y-127122191D01*
X206826883Y-127111593D01*
X206822863Y-127095749D01*
X206820072Y-127071773D01*
X206818288Y-127036774D01*
X206817289Y-126987864D01*
X206816852Y-126922154D01*
X206816756Y-126836756D01*
X206816756Y-126565822D01*
X206670820Y-126565822D01*
X206659720Y-126565821D01*
X206603202Y-126565596D01*
X206564358Y-126564457D01*
X206538965Y-126561657D01*
X206522804Y-126556450D01*
X206511652Y-126548089D01*
X206501289Y-126535826D01*
X206485441Y-126505138D01*
X206488543Y-126471358D01*
X206514187Y-126438822D01*
X206519129Y-126435105D01*
X206529338Y-126430269D01*
X206544764Y-126426506D01*
X206567886Y-126423683D01*
X206601183Y-126421670D01*
X206647137Y-126420333D01*
X206708228Y-126419542D01*
X206786935Y-126419163D01*
X206885740Y-126419067D01*
X206905767Y-126419068D01*
G36*
X206905767Y-126419068D02*
G01*
X206999890Y-126419158D01*
X207074405Y-126419498D01*
X207131811Y-126420239D01*
X207174611Y-126421535D01*
X207205304Y-126423537D01*
X207226391Y-126426396D01*
X207240373Y-126430266D01*
X207249750Y-126435298D01*
X207257022Y-126441645D01*
X207275828Y-126474362D01*
X207277275Y-126511939D01*
X207260917Y-126545178D01*
X207259557Y-126546631D01*
X207248354Y-126554992D01*
X207231252Y-126560547D01*
X207204082Y-126563840D01*
X207162678Y-126565418D01*
X207102873Y-126565822D01*
X206963511Y-126565822D01*
X206963511Y-126829589D01*
X206963436Y-126905417D01*
X206963028Y-126972083D01*
X206962046Y-127021867D01*
X206960250Y-127057784D01*
X206957399Y-127082850D01*
X206953253Y-127100081D01*
X206947571Y-127112492D01*
X206940114Y-127123100D01*
X206937824Y-127125906D01*
X206906646Y-127148548D01*
X206872266Y-127150112D01*
X206839334Y-127130267D01*
X206832355Y-127122191D01*
X206826883Y-127111593D01*
X206822863Y-127095749D01*
X206820072Y-127071773D01*
X206818288Y-127036774D01*
X206817289Y-126987864D01*
X206816852Y-126922154D01*
X206816756Y-126836756D01*
X206816756Y-126565822D01*
X206670820Y-126565822D01*
X206659720Y-126565821D01*
X206603202Y-126565596D01*
X206564358Y-126564457D01*
X206538965Y-126561657D01*
X206522804Y-126556450D01*
X206511652Y-126548089D01*
X206501289Y-126535826D01*
X206485441Y-126505138D01*
X206488543Y-126471358D01*
X206514187Y-126438822D01*
X206519129Y-126435105D01*
X206529338Y-126430269D01*
X206544764Y-126426506D01*
X206567886Y-126423683D01*
X206601183Y-126421670D01*
X206647137Y-126420333D01*
X206708228Y-126419542D01*
X206786935Y-126419163D01*
X206885740Y-126419067D01*
X206905767Y-126419068D01*
G37*
X206229734Y-126441645D02*
X206235366Y-126447835D01*
X206240456Y-126456041D01*
X206244543Y-126467817D01*
X206247721Y-126485276D01*
X206250087Y-126510530D01*
X206251738Y-126545690D01*
X206252769Y-126592869D01*
X206253277Y-126654177D01*
X206253359Y-126731727D01*
X206253109Y-126827631D01*
X206252625Y-126944000D01*
X206252557Y-126958175D01*
X206251971Y-127019937D01*
X206250648Y-127063620D01*
X206248103Y-127093001D01*
X206243848Y-127111855D01*
X206237396Y-127123959D01*
X206228262Y-127133089D01*
X206194804Y-127150506D01*
X206159856Y-127147604D01*
X206128953Y-127123100D01*
X206119944Y-127109897D01*
X206112492Y-127091361D01*
X206108124Y-127065333D01*
X206106069Y-127026787D01*
X206105556Y-126970700D01*
X206105556Y-126848045D01*
X205608845Y-126848045D01*
X205608845Y-126982871D01*
X205608772Y-127018662D01*
X205608009Y-127064992D01*
X205605833Y-127095526D01*
X205601536Y-127114557D01*
X205594412Y-127126374D01*
X205583755Y-127135271D01*
X205551504Y-127150341D01*
X205516217Y-127147673D01*
X205485486Y-127123100D01*
X205480831Y-127116845D01*
X205474895Y-127106321D01*
X205470364Y-127092391D01*
X205467048Y-127072317D01*
X205464759Y-127043360D01*
X205463308Y-127002780D01*
X205462505Y-126947840D01*
X205462162Y-126875799D01*
X205462089Y-126783920D01*
X205462089Y-126474485D01*
X205489798Y-126446776D01*
X205521177Y-126424533D01*
X205554406Y-126421844D01*
X205586267Y-126441645D01*
X205594553Y-126451415D01*
X205601965Y-126467307D01*
X205606302Y-126491275D01*
X205608338Y-126528148D01*
X205608845Y-126582756D01*
X205608845Y-126701289D01*
X206105556Y-126701289D01*
X206105556Y-126585776D01*
X206105994Y-126534078D01*
X206107958Y-126499554D01*
X206112474Y-126476978D01*
X206120567Y-126461126D01*
X206133265Y-126446776D01*
X206164643Y-126424533D01*
X206197872Y-126421844D01*
X206229734Y-126441645D01*
G36*
X206229734Y-126441645D02*
G01*
X206235366Y-126447835D01*
X206240456Y-126456041D01*
X206244543Y-126467817D01*
X206247721Y-126485276D01*
X206250087Y-126510530D01*
X206251738Y-126545690D01*
X206252769Y-126592869D01*
X206253277Y-126654177D01*
X206253359Y-126731727D01*
X206253109Y-126827631D01*
X206252625Y-126944000D01*
X206252557Y-126958175D01*
X206251971Y-127019937D01*
X206250648Y-127063620D01*
X206248103Y-127093001D01*
X206243848Y-127111855D01*
X206237396Y-127123959D01*
X206228262Y-127133089D01*
X206194804Y-127150506D01*
X206159856Y-127147604D01*
X206128953Y-127123100D01*
X206119944Y-127109897D01*
X206112492Y-127091361D01*
X206108124Y-127065333D01*
X206106069Y-127026787D01*
X206105556Y-126970700D01*
X206105556Y-126848045D01*
X205608845Y-126848045D01*
X205608845Y-126982871D01*
X205608772Y-127018662D01*
X205608009Y-127064992D01*
X205605833Y-127095526D01*
X205601536Y-127114557D01*
X205594412Y-127126374D01*
X205583755Y-127135271D01*
X205551504Y-127150341D01*
X205516217Y-127147673D01*
X205485486Y-127123100D01*
X205480831Y-127116845D01*
X205474895Y-127106321D01*
X205470364Y-127092391D01*
X205467048Y-127072317D01*
X205464759Y-127043360D01*
X205463308Y-127002780D01*
X205462505Y-126947840D01*
X205462162Y-126875799D01*
X205462089Y-126783920D01*
X205462089Y-126474485D01*
X205489798Y-126446776D01*
X205521177Y-126424533D01*
X205554406Y-126421844D01*
X205586267Y-126441645D01*
X205594553Y-126451415D01*
X205601965Y-126467307D01*
X205606302Y-126491275D01*
X205608338Y-126528148D01*
X205608845Y-126582756D01*
X205608845Y-126701289D01*
X206105556Y-126701289D01*
X206105556Y-126585776D01*
X206105994Y-126534078D01*
X206107958Y-126499554D01*
X206112474Y-126476978D01*
X206120567Y-126461126D01*
X206133265Y-126446776D01*
X206164643Y-126424533D01*
X206197872Y-126421844D01*
X206229734Y-126441645D01*
G37*
X210935133Y-127030396D02*
X210933163Y-127063175D01*
X210930235Y-127086095D01*
X210926158Y-127101897D01*
X210920743Y-127113319D01*
X210913803Y-127123100D01*
X210890406Y-127152845D01*
X210724714Y-127152251D01*
X210689918Y-127151953D01*
X210591435Y-127148522D01*
X210510473Y-127140839D01*
X210443379Y-127128282D01*
X210386496Y-127110227D01*
X210336169Y-127086052D01*
X210332810Y-127084135D01*
X210274998Y-127047417D01*
X210232644Y-127010451D01*
X210199828Y-126966966D01*
X210170628Y-126910689D01*
X210166346Y-126901073D01*
X210143769Y-126837887D01*
X210138034Y-126792333D01*
X210287279Y-126792333D01*
X210292892Y-126817061D01*
X210298618Y-126832939D01*
X210331548Y-126892847D01*
X210378886Y-126938600D01*
X210442652Y-126971736D01*
X210524861Y-126993790D01*
X210527655Y-126994292D01*
X210573940Y-127000255D01*
X210630336Y-127004483D01*
X210685274Y-127006089D01*
X210779156Y-127006089D01*
X210779156Y-126565822D01*
X210691667Y-126566270D01*
X210624747Y-126568746D01*
X210532349Y-126579998D01*
X210453034Y-126599537D01*
X210391060Y-126626511D01*
X210360120Y-126647240D01*
X210332000Y-126677006D01*
X210308660Y-126719434D01*
X210301533Y-126735400D01*
X210289709Y-126767902D01*
X210287279Y-126792333D01*
X210138034Y-126792333D01*
X210136797Y-126782509D01*
X210145399Y-126727483D01*
X210169541Y-126665351D01*
X210170337Y-126663658D01*
X210210788Y-126594236D01*
X210261473Y-126537638D01*
X210324198Y-126493070D01*
X210400774Y-126459741D01*
X210493009Y-126436861D01*
X210602712Y-126423636D01*
X210731691Y-126419275D01*
X210735263Y-126419270D01*
X210795283Y-126419410D01*
X210837214Y-126420446D01*
X210865328Y-126423040D01*
X210883897Y-126427853D01*
X210897194Y-126435544D01*
X210909491Y-126446776D01*
X210937200Y-126474485D01*
X210937200Y-126783920D01*
X210937175Y-126845526D01*
X210936950Y-126924311D01*
X210936332Y-126985021D01*
X210935775Y-127006089D01*
X210935133Y-127030396D01*
G36*
X210935133Y-127030396D02*
G01*
X210933163Y-127063175D01*
X210930235Y-127086095D01*
X210926158Y-127101897D01*
X210920743Y-127113319D01*
X210913803Y-127123100D01*
X210890406Y-127152845D01*
X210724714Y-127152251D01*
X210689918Y-127151953D01*
X210591435Y-127148522D01*
X210510473Y-127140839D01*
X210443379Y-127128282D01*
X210386496Y-127110227D01*
X210336169Y-127086052D01*
X210332810Y-127084135D01*
X210274998Y-127047417D01*
X210232644Y-127010451D01*
X210199828Y-126966966D01*
X210170628Y-126910689D01*
X210166346Y-126901073D01*
X210143769Y-126837887D01*
X210138034Y-126792333D01*
X210287279Y-126792333D01*
X210292892Y-126817061D01*
X210298618Y-126832939D01*
X210331548Y-126892847D01*
X210378886Y-126938600D01*
X210442652Y-126971736D01*
X210524861Y-126993790D01*
X210527655Y-126994292D01*
X210573940Y-127000255D01*
X210630336Y-127004483D01*
X210685274Y-127006089D01*
X210779156Y-127006089D01*
X210779156Y-126565822D01*
X210691667Y-126566270D01*
X210624747Y-126568746D01*
X210532349Y-126579998D01*
X210453034Y-126599537D01*
X210391060Y-126626511D01*
X210360120Y-126647240D01*
X210332000Y-126677006D01*
X210308660Y-126719434D01*
X210301533Y-126735400D01*
X210289709Y-126767902D01*
X210287279Y-126792333D01*
X210138034Y-126792333D01*
X210136797Y-126782509D01*
X210145399Y-126727483D01*
X210169541Y-126665351D01*
X210170337Y-126663658D01*
X210210788Y-126594236D01*
X210261473Y-126537638D01*
X210324198Y-126493070D01*
X210400774Y-126459741D01*
X210493009Y-126436861D01*
X210602712Y-126423636D01*
X210731691Y-126419275D01*
X210735263Y-126419270D01*
X210795283Y-126419410D01*
X210837214Y-126420446D01*
X210865328Y-126423040D01*
X210883897Y-126427853D01*
X210897194Y-126435544D01*
X210909491Y-126446776D01*
X210937200Y-126474485D01*
X210937200Y-126783920D01*
X210937175Y-126845526D01*
X210936950Y-126924311D01*
X210936332Y-126985021D01*
X210935775Y-127006089D01*
X210935133Y-127030396D01*
G37*
X218026817Y-126604427D02*
X218026870Y-126685041D01*
X218026622Y-126785956D01*
X218026583Y-126861617D01*
X218026328Y-126939526D01*
X218025684Y-126999536D01*
X218024480Y-127044264D01*
X218022543Y-127076326D01*
X218019703Y-127098340D01*
X218015788Y-127112924D01*
X218010626Y-127122694D01*
X218004045Y-127130267D01*
X217997077Y-127136501D01*
X217984079Y-127143801D01*
X217964931Y-127148554D01*
X217935528Y-127151292D01*
X217891762Y-127152545D01*
X217829528Y-127152845D01*
X217780582Y-127152469D01*
X217673722Y-127148041D01*
X217584494Y-127137953D01*
X217509696Y-127121365D01*
X217446125Y-127097435D01*
X217390579Y-127065321D01*
X217339854Y-127024182D01*
X217333866Y-127018330D01*
X217296999Y-126969821D01*
X217265899Y-126909013D01*
X217244417Y-126844769D01*
X217239136Y-126806026D01*
X217386353Y-126806026D01*
X217404635Y-126856961D01*
X217434305Y-126902878D01*
X217481002Y-126945287D01*
X217542392Y-126975090D01*
X217621538Y-126994226D01*
X217623028Y-126994464D01*
X217671999Y-127000256D01*
X217730693Y-127004396D01*
X217786734Y-127006004D01*
X217879867Y-127006089D01*
X217879867Y-126565822D01*
X217803667Y-126565808D01*
X217800639Y-126565817D01*
X217749519Y-126567782D01*
X217689416Y-126572507D01*
X217632708Y-126579035D01*
X217582750Y-126588331D01*
X217507998Y-126614600D01*
X217450489Y-126653899D01*
X217408988Y-126706933D01*
X217387771Y-126758200D01*
X217386353Y-126806026D01*
X217239136Y-126806026D01*
X217236400Y-126785956D01*
X217237679Y-126764739D01*
X217249991Y-126707323D01*
X217272520Y-126647413D01*
X217301750Y-126593363D01*
X217334167Y-126553532D01*
X217353708Y-126536510D01*
X217408420Y-126497322D01*
X217468723Y-126467193D01*
X217537919Y-126445232D01*
X217619311Y-126430550D01*
X217716200Y-126422259D01*
X217831889Y-126419467D01*
X217871371Y-126419066D01*
X217917082Y-126418653D01*
X217952883Y-126420457D01*
X217979974Y-126426739D01*
X217999556Y-126439759D01*
X218012830Y-126461778D01*
X218020998Y-126495055D01*
X218025260Y-126541851D01*
X218025857Y-126565822D01*
X218026817Y-126604427D01*
G36*
X218026817Y-126604427D02*
G01*
X218026870Y-126685041D01*
X218026622Y-126785956D01*
X218026583Y-126861617D01*
X218026328Y-126939526D01*
X218025684Y-126999536D01*
X218024480Y-127044264D01*
X218022543Y-127076326D01*
X218019703Y-127098340D01*
X218015788Y-127112924D01*
X218010626Y-127122694D01*
X218004045Y-127130267D01*
X217997077Y-127136501D01*
X217984079Y-127143801D01*
X217964931Y-127148554D01*
X217935528Y-127151292D01*
X217891762Y-127152545D01*
X217829528Y-127152845D01*
X217780582Y-127152469D01*
X217673722Y-127148041D01*
X217584494Y-127137953D01*
X217509696Y-127121365D01*
X217446125Y-127097435D01*
X217390579Y-127065321D01*
X217339854Y-127024182D01*
X217333866Y-127018330D01*
X217296999Y-126969821D01*
X217265899Y-126909013D01*
X217244417Y-126844769D01*
X217239136Y-126806026D01*
X217386353Y-126806026D01*
X217404635Y-126856961D01*
X217434305Y-126902878D01*
X217481002Y-126945287D01*
X217542392Y-126975090D01*
X217621538Y-126994226D01*
X217623028Y-126994464D01*
X217671999Y-127000256D01*
X217730693Y-127004396D01*
X217786734Y-127006004D01*
X217879867Y-127006089D01*
X217879867Y-126565822D01*
X217803667Y-126565808D01*
X217800639Y-126565817D01*
X217749519Y-126567782D01*
X217689416Y-126572507D01*
X217632708Y-126579035D01*
X217582750Y-126588331D01*
X217507998Y-126614600D01*
X217450489Y-126653899D01*
X217408988Y-126706933D01*
X217387771Y-126758200D01*
X217386353Y-126806026D01*
X217239136Y-126806026D01*
X217236400Y-126785956D01*
X217237679Y-126764739D01*
X217249991Y-126707323D01*
X217272520Y-126647413D01*
X217301750Y-126593363D01*
X217334167Y-126553532D01*
X217353708Y-126536510D01*
X217408420Y-126497322D01*
X217468723Y-126467193D01*
X217537919Y-126445232D01*
X217619311Y-126430550D01*
X217716200Y-126422259D01*
X217831889Y-126419467D01*
X217871371Y-126419066D01*
X217917082Y-126418653D01*
X217952883Y-126420457D01*
X217979974Y-126426739D01*
X217999556Y-126439759D01*
X218012830Y-126461778D01*
X218020998Y-126495055D01*
X218025260Y-126541851D01*
X218025857Y-126565822D01*
X218026817Y-126604427D01*
G37*
X213081893Y-126417892D02*
X213093301Y-126424029D01*
X213103850Y-126434691D01*
X213115136Y-126448811D01*
X213119589Y-126454772D01*
X213125588Y-126465268D01*
X213130167Y-126479093D01*
X213133519Y-126498998D01*
X213135833Y-126527732D01*
X213137301Y-126568045D01*
X213138113Y-126622687D01*
X213138460Y-126694407D01*
X213138534Y-126785956D01*
X213138511Y-126844486D01*
X213138292Y-126923573D01*
X213137683Y-126984516D01*
X213136492Y-127030062D01*
X213134529Y-127062963D01*
X213131603Y-127085968D01*
X213127523Y-127101826D01*
X213122097Y-127113286D01*
X213115136Y-127123100D01*
X213084708Y-127147493D01*
X213049765Y-127150372D01*
X213012784Y-127131282D01*
X213008600Y-127127807D01*
X213000424Y-127119279D01*
X212994364Y-127107728D01*
X212989981Y-127089896D01*
X212986839Y-127062524D01*
X212984502Y-127022354D01*
X212982531Y-126966128D01*
X212980489Y-126890589D01*
X212974845Y-126671458D01*
X212709556Y-126912099D01*
X212635722Y-126978875D01*
X212570542Y-127036991D01*
X212518348Y-127081949D01*
X212477273Y-127114871D01*
X212445455Y-127136879D01*
X212421026Y-127149094D01*
X212402124Y-127152639D01*
X212386883Y-127148636D01*
X212373439Y-127138207D01*
X212359927Y-127122474D01*
X212353682Y-127113991D01*
X212348050Y-127103413D01*
X212343839Y-127089255D01*
X212340887Y-127068803D01*
X212339032Y-127039342D01*
X212338113Y-126998161D01*
X212337968Y-126942544D01*
X212338435Y-126869779D01*
X212339352Y-126777151D01*
X212342667Y-126462199D01*
X212369318Y-126440633D01*
X212395383Y-126424441D01*
X212428241Y-126421670D01*
X212462772Y-126440623D01*
X212467084Y-126444208D01*
X212475216Y-126452737D01*
X212481245Y-126464329D01*
X212485606Y-126482235D01*
X212488734Y-126509706D01*
X212491063Y-126549994D01*
X212493029Y-126606351D01*
X212495067Y-126682029D01*
X212500711Y-126901878D01*
X212681334Y-126738084D01*
X212768072Y-126659451D01*
X212843843Y-126591058D01*
X212905980Y-126535708D01*
X212956078Y-126492338D01*
X212995735Y-126459881D01*
X213026548Y-126437273D01*
X213050114Y-126423448D01*
X213068030Y-126417343D01*
X213081893Y-126417892D01*
G36*
X213081893Y-126417892D02*
G01*
X213093301Y-126424029D01*
X213103850Y-126434691D01*
X213115136Y-126448811D01*
X213119589Y-126454772D01*
X213125588Y-126465268D01*
X213130167Y-126479093D01*
X213133519Y-126498998D01*
X213135833Y-126527732D01*
X213137301Y-126568045D01*
X213138113Y-126622687D01*
X213138460Y-126694407D01*
X213138534Y-126785956D01*
X213138511Y-126844486D01*
X213138292Y-126923573D01*
X213137683Y-126984516D01*
X213136492Y-127030062D01*
X213134529Y-127062963D01*
X213131603Y-127085968D01*
X213127523Y-127101826D01*
X213122097Y-127113286D01*
X213115136Y-127123100D01*
X213084708Y-127147493D01*
X213049765Y-127150372D01*
X213012784Y-127131282D01*
X213008600Y-127127807D01*
X213000424Y-127119279D01*
X212994364Y-127107728D01*
X212989981Y-127089896D01*
X212986839Y-127062524D01*
X212984502Y-127022354D01*
X212982531Y-126966128D01*
X212980489Y-126890589D01*
X212974845Y-126671458D01*
X212709556Y-126912099D01*
X212635722Y-126978875D01*
X212570542Y-127036991D01*
X212518348Y-127081949D01*
X212477273Y-127114871D01*
X212445455Y-127136879D01*
X212421026Y-127149094D01*
X212402124Y-127152639D01*
X212386883Y-127148636D01*
X212373439Y-127138207D01*
X212359927Y-127122474D01*
X212353682Y-127113991D01*
X212348050Y-127103413D01*
X212343839Y-127089255D01*
X212340887Y-127068803D01*
X212339032Y-127039342D01*
X212338113Y-126998161D01*
X212337968Y-126942544D01*
X212338435Y-126869779D01*
X212339352Y-126777151D01*
X212342667Y-126462199D01*
X212369318Y-126440633D01*
X212395383Y-126424441D01*
X212428241Y-126421670D01*
X212462772Y-126440623D01*
X212467084Y-126444208D01*
X212475216Y-126452737D01*
X212481245Y-126464329D01*
X212485606Y-126482235D01*
X212488734Y-126509706D01*
X212491063Y-126549994D01*
X212493029Y-126606351D01*
X212495067Y-126682029D01*
X212500711Y-126901878D01*
X212681334Y-126738084D01*
X212768072Y-126659451D01*
X212843843Y-126591058D01*
X212905980Y-126535708D01*
X212956078Y-126492338D01*
X212995735Y-126459881D01*
X213026548Y-126437273D01*
X213050114Y-126423448D01*
X213068030Y-126417343D01*
X213081893Y-126417892D01*
G37*
X213879150Y-126424179D02*
X213985157Y-126440494D01*
X214078969Y-126468545D01*
X214157765Y-126507452D01*
X214218719Y-126556334D01*
X214244789Y-126589195D01*
X214274297Y-126638394D01*
X214299568Y-126692252D01*
X214317218Y-126743419D01*
X214323858Y-126784544D01*
X214322298Y-126804259D01*
X214309357Y-126855592D01*
X214286194Y-126912118D01*
X214256302Y-126966035D01*
X214223173Y-127009539D01*
X214212977Y-127019887D01*
X214145892Y-127071662D01*
X214065766Y-127111554D01*
X213979556Y-127135956D01*
X213924592Y-127144068D01*
X213831139Y-127150673D01*
X213741358Y-127148586D01*
X213658869Y-127138340D01*
X213587286Y-127120470D01*
X213530228Y-127095508D01*
X213491311Y-127063988D01*
X213489936Y-127062012D01*
X213482848Y-127036786D01*
X213478609Y-126989535D01*
X213477200Y-126920071D01*
X213478060Y-126857838D01*
X213482780Y-126810456D01*
X213494470Y-126778353D01*
X213516239Y-126758800D01*
X213551198Y-126749070D01*
X213602456Y-126746433D01*
X213673123Y-126748161D01*
X213721743Y-126751173D01*
X213771939Y-126759366D01*
X213804433Y-126773419D01*
X213821892Y-126794654D01*
X213826983Y-126824394D01*
X213826877Y-126828936D01*
X213818175Y-126863730D01*
X213794165Y-126887147D01*
X213752900Y-126900347D01*
X213692431Y-126904489D01*
X213623956Y-126904489D01*
X213623956Y-126942841D01*
X213624006Y-126951976D01*
X213626227Y-126969227D01*
X213635494Y-126979521D01*
X213656875Y-126986459D01*
X213695436Y-126993641D01*
X213700910Y-126994575D01*
X213797860Y-127004478D01*
X213887852Y-127001559D01*
X213968760Y-126986829D01*
X214038459Y-126961299D01*
X214094824Y-126925978D01*
X214135729Y-126881879D01*
X214159051Y-126830012D01*
X214162663Y-126771388D01*
X214157145Y-126742494D01*
X214130461Y-126686604D01*
X214084273Y-126640945D01*
X214019291Y-126606108D01*
X213936229Y-126582690D01*
X213911555Y-126578241D01*
X213822226Y-126567742D01*
X213742419Y-126568971D01*
X213664326Y-126581906D01*
X213629183Y-126588696D01*
X213583745Y-126589713D01*
X213552430Y-126577182D01*
X213532277Y-126550395D01*
X213525893Y-126522148D01*
X213535379Y-126490924D01*
X213544708Y-126477499D01*
X213578943Y-126453967D01*
X213631565Y-126436095D01*
X213700081Y-126424599D01*
X213782000Y-126420192D01*
X213879150Y-126424179D01*
G36*
X213879150Y-126424179D02*
G01*
X213985157Y-126440494D01*
X214078969Y-126468545D01*
X214157765Y-126507452D01*
X214218719Y-126556334D01*
X214244789Y-126589195D01*
X214274297Y-126638394D01*
X214299568Y-126692252D01*
X214317218Y-126743419D01*
X214323858Y-126784544D01*
X214322298Y-126804259D01*
X214309357Y-126855592D01*
X214286194Y-126912118D01*
X214256302Y-126966035D01*
X214223173Y-127009539D01*
X214212977Y-127019887D01*
X214145892Y-127071662D01*
X214065766Y-127111554D01*
X213979556Y-127135956D01*
X213924592Y-127144068D01*
X213831139Y-127150673D01*
X213741358Y-127148586D01*
X213658869Y-127138340D01*
X213587286Y-127120470D01*
X213530228Y-127095508D01*
X213491311Y-127063988D01*
X213489936Y-127062012D01*
X213482848Y-127036786D01*
X213478609Y-126989535D01*
X213477200Y-126920071D01*
X213478060Y-126857838D01*
X213482780Y-126810456D01*
X213494470Y-126778353D01*
X213516239Y-126758800D01*
X213551198Y-126749070D01*
X213602456Y-126746433D01*
X213673123Y-126748161D01*
X213721743Y-126751173D01*
X213771939Y-126759366D01*
X213804433Y-126773419D01*
X213821892Y-126794654D01*
X213826983Y-126824394D01*
X213826877Y-126828936D01*
X213818175Y-126863730D01*
X213794165Y-126887147D01*
X213752900Y-126900347D01*
X213692431Y-126904489D01*
X213623956Y-126904489D01*
X213623956Y-126942841D01*
X213624006Y-126951976D01*
X213626227Y-126969227D01*
X213635494Y-126979521D01*
X213656875Y-126986459D01*
X213695436Y-126993641D01*
X213700910Y-126994575D01*
X213797860Y-127004478D01*
X213887852Y-127001559D01*
X213968760Y-126986829D01*
X214038459Y-126961299D01*
X214094824Y-126925978D01*
X214135729Y-126881879D01*
X214159051Y-126830012D01*
X214162663Y-126771388D01*
X214157145Y-126742494D01*
X214130461Y-126686604D01*
X214084273Y-126640945D01*
X214019291Y-126606108D01*
X213936229Y-126582690D01*
X213911555Y-126578241D01*
X213822226Y-126567742D01*
X213742419Y-126568971D01*
X213664326Y-126581906D01*
X213629183Y-126588696D01*
X213583745Y-126589713D01*
X213552430Y-126577182D01*
X213532277Y-126550395D01*
X213525893Y-126522148D01*
X213535379Y-126490924D01*
X213544708Y-126477499D01*
X213578943Y-126453967D01*
X213631565Y-126436095D01*
X213700081Y-126424599D01*
X213782000Y-126420192D01*
X213879150Y-126424179D01*
G37*
X211929803Y-126448811D02*
X211934752Y-126455495D01*
X211940596Y-126466066D01*
X211945057Y-126480153D01*
X211948321Y-126500478D01*
X211950574Y-126529765D01*
X211952002Y-126570737D01*
X211952792Y-126626117D01*
X211953129Y-126698628D01*
X211953200Y-126790994D01*
X211953171Y-126856911D01*
X211952939Y-126935228D01*
X211952319Y-126995496D01*
X211951126Y-127040393D01*
X211949179Y-127072602D01*
X211946294Y-127094800D01*
X211942288Y-127109669D01*
X211936979Y-127119889D01*
X211930183Y-127128138D01*
X211925668Y-127132795D01*
X211917438Y-127139282D01*
X211906078Y-127144194D01*
X211888810Y-127147749D01*
X211862855Y-127150167D01*
X211825436Y-127151667D01*
X211773773Y-127152467D01*
X211705089Y-127152787D01*
X211616606Y-127152845D01*
X211596931Y-127152838D01*
X211509906Y-127152572D01*
X211442254Y-127151806D01*
X211391299Y-127150392D01*
X211354367Y-127148180D01*
X211328783Y-127145022D01*
X211311871Y-127140769D01*
X211300957Y-127135271D01*
X211290464Y-127125285D01*
X211277203Y-127094168D01*
X211278386Y-127058280D01*
X211294550Y-127026733D01*
X211296739Y-127024457D01*
X211305427Y-127018189D01*
X211318769Y-127013523D01*
X211339752Y-127010227D01*
X211371363Y-127008068D01*
X211416590Y-127006814D01*
X211478420Y-127006231D01*
X211559839Y-127006089D01*
X211806445Y-127006089D01*
X211806445Y-126848045D01*
X211644006Y-126848045D01*
X211608338Y-126847964D01*
X211552568Y-126847167D01*
X211513430Y-126845162D01*
X211486976Y-126841521D01*
X211469259Y-126835812D01*
X211456329Y-126827607D01*
X211452686Y-126824423D01*
X211434278Y-126793448D01*
X211433644Y-126757112D01*
X211451183Y-126723493D01*
X211451245Y-126723424D01*
X211460916Y-126714798D01*
X211474209Y-126708742D01*
X211494917Y-126704811D01*
X211526828Y-126702556D01*
X211573734Y-126701531D01*
X211639424Y-126701289D01*
X211807571Y-126701289D01*
X211804186Y-126636378D01*
X211800800Y-126571467D01*
X211558723Y-126568414D01*
X211533707Y-126568086D01*
X211452087Y-126566606D01*
X211389768Y-126564222D01*
X211344154Y-126560227D01*
X211312652Y-126553913D01*
X211292667Y-126544574D01*
X211281604Y-126531503D01*
X211276869Y-126513992D01*
X211275867Y-126491335D01*
X211275873Y-126488970D01*
X211277027Y-126468939D01*
X211281824Y-126453146D01*
X211292632Y-126441090D01*
X211311817Y-126432267D01*
X211341745Y-126426175D01*
X211384783Y-126422311D01*
X211443299Y-126420174D01*
X211519657Y-126419260D01*
X211616226Y-126419067D01*
X211906406Y-126419067D01*
X211929803Y-126448811D01*
G36*
X211929803Y-126448811D02*
G01*
X211934752Y-126455495D01*
X211940596Y-126466066D01*
X211945057Y-126480153D01*
X211948321Y-126500478D01*
X211950574Y-126529765D01*
X211952002Y-126570737D01*
X211952792Y-126626117D01*
X211953129Y-126698628D01*
X211953200Y-126790994D01*
X211953171Y-126856911D01*
X211952939Y-126935228D01*
X211952319Y-126995496D01*
X211951126Y-127040393D01*
X211949179Y-127072602D01*
X211946294Y-127094800D01*
X211942288Y-127109669D01*
X211936979Y-127119889D01*
X211930183Y-127128138D01*
X211925668Y-127132795D01*
X211917438Y-127139282D01*
X211906078Y-127144194D01*
X211888810Y-127147749D01*
X211862855Y-127150167D01*
X211825436Y-127151667D01*
X211773773Y-127152467D01*
X211705089Y-127152787D01*
X211616606Y-127152845D01*
X211596931Y-127152838D01*
X211509906Y-127152572D01*
X211442254Y-127151806D01*
X211391299Y-127150392D01*
X211354367Y-127148180D01*
X211328783Y-127145022D01*
X211311871Y-127140769D01*
X211300957Y-127135271D01*
X211290464Y-127125285D01*
X211277203Y-127094168D01*
X211278386Y-127058280D01*
X211294550Y-127026733D01*
X211296739Y-127024457D01*
X211305427Y-127018189D01*
X211318769Y-127013523D01*
X211339752Y-127010227D01*
X211371363Y-127008068D01*
X211416590Y-127006814D01*
X211478420Y-127006231D01*
X211559839Y-127006089D01*
X211806445Y-127006089D01*
X211806445Y-126848045D01*
X211644006Y-126848045D01*
X211608338Y-126847964D01*
X211552568Y-126847167D01*
X211513430Y-126845162D01*
X211486976Y-126841521D01*
X211469259Y-126835812D01*
X211456329Y-126827607D01*
X211452686Y-126824423D01*
X211434278Y-126793448D01*
X211433644Y-126757112D01*
X211451183Y-126723493D01*
X211451245Y-126723424D01*
X211460916Y-126714798D01*
X211474209Y-126708742D01*
X211494917Y-126704811D01*
X211526828Y-126702556D01*
X211573734Y-126701531D01*
X211639424Y-126701289D01*
X211807571Y-126701289D01*
X211804186Y-126636378D01*
X211800800Y-126571467D01*
X211558723Y-126568414D01*
X211533707Y-126568086D01*
X211452087Y-126566606D01*
X211389768Y-126564222D01*
X211344154Y-126560227D01*
X211312652Y-126553913D01*
X211292667Y-126544574D01*
X211281604Y-126531503D01*
X211276869Y-126513992D01*
X211275867Y-126491335D01*
X211275873Y-126488970D01*
X211277027Y-126468939D01*
X211281824Y-126453146D01*
X211292632Y-126441090D01*
X211311817Y-126432267D01*
X211341745Y-126426175D01*
X211384783Y-126422311D01*
X211443299Y-126420174D01*
X211519657Y-126419260D01*
X211616226Y-126419067D01*
X211906406Y-126419067D01*
X211929803Y-126448811D01*
G37*
X216606734Y-126419083D02*
X216683831Y-126419275D01*
X216742777Y-126419860D01*
X216786364Y-126421051D01*
X216817383Y-126423064D01*
X216838625Y-126426112D01*
X216852882Y-126430409D01*
X216862945Y-126436172D01*
X216871606Y-126443612D01*
X216873391Y-126445293D01*
X216880635Y-126452832D01*
X216886277Y-126461850D01*
X216890517Y-126474984D01*
X216893556Y-126494872D01*
X216895594Y-126524151D01*
X216896830Y-126565458D01*
X216897465Y-126621431D01*
X216897700Y-126694707D01*
X216897734Y-126787923D01*
X216897697Y-126860713D01*
X216897448Y-126938889D01*
X216896812Y-126999103D01*
X216895615Y-127043982D01*
X216893684Y-127076152D01*
X216890846Y-127098239D01*
X216886927Y-127112870D01*
X216881755Y-127122670D01*
X216875156Y-127130267D01*
X216871822Y-127133444D01*
X216863300Y-127139554D01*
X216851298Y-127144229D01*
X216833087Y-127147659D01*
X216805940Y-127150036D01*
X216767129Y-127151552D01*
X216713924Y-127152398D01*
X216643598Y-127152765D01*
X216553422Y-127152845D01*
X216511314Y-127152833D01*
X216430167Y-127152651D01*
X216367675Y-127152098D01*
X216321109Y-127150982D01*
X216287741Y-127149113D01*
X216264844Y-127146298D01*
X216249688Y-127142346D01*
X216239546Y-127137066D01*
X216231689Y-127130267D01*
X216216963Y-127108667D01*
X216209111Y-127079467D01*
X216214610Y-127055560D01*
X216231689Y-127028667D01*
X216236668Y-127024059D01*
X216246443Y-127017772D01*
X216260559Y-127013146D01*
X216282054Y-127009930D01*
X216313968Y-127007870D01*
X216359342Y-127006712D01*
X216421213Y-127006202D01*
X216502622Y-127006089D01*
X216750978Y-127006089D01*
X216750978Y-126848045D01*
X216589801Y-126848045D01*
X216553983Y-126847899D01*
X216488359Y-126846176D01*
X216441118Y-126841741D01*
X216409383Y-126833637D01*
X216390277Y-126820906D01*
X216380923Y-126802592D01*
X216378445Y-126777738D01*
X216379242Y-126757482D01*
X216384494Y-126735656D01*
X216397288Y-126720304D01*
X216420628Y-126710309D01*
X216457517Y-126704553D01*
X216510959Y-126701919D01*
X216583958Y-126701289D01*
X216752105Y-126701289D01*
X216748719Y-126636378D01*
X216745334Y-126571467D01*
X216497617Y-126568418D01*
X216435026Y-126567539D01*
X216366565Y-126566095D01*
X216315661Y-126564164D01*
X216279408Y-126561514D01*
X216254901Y-126557910D01*
X216239235Y-126553121D01*
X216229506Y-126546913D01*
X216223491Y-126540510D01*
X216210482Y-126508828D01*
X216214043Y-126473142D01*
X216233818Y-126442084D01*
X216237069Y-126439161D01*
X216246049Y-126432810D01*
X216258153Y-126427957D01*
X216276159Y-126424403D01*
X216302847Y-126421946D01*
X216340997Y-126420385D01*
X216393386Y-126419518D01*
X216462794Y-126419146D01*
X216552001Y-126419067D01*
X216606734Y-126419083D01*
G36*
X216606734Y-126419083D02*
G01*
X216683831Y-126419275D01*
X216742777Y-126419860D01*
X216786364Y-126421051D01*
X216817383Y-126423064D01*
X216838625Y-126426112D01*
X216852882Y-126430409D01*
X216862945Y-126436172D01*
X216871606Y-126443612D01*
X216873391Y-126445293D01*
X216880635Y-126452832D01*
X216886277Y-126461850D01*
X216890517Y-126474984D01*
X216893556Y-126494872D01*
X216895594Y-126524151D01*
X216896830Y-126565458D01*
X216897465Y-126621431D01*
X216897700Y-126694707D01*
X216897734Y-126787923D01*
X216897697Y-126860713D01*
X216897448Y-126938889D01*
X216896812Y-126999103D01*
X216895615Y-127043982D01*
X216893684Y-127076152D01*
X216890846Y-127098239D01*
X216886927Y-127112870D01*
X216881755Y-127122670D01*
X216875156Y-127130267D01*
X216871822Y-127133444D01*
X216863300Y-127139554D01*
X216851298Y-127144229D01*
X216833087Y-127147659D01*
X216805940Y-127150036D01*
X216767129Y-127151552D01*
X216713924Y-127152398D01*
X216643598Y-127152765D01*
X216553422Y-127152845D01*
X216511314Y-127152833D01*
X216430167Y-127152651D01*
X216367675Y-127152098D01*
X216321109Y-127150982D01*
X216287741Y-127149113D01*
X216264844Y-127146298D01*
X216249688Y-127142346D01*
X216239546Y-127137066D01*
X216231689Y-127130267D01*
X216216963Y-127108667D01*
X216209111Y-127079467D01*
X216214610Y-127055560D01*
X216231689Y-127028667D01*
X216236668Y-127024059D01*
X216246443Y-127017772D01*
X216260559Y-127013146D01*
X216282054Y-127009930D01*
X216313968Y-127007870D01*
X216359342Y-127006712D01*
X216421213Y-127006202D01*
X216502622Y-127006089D01*
X216750978Y-127006089D01*
X216750978Y-126848045D01*
X216589801Y-126848045D01*
X216553983Y-126847899D01*
X216488359Y-126846176D01*
X216441118Y-126841741D01*
X216409383Y-126833637D01*
X216390277Y-126820906D01*
X216380923Y-126802592D01*
X216378445Y-126777738D01*
X216379242Y-126757482D01*
X216384494Y-126735656D01*
X216397288Y-126720304D01*
X216420628Y-126710309D01*
X216457517Y-126704553D01*
X216510959Y-126701919D01*
X216583958Y-126701289D01*
X216752105Y-126701289D01*
X216748719Y-126636378D01*
X216745334Y-126571467D01*
X216497617Y-126568418D01*
X216435026Y-126567539D01*
X216366565Y-126566095D01*
X216315661Y-126564164D01*
X216279408Y-126561514D01*
X216254901Y-126557910D01*
X216239235Y-126553121D01*
X216229506Y-126546913D01*
X216223491Y-126540510D01*
X216210482Y-126508828D01*
X216214043Y-126473142D01*
X216233818Y-126442084D01*
X216237069Y-126439161D01*
X216246049Y-126432810D01*
X216258153Y-126427957D01*
X216276159Y-126424403D01*
X216302847Y-126421946D01*
X216340997Y-126420385D01*
X216393386Y-126419518D01*
X216462794Y-126419146D01*
X216552001Y-126419067D01*
X216606734Y-126419083D01*
G37*
X208039702Y-126428478D02*
X208057663Y-126446989D01*
X208078263Y-126478071D01*
X208103095Y-126523756D01*
X208133750Y-126586078D01*
X208171820Y-126667071D01*
X208186454Y-126698454D01*
X208216203Y-126761638D01*
X208242297Y-126816244D01*
X208263292Y-126859290D01*
X208277739Y-126887793D01*
X208284191Y-126898770D01*
X208285550Y-126898189D01*
X208295542Y-126884242D01*
X208312833Y-126854704D01*
X208335430Y-126813087D01*
X208361338Y-126762903D01*
X208377311Y-126731414D01*
X208406261Y-126676061D01*
X208428749Y-126637044D01*
X208446965Y-126611566D01*
X208463096Y-126596831D01*
X208479330Y-126590042D01*
X208497857Y-126588400D01*
X208508360Y-126588875D01*
X208524476Y-126593082D01*
X208539790Y-126603946D01*
X208556388Y-126624219D01*
X208576357Y-126656654D01*
X208601783Y-126704004D01*
X208634752Y-126769022D01*
X208644485Y-126788277D01*
X208668943Y-126834946D01*
X208689178Y-126871109D01*
X208703311Y-126893497D01*
X208709460Y-126898845D01*
X208710827Y-126895573D01*
X208720202Y-126874664D01*
X208737062Y-126837725D01*
X208759979Y-126787874D01*
X208787520Y-126728226D01*
X208818255Y-126661898D01*
X208844970Y-126604677D01*
X208874593Y-126542688D01*
X208897664Y-126496949D01*
X208915643Y-126464908D01*
X208929990Y-126444014D01*
X208942166Y-126431718D01*
X208953632Y-126425466D01*
X208963042Y-126422574D01*
X208988147Y-126422425D01*
X209015290Y-126437768D01*
X209016590Y-126438753D01*
X209038674Y-126461388D01*
X209049723Y-126483613D01*
X209049769Y-126484253D01*
X209045228Y-126501915D01*
X209032364Y-126536481D01*
X209012605Y-126584826D01*
X208987381Y-126643825D01*
X208958119Y-126710355D01*
X208926250Y-126781291D01*
X208893201Y-126853507D01*
X208860401Y-126923880D01*
X208829280Y-126989285D01*
X208801265Y-127046597D01*
X208777786Y-127092692D01*
X208760272Y-127124446D01*
X208750151Y-127138733D01*
X208715743Y-127152102D01*
X208674046Y-127145741D01*
X208668681Y-127141044D01*
X208652852Y-127118893D01*
X208630650Y-127082132D01*
X208604233Y-127034415D01*
X208575760Y-126979393D01*
X208495986Y-126820150D01*
X208422799Y-126966742D01*
X208413103Y-126986032D01*
X208386125Y-127038380D01*
X208362096Y-127083170D01*
X208343332Y-127116154D01*
X208332146Y-127133089D01*
X208331000Y-127134332D01*
X208302879Y-127149619D01*
X208267817Y-127151302D01*
X208236776Y-127138733D01*
X208234350Y-127135884D01*
X208222090Y-127115259D01*
X208202352Y-127077708D01*
X208176448Y-127025880D01*
X208145685Y-126962423D01*
X208111375Y-126889985D01*
X208074825Y-126811216D01*
X208054585Y-126767093D01*
X208017812Y-126686365D01*
X207989355Y-126622687D01*
X207968331Y-126573752D01*
X207953854Y-126537257D01*
X207945039Y-126510895D01*
X207941004Y-126492361D01*
X207940862Y-126479352D01*
X207943730Y-126469561D01*
X207958387Y-126448678D01*
X207984990Y-126428377D01*
X207985745Y-126428035D01*
X208005335Y-126421034D01*
X208022790Y-126420504D01*
X208039702Y-126428478D01*
G36*
X208039702Y-126428478D02*
G01*
X208057663Y-126446989D01*
X208078263Y-126478071D01*
X208103095Y-126523756D01*
X208133750Y-126586078D01*
X208171820Y-126667071D01*
X208186454Y-126698454D01*
X208216203Y-126761638D01*
X208242297Y-126816244D01*
X208263292Y-126859290D01*
X208277739Y-126887793D01*
X208284191Y-126898770D01*
X208285550Y-126898189D01*
X208295542Y-126884242D01*
X208312833Y-126854704D01*
X208335430Y-126813087D01*
X208361338Y-126762903D01*
X208377311Y-126731414D01*
X208406261Y-126676061D01*
X208428749Y-126637044D01*
X208446965Y-126611566D01*
X208463096Y-126596831D01*
X208479330Y-126590042D01*
X208497857Y-126588400D01*
X208508360Y-126588875D01*
X208524476Y-126593082D01*
X208539790Y-126603946D01*
X208556388Y-126624219D01*
X208576357Y-126656654D01*
X208601783Y-126704004D01*
X208634752Y-126769022D01*
X208644485Y-126788277D01*
X208668943Y-126834946D01*
X208689178Y-126871109D01*
X208703311Y-126893497D01*
X208709460Y-126898845D01*
X208710827Y-126895573D01*
X208720202Y-126874664D01*
X208737062Y-126837725D01*
X208759979Y-126787874D01*
X208787520Y-126728226D01*
X208818255Y-126661898D01*
X208844970Y-126604677D01*
X208874593Y-126542688D01*
X208897664Y-126496949D01*
X208915643Y-126464908D01*
X208929990Y-126444014D01*
X208942166Y-126431718D01*
X208953632Y-126425466D01*
X208963042Y-126422574D01*
X208988147Y-126422425D01*
X209015290Y-126437768D01*
X209016590Y-126438753D01*
X209038674Y-126461388D01*
X209049723Y-126483613D01*
X209049769Y-126484253D01*
X209045228Y-126501915D01*
X209032364Y-126536481D01*
X209012605Y-126584826D01*
X208987381Y-126643825D01*
X208958119Y-126710355D01*
X208926250Y-126781291D01*
X208893201Y-126853507D01*
X208860401Y-126923880D01*
X208829280Y-126989285D01*
X208801265Y-127046597D01*
X208777786Y-127092692D01*
X208760272Y-127124446D01*
X208750151Y-127138733D01*
X208715743Y-127152102D01*
X208674046Y-127145741D01*
X208668681Y-127141044D01*
X208652852Y-127118893D01*
X208630650Y-127082132D01*
X208604233Y-127034415D01*
X208575760Y-126979393D01*
X208495986Y-126820150D01*
X208422799Y-126966742D01*
X208413103Y-126986032D01*
X208386125Y-127038380D01*
X208362096Y-127083170D01*
X208343332Y-127116154D01*
X208332146Y-127133089D01*
X208331000Y-127134332D01*
X208302879Y-127149619D01*
X208267817Y-127151302D01*
X208236776Y-127138733D01*
X208234350Y-127135884D01*
X208222090Y-127115259D01*
X208202352Y-127077708D01*
X208176448Y-127025880D01*
X208145685Y-126962423D01*
X208111375Y-126889985D01*
X208074825Y-126811216D01*
X208054585Y-126767093D01*
X208017812Y-126686365D01*
X207989355Y-126622687D01*
X207968331Y-126573752D01*
X207953854Y-126537257D01*
X207945039Y-126510895D01*
X207941004Y-126492361D01*
X207940862Y-126479352D01*
X207943730Y-126469561D01*
X207958387Y-126448678D01*
X207984990Y-126428377D01*
X207985745Y-126428035D01*
X208005335Y-126421034D01*
X208022790Y-126420504D01*
X208039702Y-126428478D01*
G37*
X215590853Y-126419936D02*
X215657100Y-126425366D01*
X215712400Y-126434964D01*
X215763283Y-126449825D01*
X215834595Y-126482958D01*
X215885752Y-126525640D01*
X215916575Y-126577705D01*
X215926889Y-126638983D01*
X215925952Y-126670232D01*
X215920160Y-126695029D01*
X215905353Y-126716699D01*
X215877380Y-126744049D01*
X215869402Y-126751378D01*
X215845692Y-126772281D01*
X215823298Y-126789251D01*
X215799265Y-126803205D01*
X215770637Y-126815056D01*
X215734460Y-126825720D01*
X215687780Y-126836111D01*
X215627641Y-126847146D01*
X215551090Y-126859738D01*
X215455171Y-126874804D01*
X215436808Y-126877838D01*
X215374478Y-126891458D01*
X215329260Y-126907192D01*
X215302976Y-126924263D01*
X215297447Y-126941897D01*
X215300068Y-126946168D01*
X215318000Y-126961233D01*
X215346126Y-126977867D01*
X215358926Y-126983857D01*
X215380224Y-126991050D01*
X215406610Y-126995827D01*
X215442454Y-126998646D01*
X215492128Y-126999964D01*
X215560000Y-127000237D01*
X215577785Y-127000164D01*
X215645406Y-126999053D01*
X215710345Y-126996828D01*
X215765970Y-126993762D01*
X215805651Y-126990127D01*
X215841162Y-126986059D01*
X215870415Y-126985276D01*
X215889315Y-126989876D01*
X215904429Y-127000551D01*
X215908085Y-127004144D01*
X215924427Y-127035918D01*
X215923107Y-127071572D01*
X215904150Y-127102190D01*
X215883780Y-127113796D01*
X215847796Y-127126491D01*
X215805372Y-127136541D01*
X215801922Y-127137140D01*
X215759252Y-127142356D01*
X215701866Y-127146730D01*
X215636849Y-127149818D01*
X215571289Y-127151177D01*
X215555057Y-127151218D01*
X215456744Y-127148741D01*
X215376692Y-127140735D01*
X215311513Y-127126203D01*
X215257817Y-127104149D01*
X215212216Y-127073576D01*
X215171323Y-127033486D01*
X215151202Y-127007259D01*
X215139576Y-126977712D01*
X215136667Y-126937995D01*
X215136808Y-126926026D01*
X215140681Y-126893345D01*
X215153065Y-126866819D01*
X215178230Y-126835971D01*
X215199442Y-126813831D01*
X215225838Y-126791285D01*
X215255555Y-126772917D01*
X215291785Y-126757661D01*
X215337717Y-126744449D01*
X215396544Y-126732214D01*
X215471456Y-126719889D01*
X215565645Y-126706406D01*
X215610957Y-126699396D01*
X215678911Y-126684837D01*
X215728047Y-126668337D01*
X215757614Y-126650439D01*
X215766864Y-126631685D01*
X215755048Y-126612615D01*
X215721416Y-126593771D01*
X215718370Y-126592557D01*
X215672011Y-126580479D01*
X215609361Y-126572279D01*
X215535927Y-126568119D01*
X215457217Y-126568161D01*
X215378739Y-126572569D01*
X215306000Y-126581505D01*
X215302073Y-126582154D01*
X215253257Y-126589861D01*
X215221005Y-126593473D01*
X215200008Y-126592876D01*
X215184954Y-126587954D01*
X215170534Y-126578596D01*
X215169364Y-126577725D01*
X215144847Y-126547351D01*
X215140054Y-126511850D01*
X215155860Y-126477269D01*
X215160406Y-126472813D01*
X215190020Y-126457673D01*
X215237002Y-126444550D01*
X215297306Y-126433750D01*
X215366888Y-126425581D01*
X215441703Y-126420351D01*
X215517706Y-126418367D01*
X215590853Y-126419936D01*
G36*
X215590853Y-126419936D02*
G01*
X215657100Y-126425366D01*
X215712400Y-126434964D01*
X215763283Y-126449825D01*
X215834595Y-126482958D01*
X215885752Y-126525640D01*
X215916575Y-126577705D01*
X215926889Y-126638983D01*
X215925952Y-126670232D01*
X215920160Y-126695029D01*
X215905353Y-126716699D01*
X215877380Y-126744049D01*
X215869402Y-126751378D01*
X215845692Y-126772281D01*
X215823298Y-126789251D01*
X215799265Y-126803205D01*
X215770637Y-126815056D01*
X215734460Y-126825720D01*
X215687780Y-126836111D01*
X215627641Y-126847146D01*
X215551090Y-126859738D01*
X215455171Y-126874804D01*
X215436808Y-126877838D01*
X215374478Y-126891458D01*
X215329260Y-126907192D01*
X215302976Y-126924263D01*
X215297447Y-126941897D01*
X215300068Y-126946168D01*
X215318000Y-126961233D01*
X215346126Y-126977867D01*
X215358926Y-126983857D01*
X215380224Y-126991050D01*
X215406610Y-126995827D01*
X215442454Y-126998646D01*
X215492128Y-126999964D01*
X215560000Y-127000237D01*
X215577785Y-127000164D01*
X215645406Y-126999053D01*
X215710345Y-126996828D01*
X215765970Y-126993762D01*
X215805651Y-126990127D01*
X215841162Y-126986059D01*
X215870415Y-126985276D01*
X215889315Y-126989876D01*
X215904429Y-127000551D01*
X215908085Y-127004144D01*
X215924427Y-127035918D01*
X215923107Y-127071572D01*
X215904150Y-127102190D01*
X215883780Y-127113796D01*
X215847796Y-127126491D01*
X215805372Y-127136541D01*
X215801922Y-127137140D01*
X215759252Y-127142356D01*
X215701866Y-127146730D01*
X215636849Y-127149818D01*
X215571289Y-127151177D01*
X215555057Y-127151218D01*
X215456744Y-127148741D01*
X215376692Y-127140735D01*
X215311513Y-127126203D01*
X215257817Y-127104149D01*
X215212216Y-127073576D01*
X215171323Y-127033486D01*
X215151202Y-127007259D01*
X215139576Y-126977712D01*
X215136667Y-126937995D01*
X215136808Y-126926026D01*
X215140681Y-126893345D01*
X215153065Y-126866819D01*
X215178230Y-126835971D01*
X215199442Y-126813831D01*
X215225838Y-126791285D01*
X215255555Y-126772917D01*
X215291785Y-126757661D01*
X215337717Y-126744449D01*
X215396544Y-126732214D01*
X215471456Y-126719889D01*
X215565645Y-126706406D01*
X215610957Y-126699396D01*
X215678911Y-126684837D01*
X215728047Y-126668337D01*
X215757614Y-126650439D01*
X215766864Y-126631685D01*
X215755048Y-126612615D01*
X215721416Y-126593771D01*
X215718370Y-126592557D01*
X215672011Y-126580479D01*
X215609361Y-126572279D01*
X215535927Y-126568119D01*
X215457217Y-126568161D01*
X215378739Y-126572569D01*
X215306000Y-126581505D01*
X215302073Y-126582154D01*
X215253257Y-126589861D01*
X215221005Y-126593473D01*
X215200008Y-126592876D01*
X215184954Y-126587954D01*
X215170534Y-126578596D01*
X215169364Y-126577725D01*
X215144847Y-126547351D01*
X215140054Y-126511850D01*
X215155860Y-126477269D01*
X215160406Y-126472813D01*
X215190020Y-126457673D01*
X215237002Y-126444550D01*
X215297306Y-126433750D01*
X215366888Y-126425581D01*
X215441703Y-126420351D01*
X215517706Y-126418367D01*
X215590853Y-126419936D01*
G37*
X211738711Y-122112033D02*
X211834268Y-122129523D01*
X211998558Y-122174564D01*
X212152589Y-122237656D01*
X212298509Y-122319915D01*
X212438466Y-122422457D01*
X212574608Y-122546399D01*
X212618473Y-122591661D01*
X212730758Y-122723865D01*
X212823972Y-122861832D01*
X212900719Y-123009750D01*
X212963603Y-123171803D01*
X212967420Y-123183391D01*
X213017507Y-123369392D01*
X213050899Y-123565521D01*
X213067584Y-123767568D01*
X213067551Y-123971325D01*
X213050791Y-124172581D01*
X213017292Y-124367128D01*
X212967044Y-124550756D01*
X212923190Y-124668053D01*
X212845348Y-124830951D01*
X212751828Y-124984866D01*
X212644822Y-125126671D01*
X212526519Y-125253239D01*
X212399111Y-125361441D01*
X212321606Y-125414120D01*
X212194725Y-125483750D01*
X212057243Y-125542468D01*
X211915716Y-125587587D01*
X211776702Y-125616422D01*
X211762597Y-125618106D01*
X211719153Y-125621434D01*
X211661723Y-125624275D01*
X211596122Y-125626373D01*
X211528167Y-125627468D01*
X211401378Y-125625140D01*
X211253673Y-125612136D01*
X211115779Y-125587133D01*
X210982014Y-125549318D01*
X210958562Y-125540889D01*
X210910612Y-125521408D01*
X210854140Y-125496473D01*
X210792379Y-125467722D01*
X210728563Y-125436790D01*
X210665926Y-125405315D01*
X210607703Y-125374934D01*
X210557127Y-125347283D01*
X210517433Y-125323999D01*
X210491854Y-125306718D01*
X210483625Y-125297079D01*
X210485076Y-125293984D01*
X210496250Y-125274079D01*
X210517134Y-125238420D01*
X210546265Y-125189459D01*
X210582181Y-125129646D01*
X210623420Y-125061433D01*
X210668517Y-124987271D01*
X210849785Y-124690008D01*
X210896315Y-124734539D01*
X210987723Y-124812865D01*
X211101334Y-124887439D01*
X211219122Y-124941474D01*
X211339559Y-124974290D01*
X211461117Y-124985211D01*
X211502585Y-124983868D01*
X211620080Y-124965612D01*
X211730089Y-124926617D01*
X211831430Y-124867670D01*
X211922921Y-124789557D01*
X212003380Y-124693064D01*
X212071627Y-124578978D01*
X212087908Y-124544724D01*
X212133982Y-124421240D01*
X212169106Y-124282918D01*
X212193197Y-124133561D01*
X212206173Y-123976973D01*
X212207949Y-123816956D01*
X212198443Y-123657314D01*
X212177572Y-123501850D01*
X212145252Y-123354366D01*
X212101399Y-123218667D01*
X212063982Y-123132076D01*
X211999185Y-123018688D01*
X211923772Y-122925070D01*
X211837418Y-122850959D01*
X211739795Y-122796094D01*
X211630577Y-122760212D01*
X211509439Y-122743051D01*
X211440038Y-122741880D01*
X211317168Y-122756141D01*
X211201664Y-122791241D01*
X211094953Y-122846682D01*
X210998464Y-122921964D01*
X210982720Y-122936440D01*
X210952150Y-122962962D01*
X210929809Y-122980138D01*
X210919691Y-122984787D01*
X210917706Y-122982597D01*
X210903241Y-122963721D01*
X210879400Y-122930397D01*
X210848029Y-122885380D01*
X210810974Y-122831425D01*
X210770083Y-122771285D01*
X210727202Y-122707718D01*
X210684178Y-122643476D01*
X210642857Y-122581315D01*
X210605086Y-122523991D01*
X210572712Y-122474257D01*
X210547582Y-122434868D01*
X210531542Y-122408580D01*
X210526439Y-122398147D01*
X210531050Y-122393941D01*
X210550267Y-122388933D01*
X210559838Y-122386386D01*
X210587809Y-122375249D01*
X210629448Y-122356802D01*
X210680995Y-122332725D01*
X210738690Y-122304699D01*
X210749957Y-122299154D01*
X210927687Y-122219889D01*
X211097490Y-122160385D01*
X211261430Y-122120245D01*
X211421571Y-122099071D01*
X211579977Y-122096466D01*
X211738711Y-122112033D01*
G36*
X211738711Y-122112033D02*
G01*
X211834268Y-122129523D01*
X211998558Y-122174564D01*
X212152589Y-122237656D01*
X212298509Y-122319915D01*
X212438466Y-122422457D01*
X212574608Y-122546399D01*
X212618473Y-122591661D01*
X212730758Y-122723865D01*
X212823972Y-122861832D01*
X212900719Y-123009750D01*
X212963603Y-123171803D01*
X212967420Y-123183391D01*
X213017507Y-123369392D01*
X213050899Y-123565521D01*
X213067584Y-123767568D01*
X213067551Y-123971325D01*
X213050791Y-124172581D01*
X213017292Y-124367128D01*
X212967044Y-124550756D01*
X212923190Y-124668053D01*
X212845348Y-124830951D01*
X212751828Y-124984866D01*
X212644822Y-125126671D01*
X212526519Y-125253239D01*
X212399111Y-125361441D01*
X212321606Y-125414120D01*
X212194725Y-125483750D01*
X212057243Y-125542468D01*
X211915716Y-125587587D01*
X211776702Y-125616422D01*
X211762597Y-125618106D01*
X211719153Y-125621434D01*
X211661723Y-125624275D01*
X211596122Y-125626373D01*
X211528167Y-125627468D01*
X211401378Y-125625140D01*
X211253673Y-125612136D01*
X211115779Y-125587133D01*
X210982014Y-125549318D01*
X210958562Y-125540889D01*
X210910612Y-125521408D01*
X210854140Y-125496473D01*
X210792379Y-125467722D01*
X210728563Y-125436790D01*
X210665926Y-125405315D01*
X210607703Y-125374934D01*
X210557127Y-125347283D01*
X210517433Y-125323999D01*
X210491854Y-125306718D01*
X210483625Y-125297079D01*
X210485076Y-125293984D01*
X210496250Y-125274079D01*
X210517134Y-125238420D01*
X210546265Y-125189459D01*
X210582181Y-125129646D01*
X210623420Y-125061433D01*
X210668517Y-124987271D01*
X210849785Y-124690008D01*
X210896315Y-124734539D01*
X210987723Y-124812865D01*
X211101334Y-124887439D01*
X211219122Y-124941474D01*
X211339559Y-124974290D01*
X211461117Y-124985211D01*
X211502585Y-124983868D01*
X211620080Y-124965612D01*
X211730089Y-124926617D01*
X211831430Y-124867670D01*
X211922921Y-124789557D01*
X212003380Y-124693064D01*
X212071627Y-124578978D01*
X212087908Y-124544724D01*
X212133982Y-124421240D01*
X212169106Y-124282918D01*
X212193197Y-124133561D01*
X212206173Y-123976973D01*
X212207949Y-123816956D01*
X212198443Y-123657314D01*
X212177572Y-123501850D01*
X212145252Y-123354366D01*
X212101399Y-123218667D01*
X212063982Y-123132076D01*
X211999185Y-123018688D01*
X211923772Y-122925070D01*
X211837418Y-122850959D01*
X211739795Y-122796094D01*
X211630577Y-122760212D01*
X211509439Y-122743051D01*
X211440038Y-122741880D01*
X211317168Y-122756141D01*
X211201664Y-122791241D01*
X211094953Y-122846682D01*
X210998464Y-122921964D01*
X210982720Y-122936440D01*
X210952150Y-122962962D01*
X210929809Y-122980138D01*
X210919691Y-122984787D01*
X210917706Y-122982597D01*
X210903241Y-122963721D01*
X210879400Y-122930397D01*
X210848029Y-122885380D01*
X210810974Y-122831425D01*
X210770083Y-122771285D01*
X210727202Y-122707718D01*
X210684178Y-122643476D01*
X210642857Y-122581315D01*
X210605086Y-122523991D01*
X210572712Y-122474257D01*
X210547582Y-122434868D01*
X210531542Y-122408580D01*
X210526439Y-122398147D01*
X210531050Y-122393941D01*
X210550267Y-122388933D01*
X210559838Y-122386386D01*
X210587809Y-122375249D01*
X210629448Y-122356802D01*
X210680995Y-122332725D01*
X210738690Y-122304699D01*
X210749957Y-122299154D01*
X210927687Y-122219889D01*
X211097490Y-122160385D01*
X211261430Y-122120245D01*
X211421571Y-122099071D01*
X211579977Y-122096466D01*
X211738711Y-122112033D01*
G37*
X207935994Y-124392711D02*
X207935268Y-124470158D01*
X207926689Y-124621594D01*
X207907833Y-124758283D01*
X207877837Y-124884276D01*
X207835836Y-125003625D01*
X207780969Y-125120381D01*
X207714167Y-125231179D01*
X207623363Y-125344739D01*
X207519708Y-125440211D01*
X207403887Y-125517073D01*
X207276586Y-125574797D01*
X207138489Y-125612858D01*
X207100793Y-125618666D01*
X207021752Y-125624396D01*
X206933629Y-125624583D01*
X206844236Y-125619539D01*
X206761384Y-125609578D01*
X206692887Y-125595012D01*
X206662035Y-125585364D01*
X206584730Y-125555123D01*
X206507679Y-125517617D01*
X206438200Y-125476614D01*
X206383615Y-125435879D01*
X206360916Y-125416505D01*
X206338201Y-125398662D01*
X206326779Y-125391778D01*
X206325537Y-125393424D01*
X206322728Y-125411205D01*
X206320776Y-125444370D01*
X206320045Y-125487733D01*
X206320045Y-125583689D01*
X205461896Y-125583689D01*
X205496161Y-125522974D01*
X205501355Y-125513868D01*
X205509715Y-125499249D01*
X205517288Y-125485173D01*
X205524112Y-125470540D01*
X205530227Y-125454249D01*
X205535673Y-125435198D01*
X205540487Y-125412286D01*
X205544708Y-125384413D01*
X205548377Y-125350478D01*
X205551531Y-125309379D01*
X205554211Y-125260015D01*
X205556454Y-125201286D01*
X205558299Y-125132090D01*
X205559787Y-125051326D01*
X205560955Y-124957894D01*
X205561844Y-124850692D01*
X205562491Y-124728620D01*
X205562936Y-124590576D01*
X205563218Y-124435459D01*
X205563375Y-124262168D01*
X205563448Y-124069603D01*
X205563474Y-123856662D01*
X205563485Y-123720530D01*
X206365200Y-123720530D01*
X206365200Y-124870721D01*
X206435756Y-124917089D01*
X206476417Y-124940791D01*
X206530546Y-124966639D01*
X206579689Y-124984829D01*
X206643165Y-125000551D01*
X206739331Y-125011541D01*
X206823900Y-125003365D01*
X206897219Y-124975805D01*
X206959637Y-124928642D01*
X207011502Y-124861658D01*
X207053160Y-124774633D01*
X207084962Y-124667350D01*
X207087545Y-124655009D01*
X207096000Y-124593772D01*
X207101663Y-124516692D01*
X207104576Y-124429002D01*
X207104783Y-124335934D01*
X207102330Y-124242720D01*
X207097261Y-124154594D01*
X207089619Y-124076788D01*
X207079448Y-124014533D01*
X207078167Y-124008666D01*
X207049126Y-123898121D01*
X207014610Y-123807575D01*
X206973456Y-123734953D01*
X206924499Y-123678181D01*
X206866574Y-123635184D01*
X206834620Y-123619615D01*
X206761784Y-123600722D01*
X206680443Y-123597465D01*
X206595319Y-123609389D01*
X206511133Y-123636040D01*
X206432608Y-123676962D01*
X206365200Y-123720530D01*
X205563485Y-123720530D01*
X205563493Y-123622245D01*
X205563689Y-121937378D01*
X206469017Y-121937378D01*
X206444585Y-121974067D01*
X206438318Y-121983647D01*
X206412208Y-122029981D01*
X206394469Y-122077102D01*
X206382908Y-122132251D01*
X206375331Y-122202667D01*
X206374839Y-122209650D01*
X206373062Y-122247641D01*
X206371444Y-122301576D01*
X206369999Y-122368703D01*
X206368740Y-122446271D01*
X206367680Y-122531528D01*
X206366829Y-122621724D01*
X206366203Y-122714107D01*
X206365812Y-122805925D01*
X206365670Y-122894427D01*
X206365790Y-122976862D01*
X206366183Y-123050479D01*
X206366862Y-123112526D01*
X206367841Y-123160251D01*
X206369132Y-123190904D01*
X206370747Y-123201733D01*
X206378957Y-123197333D01*
X206400647Y-123182362D01*
X206430014Y-123160448D01*
X206478879Y-123126236D01*
X206567125Y-123079714D01*
X206665916Y-123046046D01*
X206778510Y-123024231D01*
X206908164Y-123013265D01*
X207000670Y-123012219D01*
X207122011Y-123022014D01*
X207232099Y-123046174D01*
X207335389Y-123085785D01*
X207436338Y-123141932D01*
X207481503Y-123172883D01*
X207586911Y-123264115D01*
X207678538Y-123373106D01*
X207756332Y-123499726D01*
X207820241Y-123643845D01*
X207870214Y-123805332D01*
X207906198Y-123984059D01*
X207928143Y-124179895D01*
X207933900Y-124335934D01*
X207935994Y-124392711D01*
G36*
X207935994Y-124392711D02*
G01*
X207935268Y-124470158D01*
X207926689Y-124621594D01*
X207907833Y-124758283D01*
X207877837Y-124884276D01*
X207835836Y-125003625D01*
X207780969Y-125120381D01*
X207714167Y-125231179D01*
X207623363Y-125344739D01*
X207519708Y-125440211D01*
X207403887Y-125517073D01*
X207276586Y-125574797D01*
X207138489Y-125612858D01*
X207100793Y-125618666D01*
X207021752Y-125624396D01*
X206933629Y-125624583D01*
X206844236Y-125619539D01*
X206761384Y-125609578D01*
X206692887Y-125595012D01*
X206662035Y-125585364D01*
X206584730Y-125555123D01*
X206507679Y-125517617D01*
X206438200Y-125476614D01*
X206383615Y-125435879D01*
X206360916Y-125416505D01*
X206338201Y-125398662D01*
X206326779Y-125391778D01*
X206325537Y-125393424D01*
X206322728Y-125411205D01*
X206320776Y-125444370D01*
X206320045Y-125487733D01*
X206320045Y-125583689D01*
X205461896Y-125583689D01*
X205496161Y-125522974D01*
X205501355Y-125513868D01*
X205509715Y-125499249D01*
X205517288Y-125485173D01*
X205524112Y-125470540D01*
X205530227Y-125454249D01*
X205535673Y-125435198D01*
X205540487Y-125412286D01*
X205544708Y-125384413D01*
X205548377Y-125350478D01*
X205551531Y-125309379D01*
X205554211Y-125260015D01*
X205556454Y-125201286D01*
X205558299Y-125132090D01*
X205559787Y-125051326D01*
X205560955Y-124957894D01*
X205561844Y-124850692D01*
X205562491Y-124728620D01*
X205562936Y-124590576D01*
X205563218Y-124435459D01*
X205563375Y-124262168D01*
X205563448Y-124069603D01*
X205563474Y-123856662D01*
X205563485Y-123720530D01*
X206365200Y-123720530D01*
X206365200Y-124870721D01*
X206435756Y-124917089D01*
X206476417Y-124940791D01*
X206530546Y-124966639D01*
X206579689Y-124984829D01*
X206643165Y-125000551D01*
X206739331Y-125011541D01*
X206823900Y-125003365D01*
X206897219Y-124975805D01*
X206959637Y-124928642D01*
X207011502Y-124861658D01*
X207053160Y-124774633D01*
X207084962Y-124667350D01*
X207087545Y-124655009D01*
X207096000Y-124593772D01*
X207101663Y-124516692D01*
X207104576Y-124429002D01*
X207104783Y-124335934D01*
X207102330Y-124242720D01*
X207097261Y-124154594D01*
X207089619Y-124076788D01*
X207079448Y-124014533D01*
X207078167Y-124008666D01*
X207049126Y-123898121D01*
X207014610Y-123807575D01*
X206973456Y-123734953D01*
X206924499Y-123678181D01*
X206866574Y-123635184D01*
X206834620Y-123619615D01*
X206761784Y-123600722D01*
X206680443Y-123597465D01*
X206595319Y-123609389D01*
X206511133Y-123636040D01*
X206432608Y-123676962D01*
X206365200Y-123720530D01*
X205563485Y-123720530D01*
X205563493Y-123622245D01*
X205563689Y-121937378D01*
X206469017Y-121937378D01*
X206444585Y-121974067D01*
X206438318Y-121983647D01*
X206412208Y-122029981D01*
X206394469Y-122077102D01*
X206382908Y-122132251D01*
X206375331Y-122202667D01*
X206374839Y-122209650D01*
X206373062Y-122247641D01*
X206371444Y-122301576D01*
X206369999Y-122368703D01*
X206368740Y-122446271D01*
X206367680Y-122531528D01*
X206366829Y-122621724D01*
X206366203Y-122714107D01*
X206365812Y-122805925D01*
X206365670Y-122894427D01*
X206365790Y-122976862D01*
X206366183Y-123050479D01*
X206366862Y-123112526D01*
X206367841Y-123160251D01*
X206369132Y-123190904D01*
X206370747Y-123201733D01*
X206378957Y-123197333D01*
X206400647Y-123182362D01*
X206430014Y-123160448D01*
X206478879Y-123126236D01*
X206567125Y-123079714D01*
X206665916Y-123046046D01*
X206778510Y-123024231D01*
X206908164Y-123013265D01*
X207000670Y-123012219D01*
X207122011Y-123022014D01*
X207232099Y-123046174D01*
X207335389Y-123085785D01*
X207436338Y-123141932D01*
X207481503Y-123172883D01*
X207586911Y-123264115D01*
X207678538Y-123373106D01*
X207756332Y-123499726D01*
X207820241Y-123643845D01*
X207870214Y-123805332D01*
X207906198Y-123984059D01*
X207928143Y-124179895D01*
X207933900Y-124335934D01*
X207935994Y-124392711D01*
G37*
X210477755Y-124793467D02*
X210477261Y-124827363D01*
X210473632Y-124902202D01*
X210466022Y-124964401D01*
X210453688Y-125020984D01*
X210409313Y-125147076D01*
X210346400Y-125261679D01*
X210266238Y-125362568D01*
X210169740Y-125448924D01*
X210057822Y-125519932D01*
X209931397Y-125574776D01*
X209791378Y-125612638D01*
X209755149Y-125618351D01*
X209676155Y-125624313D01*
X209587841Y-125624646D01*
X209498075Y-125619659D01*
X209414722Y-125609666D01*
X209345651Y-125594978D01*
X209259187Y-125564749D01*
X209149286Y-125510057D01*
X209051956Y-125442543D01*
X208989867Y-125391556D01*
X208986605Y-125487622D01*
X208983343Y-125583689D01*
X208560450Y-125583689D01*
X208549543Y-125583686D01*
X208455056Y-125583380D01*
X208368331Y-125582616D01*
X208291837Y-125581451D01*
X208228043Y-125579942D01*
X208179418Y-125578147D01*
X208148433Y-125576121D01*
X208137556Y-125573922D01*
X208137578Y-125573463D01*
X208144614Y-125557910D01*
X208160434Y-125535071D01*
X208164734Y-125529638D01*
X208175777Y-125515606D01*
X208185311Y-125502186D01*
X208193461Y-125487722D01*
X208200352Y-125470556D01*
X208206111Y-125449034D01*
X208210862Y-125421498D01*
X208214731Y-125386292D01*
X208217844Y-125341760D01*
X208220325Y-125286246D01*
X208222300Y-125218093D01*
X208223894Y-125135645D01*
X208225234Y-125037246D01*
X208226444Y-124921239D01*
X208227649Y-124785968D01*
X208228595Y-124674586D01*
X209029378Y-124674586D01*
X209029378Y-124870462D01*
X209074048Y-124926973D01*
X209086785Y-124942212D01*
X209133604Y-124984844D01*
X209194255Y-125020672D01*
X209204897Y-125025850D01*
X209243676Y-125042745D01*
X209278692Y-125052909D01*
X209318722Y-125058325D01*
X209372541Y-125060978D01*
X209390648Y-125061383D01*
X209466011Y-125058540D01*
X209526743Y-125046620D01*
X209578452Y-125024037D01*
X209626746Y-124989211D01*
X209631803Y-124984798D01*
X209680272Y-124929160D01*
X209708459Y-124865333D01*
X209717752Y-124790282D01*
X209710520Y-124718693D01*
X209685796Y-124655645D01*
X209641249Y-124597758D01*
X209586319Y-124550808D01*
X209513894Y-124510961D01*
X209427340Y-124483263D01*
X209324670Y-124467096D01*
X209203894Y-124461842D01*
X209195007Y-124461857D01*
X209139660Y-124462655D01*
X209092736Y-124464488D01*
X209058953Y-124467111D01*
X209043028Y-124470274D01*
X209038943Y-124476741D01*
X209034572Y-124498875D01*
X209031604Y-124537988D01*
X209029914Y-124595939D01*
X209029378Y-124674586D01*
X208228595Y-124674586D01*
X208228975Y-124629778D01*
X208230228Y-124487012D01*
X208231651Y-124341942D01*
X208233176Y-124216027D01*
X208234933Y-124107436D01*
X208237051Y-124014334D01*
X208239660Y-123934891D01*
X208242890Y-123867273D01*
X208246869Y-123809649D01*
X208251728Y-123760185D01*
X208257597Y-123717050D01*
X208264604Y-123678410D01*
X208272880Y-123642434D01*
X208282554Y-123607289D01*
X208293756Y-123571142D01*
X208306616Y-123532161D01*
X208322090Y-123489091D01*
X208364994Y-123396871D01*
X208418735Y-123317099D01*
X208487576Y-123242965D01*
X208565185Y-123179405D01*
X208669761Y-123117725D01*
X208789244Y-123070202D01*
X208924508Y-123036567D01*
X209076426Y-123016552D01*
X209245872Y-123009889D01*
X209303890Y-123010287D01*
X209369398Y-123012335D01*
X209430693Y-123016704D01*
X209492097Y-123024035D01*
X209557932Y-123034969D01*
X209632520Y-123050147D01*
X209720184Y-123070209D01*
X209825245Y-123095797D01*
X209853806Y-123102820D01*
X209929054Y-123120776D01*
X209999388Y-123136820D01*
X210060567Y-123150028D01*
X210108354Y-123159474D01*
X210138511Y-123164231D01*
X210166783Y-123167910D01*
X210193060Y-123173187D01*
X210203059Y-123177942D01*
X210199952Y-123186781D01*
X210189194Y-123214072D01*
X210171864Y-123256906D01*
X210149126Y-123312425D01*
X210122147Y-123377772D01*
X210092090Y-123450089D01*
X210085493Y-123465879D01*
X210046907Y-123556484D01*
X210015768Y-123626217D01*
X209991917Y-123675405D01*
X209975198Y-123704374D01*
X209965454Y-123713452D01*
X209957766Y-123711405D01*
X209931415Y-123701760D01*
X209892982Y-123686190D01*
X209847822Y-123666815D01*
X209753293Y-123628814D01*
X209616480Y-123587780D01*
X209475289Y-123562612D01*
X209437314Y-123558611D01*
X209334059Y-123556447D01*
X209246952Y-123569622D01*
X209175129Y-123598756D01*
X209117731Y-123644466D01*
X209073896Y-123707372D01*
X209042762Y-123788092D01*
X209023470Y-123887245D01*
X209016050Y-123946224D01*
X209177936Y-123939445D01*
X209304495Y-123937813D01*
X209455951Y-123944194D01*
X209604396Y-123958777D01*
X209740578Y-123980882D01*
X209805245Y-123995821D01*
X209937490Y-124038741D01*
X210059762Y-124095340D01*
X210169685Y-124164017D01*
X210264883Y-124243170D01*
X210342980Y-124331196D01*
X210401599Y-124426493D01*
X210425595Y-124478864D01*
X210451232Y-124549590D01*
X210467478Y-124620812D01*
X210475822Y-124699712D01*
X210477690Y-124790282D01*
X210477755Y-124793467D01*
G36*
X210477755Y-124793467D02*
G01*
X210477261Y-124827363D01*
X210473632Y-124902202D01*
X210466022Y-124964401D01*
X210453688Y-125020984D01*
X210409313Y-125147076D01*
X210346400Y-125261679D01*
X210266238Y-125362568D01*
X210169740Y-125448924D01*
X210057822Y-125519932D01*
X209931397Y-125574776D01*
X209791378Y-125612638D01*
X209755149Y-125618351D01*
X209676155Y-125624313D01*
X209587841Y-125624646D01*
X209498075Y-125619659D01*
X209414722Y-125609666D01*
X209345651Y-125594978D01*
X209259187Y-125564749D01*
X209149286Y-125510057D01*
X209051956Y-125442543D01*
X208989867Y-125391556D01*
X208986605Y-125487622D01*
X208983343Y-125583689D01*
X208560450Y-125583689D01*
X208549543Y-125583686D01*
X208455056Y-125583380D01*
X208368331Y-125582616D01*
X208291837Y-125581451D01*
X208228043Y-125579942D01*
X208179418Y-125578147D01*
X208148433Y-125576121D01*
X208137556Y-125573922D01*
X208137578Y-125573463D01*
X208144614Y-125557910D01*
X208160434Y-125535071D01*
X208164734Y-125529638D01*
X208175777Y-125515606D01*
X208185311Y-125502186D01*
X208193461Y-125487722D01*
X208200352Y-125470556D01*
X208206111Y-125449034D01*
X208210862Y-125421498D01*
X208214731Y-125386292D01*
X208217844Y-125341760D01*
X208220325Y-125286246D01*
X208222300Y-125218093D01*
X208223894Y-125135645D01*
X208225234Y-125037246D01*
X208226444Y-124921239D01*
X208227649Y-124785968D01*
X208228595Y-124674586D01*
X209029378Y-124674586D01*
X209029378Y-124870462D01*
X209074048Y-124926973D01*
X209086785Y-124942212D01*
X209133604Y-124984844D01*
X209194255Y-125020672D01*
X209204897Y-125025850D01*
X209243676Y-125042745D01*
X209278692Y-125052909D01*
X209318722Y-125058325D01*
X209372541Y-125060978D01*
X209390648Y-125061383D01*
X209466011Y-125058540D01*
X209526743Y-125046620D01*
X209578452Y-125024037D01*
X209626746Y-124989211D01*
X209631803Y-124984798D01*
X209680272Y-124929160D01*
X209708459Y-124865333D01*
X209717752Y-124790282D01*
X209710520Y-124718693D01*
X209685796Y-124655645D01*
X209641249Y-124597758D01*
X209586319Y-124550808D01*
X209513894Y-124510961D01*
X209427340Y-124483263D01*
X209324670Y-124467096D01*
X209203894Y-124461842D01*
X209195007Y-124461857D01*
X209139660Y-124462655D01*
X209092736Y-124464488D01*
X209058953Y-124467111D01*
X209043028Y-124470274D01*
X209038943Y-124476741D01*
X209034572Y-124498875D01*
X209031604Y-124537988D01*
X209029914Y-124595939D01*
X209029378Y-124674586D01*
X208228595Y-124674586D01*
X208228975Y-124629778D01*
X208230228Y-124487012D01*
X208231651Y-124341942D01*
X208233176Y-124216027D01*
X208234933Y-124107436D01*
X208237051Y-124014334D01*
X208239660Y-123934891D01*
X208242890Y-123867273D01*
X208246869Y-123809649D01*
X208251728Y-123760185D01*
X208257597Y-123717050D01*
X208264604Y-123678410D01*
X208272880Y-123642434D01*
X208282554Y-123607289D01*
X208293756Y-123571142D01*
X208306616Y-123532161D01*
X208322090Y-123489091D01*
X208364994Y-123396871D01*
X208418735Y-123317099D01*
X208487576Y-123242965D01*
X208565185Y-123179405D01*
X208669761Y-123117725D01*
X208789244Y-123070202D01*
X208924508Y-123036567D01*
X209076426Y-123016552D01*
X209245872Y-123009889D01*
X209303890Y-123010287D01*
X209369398Y-123012335D01*
X209430693Y-123016704D01*
X209492097Y-123024035D01*
X209557932Y-123034969D01*
X209632520Y-123050147D01*
X209720184Y-123070209D01*
X209825245Y-123095797D01*
X209853806Y-123102820D01*
X209929054Y-123120776D01*
X209999388Y-123136820D01*
X210060567Y-123150028D01*
X210108354Y-123159474D01*
X210138511Y-123164231D01*
X210166783Y-123167910D01*
X210193060Y-123173187D01*
X210203059Y-123177942D01*
X210199952Y-123186781D01*
X210189194Y-123214072D01*
X210171864Y-123256906D01*
X210149126Y-123312425D01*
X210122147Y-123377772D01*
X210092090Y-123450089D01*
X210085493Y-123465879D01*
X210046907Y-123556484D01*
X210015768Y-123626217D01*
X209991917Y-123675405D01*
X209975198Y-123704374D01*
X209965454Y-123713452D01*
X209957766Y-123711405D01*
X209931415Y-123701760D01*
X209892982Y-123686190D01*
X209847822Y-123666815D01*
X209753293Y-123628814D01*
X209616480Y-123587780D01*
X209475289Y-123562612D01*
X209437314Y-123558611D01*
X209334059Y-123556447D01*
X209246952Y-123569622D01*
X209175129Y-123598756D01*
X209117731Y-123644466D01*
X209073896Y-123707372D01*
X209042762Y-123788092D01*
X209023470Y-123887245D01*
X209016050Y-123946224D01*
X209177936Y-123939445D01*
X209304495Y-123937813D01*
X209455951Y-123944194D01*
X209604396Y-123958777D01*
X209740578Y-123980882D01*
X209805245Y-123995821D01*
X209937490Y-124038741D01*
X210059762Y-124095340D01*
X210169685Y-124164017D01*
X210264883Y-124243170D01*
X210342980Y-124331196D01*
X210401599Y-124426493D01*
X210425595Y-124478864D01*
X210451232Y-124549590D01*
X210467478Y-124620812D01*
X210475822Y-124699712D01*
X210477690Y-124790282D01*
X210477755Y-124793467D01*
G37*
X218025614Y-122261792D02*
X218026059Y-122393011D01*
X218026362Y-122540216D01*
X218026548Y-122704349D01*
X218026642Y-122886352D01*
X218026671Y-123087165D01*
X218026661Y-123307732D01*
X218026636Y-123548992D01*
X218026622Y-123811889D01*
X218026622Y-123854040D01*
X218026646Y-124114668D01*
X218026685Y-124353796D01*
X218026708Y-124572360D01*
X218026687Y-124771295D01*
X218026593Y-124951535D01*
X218026395Y-125114015D01*
X218026063Y-125259670D01*
X218025569Y-125389434D01*
X218024883Y-125504243D01*
X218023976Y-125605030D01*
X218022817Y-125692730D01*
X218021378Y-125768279D01*
X218019629Y-125832611D01*
X218017540Y-125886661D01*
X218015083Y-125931363D01*
X218012227Y-125967652D01*
X218008943Y-125996463D01*
X218005202Y-126018731D01*
X218000974Y-126035390D01*
X217996229Y-126047375D01*
X217990939Y-126055621D01*
X217985073Y-126061062D01*
X217978602Y-126064634D01*
X217971497Y-126067270D01*
X217963728Y-126069906D01*
X217955266Y-126073477D01*
X217950908Y-126075145D01*
X217942395Y-126077111D01*
X217929694Y-126078911D01*
X217911885Y-126080555D01*
X217888049Y-126082047D01*
X217857266Y-126083397D01*
X217818617Y-126084611D01*
X217771182Y-126085697D01*
X217714043Y-126086661D01*
X217646279Y-126087511D01*
X217566971Y-126088253D01*
X217475199Y-126088897D01*
X217370044Y-126089447D01*
X217250587Y-126089913D01*
X217115908Y-126090300D01*
X216965088Y-126090616D01*
X216797206Y-126090869D01*
X216611345Y-126091066D01*
X216406583Y-126091213D01*
X216182002Y-126091318D01*
X215936682Y-126091389D01*
X215669704Y-126091432D01*
X215631321Y-126091437D01*
X215365922Y-126091480D01*
X215122050Y-126091525D01*
X214898783Y-126091548D01*
X214695196Y-126091524D01*
X214510367Y-126091430D01*
X214343373Y-126091243D01*
X214193290Y-126090939D01*
X214059196Y-126090494D01*
X213940166Y-126089885D01*
X213835279Y-126089089D01*
X213743610Y-126088080D01*
X213664237Y-126086837D01*
X213596237Y-126085335D01*
X213538686Y-126083551D01*
X213490662Y-126081461D01*
X213451240Y-126079042D01*
X213419499Y-126076270D01*
X213394514Y-126073121D01*
X213375364Y-126069572D01*
X213361123Y-126065598D01*
X213350871Y-126061178D01*
X213343682Y-126056286D01*
X213338635Y-126050900D01*
X213334805Y-126044996D01*
X213331271Y-126038549D01*
X213327108Y-126031537D01*
X213326025Y-126029687D01*
X213323813Y-126024180D01*
X213321786Y-126015868D01*
X213319938Y-126003809D01*
X213318261Y-125987063D01*
X213316745Y-125964687D01*
X213315383Y-125935740D01*
X213314167Y-125899280D01*
X213313089Y-125854367D01*
X213312140Y-125800057D01*
X213311312Y-125735410D01*
X213310597Y-125659484D01*
X213309987Y-125571338D01*
X213309942Y-125562493D01*
X213601378Y-125562493D01*
X213605260Y-125563765D01*
X213628520Y-125565791D01*
X213670874Y-125567626D01*
X213730132Y-125569227D01*
X213804107Y-125570549D01*
X213890610Y-125571548D01*
X213987452Y-125572180D01*
X214092445Y-125572400D01*
X214790651Y-125572400D01*
X215945090Y-125572400D01*
X215944456Y-125496200D01*
X215945574Y-125454160D01*
X215951304Y-125418334D01*
X215963890Y-125380772D01*
X215985568Y-125332577D01*
X215988789Y-125325897D01*
X216014188Y-125276359D01*
X216040996Y-125228369D01*
X216063917Y-125191466D01*
X216068485Y-125184834D01*
X216090516Y-125153593D01*
X216122693Y-125108654D01*
X216163457Y-125052147D01*
X216211245Y-124986204D01*
X216264498Y-124912957D01*
X216321655Y-124834536D01*
X216381155Y-124753072D01*
X216441437Y-124670698D01*
X216500940Y-124589544D01*
X216558105Y-124511742D01*
X216611370Y-124439423D01*
X216659174Y-124374718D01*
X216699957Y-124319759D01*
X216732158Y-124276676D01*
X216754216Y-124247602D01*
X216764571Y-124234667D01*
X216769044Y-124230351D01*
X216773236Y-124228312D01*
X216776643Y-124230926D01*
X216779325Y-124239986D01*
X216781341Y-124257285D01*
X216782748Y-124284614D01*
X216783605Y-124323765D01*
X216783970Y-124376533D01*
X216783903Y-124444707D01*
X216783460Y-124530082D01*
X216782702Y-124634449D01*
X216781685Y-124759600D01*
X216781308Y-124804300D01*
X216780169Y-124925395D01*
X216778972Y-125026688D01*
X216777636Y-125110262D01*
X216776077Y-125178204D01*
X216774215Y-125232599D01*
X216771966Y-125275532D01*
X216769248Y-125309089D01*
X216765979Y-125335355D01*
X216762078Y-125356416D01*
X216757461Y-125374357D01*
X216749192Y-125400770D01*
X216725583Y-125462772D01*
X216699685Y-125515573D01*
X216674535Y-125552645D01*
X216673339Y-125554075D01*
X216671168Y-125558424D01*
X216673328Y-125562026D01*
X216681644Y-125564951D01*
X216697940Y-125567269D01*
X216724041Y-125569051D01*
X216761771Y-125570367D01*
X216812956Y-125571286D01*
X216879420Y-125571878D01*
X216962987Y-125572215D01*
X217065483Y-125572365D01*
X217188732Y-125572400D01*
X217720296Y-125572400D01*
X217681523Y-125514783D01*
X217675432Y-125505893D01*
X217664976Y-125491069D01*
X217655579Y-125477422D01*
X217647183Y-125463765D01*
X217639733Y-125448911D01*
X217633173Y-125431670D01*
X217627446Y-125410855D01*
X217622495Y-125385280D01*
X217618266Y-125353755D01*
X217614701Y-125315093D01*
X217611744Y-125268107D01*
X217609340Y-125211608D01*
X217607431Y-125144409D01*
X217605962Y-125065322D01*
X217604876Y-124973160D01*
X217604118Y-124866734D01*
X217603630Y-124744857D01*
X217603358Y-124606341D01*
X217603243Y-124449999D01*
X217603231Y-124274642D01*
X217603265Y-124079082D01*
X217603289Y-123862133D01*
X217603280Y-123739513D01*
X217603243Y-123534447D01*
X217603227Y-123350116D01*
X217603288Y-123185334D01*
X217603484Y-123038916D01*
X217603870Y-122909674D01*
X217604505Y-122796422D01*
X217605444Y-122697975D01*
X217606745Y-122613144D01*
X217608464Y-122540744D01*
X217610659Y-122479589D01*
X217613385Y-122428492D01*
X217616701Y-122386267D01*
X217620662Y-122351727D01*
X217625325Y-122323686D01*
X217630747Y-122300958D01*
X217636986Y-122282356D01*
X217644097Y-122266693D01*
X217652138Y-122252784D01*
X217661166Y-122239441D01*
X217671236Y-122225479D01*
X217682407Y-122209711D01*
X217722197Y-122151867D01*
X216662314Y-122151867D01*
X216700311Y-122214966D01*
X216714993Y-122240005D01*
X216729531Y-122267586D01*
X216741627Y-122295700D01*
X216751532Y-122326551D01*
X216759494Y-122362344D01*
X216765761Y-122405283D01*
X216770582Y-122457574D01*
X216774206Y-122521419D01*
X216776881Y-122599025D01*
X216778857Y-122692594D01*
X216780382Y-122804333D01*
X216781704Y-122936445D01*
X216782613Y-123056434D01*
X216783020Y-123173063D01*
X216782767Y-123268531D01*
X216781857Y-123342556D01*
X216780293Y-123394855D01*
X216778079Y-123425149D01*
X216775220Y-123433156D01*
X216772161Y-123429858D01*
X216754006Y-123408408D01*
X216724275Y-123371889D01*
X216684639Y-123322442D01*
X216636771Y-123262207D01*
X216582343Y-123193327D01*
X216523027Y-123117943D01*
X216460495Y-123038196D01*
X216396421Y-122956228D01*
X216332475Y-122874180D01*
X216270331Y-122794194D01*
X216211661Y-122718411D01*
X216158137Y-122648973D01*
X216111430Y-122588021D01*
X216073214Y-122537696D01*
X216045161Y-122500140D01*
X216028943Y-122477495D01*
X215983635Y-122405212D01*
X215943661Y-122325463D01*
X215922130Y-122257188D01*
X215918827Y-122199844D01*
X215924116Y-122151867D01*
X214792356Y-122152117D01*
X214831867Y-122182722D01*
X214841248Y-122190089D01*
X214904183Y-122244438D01*
X214972997Y-122312259D01*
X215049596Y-122395516D01*
X215135888Y-122496178D01*
X215153052Y-122516847D01*
X215193833Y-122566409D01*
X215243588Y-122627326D01*
X215300955Y-122697898D01*
X215364569Y-122776424D01*
X215433069Y-122861204D01*
X215505090Y-122950537D01*
X215579270Y-123042722D01*
X215594517Y-123061702D01*
X215654246Y-123136060D01*
X215728653Y-123228848D01*
X215801131Y-123319388D01*
X215870314Y-123405978D01*
X215934841Y-123486918D01*
X215993347Y-123560506D01*
X216044470Y-123625044D01*
X216086847Y-123678829D01*
X216119115Y-123720162D01*
X216139910Y-123747342D01*
X216147869Y-123758668D01*
X216146111Y-123762771D01*
X216133230Y-123783334D01*
X216108885Y-123819561D01*
X216074247Y-123869824D01*
X216030486Y-123932492D01*
X215978775Y-124005936D01*
X215920284Y-124088527D01*
X215856184Y-124178636D01*
X215787646Y-124274631D01*
X215715843Y-124374885D01*
X215641944Y-124477768D01*
X215567121Y-124581650D01*
X215492545Y-124684901D01*
X215419387Y-124785892D01*
X215348819Y-124882994D01*
X215282011Y-124974577D01*
X215220135Y-125059011D01*
X215164361Y-125134667D01*
X215115862Y-125199916D01*
X215075807Y-125253128D01*
X215045369Y-125292673D01*
X215024944Y-125318026D01*
X214978899Y-125372295D01*
X214928612Y-125428775D01*
X214881815Y-125478669D01*
X214790651Y-125572400D01*
X214092445Y-125572400D01*
X214161356Y-125572349D01*
X214259607Y-125572091D01*
X214349030Y-125571637D01*
X214427333Y-125571010D01*
X214492223Y-125570235D01*
X214541411Y-125569335D01*
X214572604Y-125568334D01*
X214583511Y-125567257D01*
X214582322Y-125564037D01*
X214572176Y-125546452D01*
X214555040Y-125520158D01*
X214546540Y-125507691D01*
X214537329Y-125493622D01*
X214529233Y-125479351D01*
X214522185Y-125463479D01*
X214516117Y-125444609D01*
X214510961Y-125421341D01*
X214506651Y-125392278D01*
X214503119Y-125356021D01*
X214500297Y-125311170D01*
X214498118Y-125256328D01*
X214496514Y-125190097D01*
X214495419Y-125111077D01*
X214494765Y-125017871D01*
X214494484Y-124909079D01*
X214494509Y-124783303D01*
X214494772Y-124639145D01*
X214495206Y-124475207D01*
X214495745Y-124290089D01*
X214496279Y-124111232D01*
X214496805Y-123952374D01*
X214497350Y-123813316D01*
X214497945Y-123692665D01*
X214498619Y-123589028D01*
X214499403Y-123501011D01*
X214500326Y-123427223D01*
X214501419Y-123366269D01*
X214502712Y-123316757D01*
X214504235Y-123277293D01*
X214506019Y-123246484D01*
X214508092Y-123222938D01*
X214510486Y-123205260D01*
X214513230Y-123192059D01*
X214516356Y-123181940D01*
X214519892Y-123173511D01*
X214523791Y-123165375D01*
X214543438Y-123128544D01*
X214562225Y-123098391D01*
X214563272Y-123096908D01*
X214577602Y-123074659D01*
X214583511Y-123061702D01*
X214582504Y-123061249D01*
X214565305Y-123059803D01*
X214528656Y-123058480D01*
X214474962Y-123057316D01*
X214406630Y-123056347D01*
X214326064Y-123055611D01*
X214235670Y-123055142D01*
X214137853Y-123054978D01*
X213692195Y-123054978D01*
X213689120Y-124231845D01*
X213686045Y-125408711D01*
X213659407Y-125467622D01*
X213647485Y-125492183D01*
X213630246Y-125522434D01*
X213617074Y-125539560D01*
X213609076Y-125547591D01*
X213601378Y-125562493D01*
X213309942Y-125562493D01*
X213309474Y-125470029D01*
X213309050Y-125354617D01*
X213308706Y-125224160D01*
X213308434Y-125077716D01*
X213308227Y-124914344D01*
X213308076Y-124733101D01*
X213307972Y-124533048D01*
X213307908Y-124313241D01*
X213307876Y-124072739D01*
X213307867Y-123810602D01*
X213307867Y-121619031D01*
X213346249Y-121580649D01*
X213373355Y-121556911D01*
X213400253Y-121545111D01*
X213436560Y-121542267D01*
X213488489Y-121542267D01*
X213488489Y-121630206D01*
X213490427Y-121680102D01*
X213509199Y-121790523D01*
X213546217Y-121891987D01*
X213599369Y-121983152D01*
X213666546Y-122062673D01*
X213745638Y-122129205D01*
X213834534Y-122181406D01*
X213931125Y-122217930D01*
X214033300Y-122237434D01*
X214138950Y-122238573D01*
X214245964Y-122220005D01*
X214352232Y-122180384D01*
X214449219Y-122122516D01*
X214534293Y-122047684D01*
X214603015Y-121959615D01*
X214653918Y-121860616D01*
X214685535Y-121752993D01*
X214696400Y-121639054D01*
X214696400Y-121542267D01*
X216316753Y-121542267D01*
X216527897Y-121542280D01*
X216732020Y-121542330D01*
X216915686Y-121542430D01*
X217079991Y-121542592D01*
X217226029Y-121542829D01*
X217354894Y-121543153D01*
X217467683Y-121543575D01*
X217565488Y-121544109D01*
X217649404Y-121544767D01*
X217720527Y-121545561D01*
X217779950Y-121546504D01*
X217828768Y-121547608D01*
X217868077Y-121548884D01*
X217898969Y-121550347D01*
X217922541Y-121552007D01*
X217939886Y-121553878D01*
X217952099Y-121555972D01*
X217960275Y-121558300D01*
X217965508Y-121560876D01*
X217971504Y-121564445D01*
X217978279Y-121567978D01*
X217984478Y-121571488D01*
X217990126Y-121575918D01*
X217995247Y-121582208D01*
X217999869Y-121591301D01*
X218004015Y-121604139D01*
X218007713Y-121621662D01*
X218010987Y-121644813D01*
X218013863Y-121674534D01*
X218016367Y-121711765D01*
X218018524Y-121757449D01*
X218020360Y-121812527D01*
X218021900Y-121877941D01*
X218023170Y-121954633D01*
X218024195Y-122043544D01*
X218025001Y-122145617D01*
X218025034Y-122151867D01*
X218025614Y-122261792D01*
G36*
X218025614Y-122261792D02*
G01*
X218026059Y-122393011D01*
X218026362Y-122540216D01*
X218026548Y-122704349D01*
X218026642Y-122886352D01*
X218026671Y-123087165D01*
X218026661Y-123307732D01*
X218026636Y-123548992D01*
X218026622Y-123811889D01*
X218026622Y-123854040D01*
X218026646Y-124114668D01*
X218026685Y-124353796D01*
X218026708Y-124572360D01*
X218026687Y-124771295D01*
X218026593Y-124951535D01*
X218026395Y-125114015D01*
X218026063Y-125259670D01*
X218025569Y-125389434D01*
X218024883Y-125504243D01*
X218023976Y-125605030D01*
X218022817Y-125692730D01*
X218021378Y-125768279D01*
X218019629Y-125832611D01*
X218017540Y-125886661D01*
X218015083Y-125931363D01*
X218012227Y-125967652D01*
X218008943Y-125996463D01*
X218005202Y-126018731D01*
X218000974Y-126035390D01*
X217996229Y-126047375D01*
X217990939Y-126055621D01*
X217985073Y-126061062D01*
X217978602Y-126064634D01*
X217971497Y-126067270D01*
X217963728Y-126069906D01*
X217955266Y-126073477D01*
X217950908Y-126075145D01*
X217942395Y-126077111D01*
X217929694Y-126078911D01*
X217911885Y-126080555D01*
X217888049Y-126082047D01*
X217857266Y-126083397D01*
X217818617Y-126084611D01*
X217771182Y-126085697D01*
X217714043Y-126086661D01*
X217646279Y-126087511D01*
X217566971Y-126088253D01*
X217475199Y-126088897D01*
X217370044Y-126089447D01*
X217250587Y-126089913D01*
X217115908Y-126090300D01*
X216965088Y-126090616D01*
X216797206Y-126090869D01*
X216611345Y-126091066D01*
X216406583Y-126091213D01*
X216182002Y-126091318D01*
X215936682Y-126091389D01*
X215669704Y-126091432D01*
X215631321Y-126091437D01*
X215365922Y-126091480D01*
X215122050Y-126091525D01*
X214898783Y-126091548D01*
X214695196Y-126091524D01*
X214510367Y-126091430D01*
X214343373Y-126091243D01*
X214193290Y-126090939D01*
X214059196Y-126090494D01*
X213940166Y-126089885D01*
X213835279Y-126089089D01*
X213743610Y-126088080D01*
X213664237Y-126086837D01*
X213596237Y-126085335D01*
X213538686Y-126083551D01*
X213490662Y-126081461D01*
X213451240Y-126079042D01*
X213419499Y-126076270D01*
X213394514Y-126073121D01*
X213375364Y-126069572D01*
X213361123Y-126065598D01*
X213350871Y-126061178D01*
X213343682Y-126056286D01*
X213338635Y-126050900D01*
X213334805Y-126044996D01*
X213331271Y-126038549D01*
X213327108Y-126031537D01*
X213326025Y-126029687D01*
X213323813Y-126024180D01*
X213321786Y-126015868D01*
X213319938Y-126003809D01*
X213318261Y-125987063D01*
X213316745Y-125964687D01*
X213315383Y-125935740D01*
X213314167Y-125899280D01*
X213313089Y-125854367D01*
X213312140Y-125800057D01*
X213311312Y-125735410D01*
X213310597Y-125659484D01*
X213309987Y-125571338D01*
X213309942Y-125562493D01*
X213601378Y-125562493D01*
X213605260Y-125563765D01*
X213628520Y-125565791D01*
X213670874Y-125567626D01*
X213730132Y-125569227D01*
X213804107Y-125570549D01*
X213890610Y-125571548D01*
X213987452Y-125572180D01*
X214092445Y-125572400D01*
X214790651Y-125572400D01*
X215945090Y-125572400D01*
X215944456Y-125496200D01*
X215945574Y-125454160D01*
X215951304Y-125418334D01*
X215963890Y-125380772D01*
X215985568Y-125332577D01*
X215988789Y-125325897D01*
X216014188Y-125276359D01*
X216040996Y-125228369D01*
X216063917Y-125191466D01*
X216068485Y-125184834D01*
X216090516Y-125153593D01*
X216122693Y-125108654D01*
X216163457Y-125052147D01*
X216211245Y-124986204D01*
X216264498Y-124912957D01*
X216321655Y-124834536D01*
X216381155Y-124753072D01*
X216441437Y-124670698D01*
X216500940Y-124589544D01*
X216558105Y-124511742D01*
X216611370Y-124439423D01*
X216659174Y-124374718D01*
X216699957Y-124319759D01*
X216732158Y-124276676D01*
X216754216Y-124247602D01*
X216764571Y-124234667D01*
X216769044Y-124230351D01*
X216773236Y-124228312D01*
X216776643Y-124230926D01*
X216779325Y-124239986D01*
X216781341Y-124257285D01*
X216782748Y-124284614D01*
X216783605Y-124323765D01*
X216783970Y-124376533D01*
X216783903Y-124444707D01*
X216783460Y-124530082D01*
X216782702Y-124634449D01*
X216781685Y-124759600D01*
X216781308Y-124804300D01*
X216780169Y-124925395D01*
X216778972Y-125026688D01*
X216777636Y-125110262D01*
X216776077Y-125178204D01*
X216774215Y-125232599D01*
X216771966Y-125275532D01*
X216769248Y-125309089D01*
X216765979Y-125335355D01*
X216762078Y-125356416D01*
X216757461Y-125374357D01*
X216749192Y-125400770D01*
X216725583Y-125462772D01*
X216699685Y-125515573D01*
X216674535Y-125552645D01*
X216673339Y-125554075D01*
X216671168Y-125558424D01*
X216673328Y-125562026D01*
X216681644Y-125564951D01*
X216697940Y-125567269D01*
X216724041Y-125569051D01*
X216761771Y-125570367D01*
X216812956Y-125571286D01*
X216879420Y-125571878D01*
X216962987Y-125572215D01*
X217065483Y-125572365D01*
X217188732Y-125572400D01*
X217720296Y-125572400D01*
X217681523Y-125514783D01*
X217675432Y-125505893D01*
X217664976Y-125491069D01*
X217655579Y-125477422D01*
X217647183Y-125463765D01*
X217639733Y-125448911D01*
X217633173Y-125431670D01*
X217627446Y-125410855D01*
X217622495Y-125385280D01*
X217618266Y-125353755D01*
X217614701Y-125315093D01*
X217611744Y-125268107D01*
X217609340Y-125211608D01*
X217607431Y-125144409D01*
X217605962Y-125065322D01*
X217604876Y-124973160D01*
X217604118Y-124866734D01*
X217603630Y-124744857D01*
X217603358Y-124606341D01*
X217603243Y-124449999D01*
X217603231Y-124274642D01*
X217603265Y-124079082D01*
X217603289Y-123862133D01*
X217603280Y-123739513D01*
X217603243Y-123534447D01*
X217603227Y-123350116D01*
X217603288Y-123185334D01*
X217603484Y-123038916D01*
X217603870Y-122909674D01*
X217604505Y-122796422D01*
X217605444Y-122697975D01*
X217606745Y-122613144D01*
X217608464Y-122540744D01*
X217610659Y-122479589D01*
X217613385Y-122428492D01*
X217616701Y-122386267D01*
X217620662Y-122351727D01*
X217625325Y-122323686D01*
X217630747Y-122300958D01*
X217636986Y-122282356D01*
X217644097Y-122266693D01*
X217652138Y-122252784D01*
X217661166Y-122239441D01*
X217671236Y-122225479D01*
X217682407Y-122209711D01*
X217722197Y-122151867D01*
X216662314Y-122151867D01*
X216700311Y-122214966D01*
X216714993Y-122240005D01*
X216729531Y-122267586D01*
X216741627Y-122295700D01*
X216751532Y-122326551D01*
X216759494Y-122362344D01*
X216765761Y-122405283D01*
X216770582Y-122457574D01*
X216774206Y-122521419D01*
X216776881Y-122599025D01*
X216778857Y-122692594D01*
X216780382Y-122804333D01*
X216781704Y-122936445D01*
X216782613Y-123056434D01*
X216783020Y-123173063D01*
X216782767Y-123268531D01*
X216781857Y-123342556D01*
X216780293Y-123394855D01*
X216778079Y-123425149D01*
X216775220Y-123433156D01*
X216772161Y-123429858D01*
X216754006Y-123408408D01*
X216724275Y-123371889D01*
X216684639Y-123322442D01*
X216636771Y-123262207D01*
X216582343Y-123193327D01*
X216523027Y-123117943D01*
X216460495Y-123038196D01*
X216396421Y-122956228D01*
X216332475Y-122874180D01*
X216270331Y-122794194D01*
X216211661Y-122718411D01*
X216158137Y-122648973D01*
X216111430Y-122588021D01*
X216073214Y-122537696D01*
X216045161Y-122500140D01*
X216028943Y-122477495D01*
X215983635Y-122405212D01*
X215943661Y-122325463D01*
X215922130Y-122257188D01*
X215918827Y-122199844D01*
X215924116Y-122151867D01*
X214792356Y-122152117D01*
X214831867Y-122182722D01*
X214841248Y-122190089D01*
X214904183Y-122244438D01*
X214972997Y-122312259D01*
X215049596Y-122395516D01*
X215135888Y-122496178D01*
X215153052Y-122516847D01*
X215193833Y-122566409D01*
X215243588Y-122627326D01*
X215300955Y-122697898D01*
X215364569Y-122776424D01*
X215433069Y-122861204D01*
X215505090Y-122950537D01*
X215579270Y-123042722D01*
X215594517Y-123061702D01*
X215654246Y-123136060D01*
X215728653Y-123228848D01*
X215801131Y-123319388D01*
X215870314Y-123405978D01*
X215934841Y-123486918D01*
X215993347Y-123560506D01*
X216044470Y-123625044D01*
X216086847Y-123678829D01*
X216119115Y-123720162D01*
X216139910Y-123747342D01*
X216147869Y-123758668D01*
X216146111Y-123762771D01*
X216133230Y-123783334D01*
X216108885Y-123819561D01*
X216074247Y-123869824D01*
X216030486Y-123932492D01*
X215978775Y-124005936D01*
X215920284Y-124088527D01*
X215856184Y-124178636D01*
X215787646Y-124274631D01*
X215715843Y-124374885D01*
X215641944Y-124477768D01*
X215567121Y-124581650D01*
X215492545Y-124684901D01*
X215419387Y-124785892D01*
X215348819Y-124882994D01*
X215282011Y-124974577D01*
X215220135Y-125059011D01*
X215164361Y-125134667D01*
X215115862Y-125199916D01*
X215075807Y-125253128D01*
X215045369Y-125292673D01*
X215024944Y-125318026D01*
X214978899Y-125372295D01*
X214928612Y-125428775D01*
X214881815Y-125478669D01*
X214790651Y-125572400D01*
X214092445Y-125572400D01*
X214161356Y-125572349D01*
X214259607Y-125572091D01*
X214349030Y-125571637D01*
X214427333Y-125571010D01*
X214492223Y-125570235D01*
X214541411Y-125569335D01*
X214572604Y-125568334D01*
X214583511Y-125567257D01*
X214582322Y-125564037D01*
X214572176Y-125546452D01*
X214555040Y-125520158D01*
X214546540Y-125507691D01*
X214537329Y-125493622D01*
X214529233Y-125479351D01*
X214522185Y-125463479D01*
X214516117Y-125444609D01*
X214510961Y-125421341D01*
X214506651Y-125392278D01*
X214503119Y-125356021D01*
X214500297Y-125311170D01*
X214498118Y-125256328D01*
X214496514Y-125190097D01*
X214495419Y-125111077D01*
X214494765Y-125017871D01*
X214494484Y-124909079D01*
X214494509Y-124783303D01*
X214494772Y-124639145D01*
X214495206Y-124475207D01*
X214495745Y-124290089D01*
X214496279Y-124111232D01*
X214496805Y-123952374D01*
X214497350Y-123813316D01*
X214497945Y-123692665D01*
X214498619Y-123589028D01*
X214499403Y-123501011D01*
X214500326Y-123427223D01*
X214501419Y-123366269D01*
X214502712Y-123316757D01*
X214504235Y-123277293D01*
X214506019Y-123246484D01*
X214508092Y-123222938D01*
X214510486Y-123205260D01*
X214513230Y-123192059D01*
X214516356Y-123181940D01*
X214519892Y-123173511D01*
X214523791Y-123165375D01*
X214543438Y-123128544D01*
X214562225Y-123098391D01*
X214563272Y-123096908D01*
X214577602Y-123074659D01*
X214583511Y-123061702D01*
X214582504Y-123061249D01*
X214565305Y-123059803D01*
X214528656Y-123058480D01*
X214474962Y-123057316D01*
X214406630Y-123056347D01*
X214326064Y-123055611D01*
X214235670Y-123055142D01*
X214137853Y-123054978D01*
X213692195Y-123054978D01*
X213689120Y-124231845D01*
X213686045Y-125408711D01*
X213659407Y-125467622D01*
X213647485Y-125492183D01*
X213630246Y-125522434D01*
X213617074Y-125539560D01*
X213609076Y-125547591D01*
X213601378Y-125562493D01*
X213309942Y-125562493D01*
X213309474Y-125470029D01*
X213309050Y-125354617D01*
X213308706Y-125224160D01*
X213308434Y-125077716D01*
X213308227Y-124914344D01*
X213308076Y-124733101D01*
X213307972Y-124533048D01*
X213307908Y-124313241D01*
X213307876Y-124072739D01*
X213307867Y-123810602D01*
X213307867Y-121619031D01*
X213346249Y-121580649D01*
X213373355Y-121556911D01*
X213400253Y-121545111D01*
X213436560Y-121542267D01*
X213488489Y-121542267D01*
X213488489Y-121630206D01*
X213490427Y-121680102D01*
X213509199Y-121790523D01*
X213546217Y-121891987D01*
X213599369Y-121983152D01*
X213666546Y-122062673D01*
X213745638Y-122129205D01*
X213834534Y-122181406D01*
X213931125Y-122217930D01*
X214033300Y-122237434D01*
X214138950Y-122238573D01*
X214245964Y-122220005D01*
X214352232Y-122180384D01*
X214449219Y-122122516D01*
X214534293Y-122047684D01*
X214603015Y-121959615D01*
X214653918Y-121860616D01*
X214685535Y-121752993D01*
X214696400Y-121639054D01*
X214696400Y-121542267D01*
X216316753Y-121542267D01*
X216527897Y-121542280D01*
X216732020Y-121542330D01*
X216915686Y-121542430D01*
X217079991Y-121542592D01*
X217226029Y-121542829D01*
X217354894Y-121543153D01*
X217467683Y-121543575D01*
X217565488Y-121544109D01*
X217649404Y-121544767D01*
X217720527Y-121545561D01*
X217779950Y-121546504D01*
X217828768Y-121547608D01*
X217868077Y-121548884D01*
X217898969Y-121550347D01*
X217922541Y-121552007D01*
X217939886Y-121553878D01*
X217952099Y-121555972D01*
X217960275Y-121558300D01*
X217965508Y-121560876D01*
X217971504Y-121564445D01*
X217978279Y-121567978D01*
X217984478Y-121571488D01*
X217990126Y-121575918D01*
X217995247Y-121582208D01*
X217999869Y-121591301D01*
X218004015Y-121604139D01*
X218007713Y-121621662D01*
X218010987Y-121644813D01*
X218013863Y-121674534D01*
X218016367Y-121711765D01*
X218018524Y-121757449D01*
X218020360Y-121812527D01*
X218021900Y-121877941D01*
X218023170Y-121954633D01*
X218024195Y-122043544D01*
X218025001Y-122145617D01*
X218025034Y-122151867D01*
X218025614Y-122261792D01*
G37*
D14*
%TO.C,J6*%
X166780000Y-99530000D02*
X166780000Y-97820000D01*
X166780000Y-103330000D02*
X166780000Y-105040000D01*
X166780000Y-105040000D02*
X170398000Y-105040000D01*
X170398000Y-97820000D02*
X166780000Y-97820000D01*
X173242700Y-109540000D02*
X188937300Y-109540000D01*
X177230000Y-93320000D02*
X173242700Y-93320000D01*
X179430000Y-95520000D02*
X177230000Y-93320000D01*
X182750000Y-95520000D02*
X179430000Y-95520000D01*
X182750000Y-95520000D02*
X184950000Y-93320000D01*
X188937300Y-93320000D02*
X184950000Y-93320000D01*
X191782000Y-105040000D02*
X195400000Y-105040000D01*
X195400000Y-97820000D02*
X191782000Y-97820000D01*
X195400000Y-99530000D02*
X195400000Y-97820000D01*
X195400000Y-103330000D02*
X195400000Y-105040000D01*
X170398000Y-97820000D02*
G75*
G02*
X173244629Y-93318211I10691979J-3609986D01*
G01*
X173244629Y-109541789D02*
G75*
G02*
X170398001Y-105040000I7845391J8111799D01*
G01*
X188935371Y-93318211D02*
G75*
G02*
X191782000Y-97820000I-7845391J-8111801D01*
G01*
X191782000Y-105040000D02*
G75*
G02*
X188935371Y-109541789I-10692020J3610012D01*
G01*
%TD*%
M02*
