%TF.GenerationSoftware,KiCad,Pcbnew,9.0.6*%
%TF.CreationDate,2026-04-25T17:02:50+05:30*%
%TF.ProjectId,TIME_BASED_RELAY,54494d45-5f42-4415-9345-445f52454c41,rev?*%
%TF.SameCoordinates,Original*%
%TF.FileFunction,Drillmap*%
%TF.FilePolarity,Positive*%
%FSLAX45Y45*%
G04 Gerber Fmt 4.5, Leading zero omitted, Abs format (unit mm)*
G04 Created by KiCad (PCBNEW 9.0.6) date 2026-04-25 17:02:50*
%MOMM*%
%LPD*%
G01*
G04 APERTURE LIST*
%ADD10C,0.050000*%
%ADD11C,0.200000*%
G04 APERTURE END LIST*
D10*
X13735000Y-4953000D02*
X22206000Y-4953000D01*
X22606000Y-12381280D02*
G75*
G02*
X22206000Y-12781280I-400000J0D01*
G01*
X13335000Y-12381280D02*
X13335000Y-5353000D01*
X13735000Y-12781280D02*
G75*
G02*
X13335000Y-12381280I0J400000D01*
G01*
X22606000Y-5353000D02*
X22606000Y-12381280D01*
X22206000Y-4953000D02*
G75*
G02*
X22606000Y-5353000I0J-400000D01*
G01*
X13335000Y-5353000D02*
G75*
G02*
X13735000Y-4953000I400000J0D01*
G01*
X22206000Y-12781280D02*
X13735000Y-12781280D01*
D11*
X13593277Y-13095264D02*
X13593277Y-12895264D01*
X13593277Y-12895264D02*
X13640896Y-12895264D01*
X13640896Y-12895264D02*
X13669467Y-12904788D01*
X13669467Y-12904788D02*
X13688515Y-12923835D01*
X13688515Y-12923835D02*
X13698039Y-12942883D01*
X13698039Y-12942883D02*
X13707562Y-12980978D01*
X13707562Y-12980978D02*
X13707562Y-13009549D01*
X13707562Y-13009549D02*
X13698039Y-13047645D01*
X13698039Y-13047645D02*
X13688515Y-13066692D01*
X13688515Y-13066692D02*
X13669467Y-13085740D01*
X13669467Y-13085740D02*
X13640896Y-13095264D01*
X13640896Y-13095264D02*
X13593277Y-13095264D01*
X13793277Y-13095264D02*
X13793277Y-12961930D01*
X13793277Y-13000026D02*
X13802801Y-12980978D01*
X13802801Y-12980978D02*
X13812324Y-12971454D01*
X13812324Y-12971454D02*
X13831372Y-12961930D01*
X13831372Y-12961930D02*
X13850420Y-12961930D01*
X13917086Y-13095264D02*
X13917086Y-12961930D01*
X13917086Y-12895264D02*
X13907562Y-12904788D01*
X13907562Y-12904788D02*
X13917086Y-12914311D01*
X13917086Y-12914311D02*
X13926610Y-12904788D01*
X13926610Y-12904788D02*
X13917086Y-12895264D01*
X13917086Y-12895264D02*
X13917086Y-12914311D01*
X14040896Y-13095264D02*
X14021848Y-13085740D01*
X14021848Y-13085740D02*
X14012324Y-13066692D01*
X14012324Y-13066692D02*
X14012324Y-12895264D01*
X14145658Y-13095264D02*
X14126610Y-13085740D01*
X14126610Y-13085740D02*
X14117086Y-13066692D01*
X14117086Y-13066692D02*
X14117086Y-12895264D01*
X14374229Y-13095264D02*
X14374229Y-12895264D01*
X14374229Y-12895264D02*
X14440896Y-13038121D01*
X14440896Y-13038121D02*
X14507562Y-12895264D01*
X14507562Y-12895264D02*
X14507562Y-13095264D01*
X14688515Y-13095264D02*
X14688515Y-12990502D01*
X14688515Y-12990502D02*
X14678991Y-12971454D01*
X14678991Y-12971454D02*
X14659943Y-12961930D01*
X14659943Y-12961930D02*
X14621848Y-12961930D01*
X14621848Y-12961930D02*
X14602801Y-12971454D01*
X14688515Y-13085740D02*
X14669467Y-13095264D01*
X14669467Y-13095264D02*
X14621848Y-13095264D01*
X14621848Y-13095264D02*
X14602801Y-13085740D01*
X14602801Y-13085740D02*
X14593277Y-13066692D01*
X14593277Y-13066692D02*
X14593277Y-13047645D01*
X14593277Y-13047645D02*
X14602801Y-13028597D01*
X14602801Y-13028597D02*
X14621848Y-13019073D01*
X14621848Y-13019073D02*
X14669467Y-13019073D01*
X14669467Y-13019073D02*
X14688515Y-13009549D01*
X14783753Y-12961930D02*
X14783753Y-13161930D01*
X14783753Y-12971454D02*
X14802801Y-12961930D01*
X14802801Y-12961930D02*
X14840896Y-12961930D01*
X14840896Y-12961930D02*
X14859943Y-12971454D01*
X14859943Y-12971454D02*
X14869467Y-12980978D01*
X14869467Y-12980978D02*
X14878991Y-13000026D01*
X14878991Y-13000026D02*
X14878991Y-13057168D01*
X14878991Y-13057168D02*
X14869467Y-13076216D01*
X14869467Y-13076216D02*
X14859943Y-13085740D01*
X14859943Y-13085740D02*
X14840896Y-13095264D01*
X14840896Y-13095264D02*
X14802801Y-13095264D01*
X14802801Y-13095264D02*
X14783753Y-13085740D01*
X14964705Y-13076216D02*
X14974229Y-13085740D01*
X14974229Y-13085740D02*
X14964705Y-13095264D01*
X14964705Y-13095264D02*
X14955182Y-13085740D01*
X14955182Y-13085740D02*
X14964705Y-13076216D01*
X14964705Y-13076216D02*
X14964705Y-13095264D01*
X14964705Y-12971454D02*
X14974229Y-12980978D01*
X14974229Y-12980978D02*
X14964705Y-12990502D01*
X14964705Y-12990502D02*
X14955182Y-12980978D01*
X14955182Y-12980978D02*
X14964705Y-12971454D01*
X14964705Y-12971454D02*
X14964705Y-12990502D01*
M02*
