%TF.GenerationSoftware,KiCad,Pcbnew,9.0.6*%
%TF.CreationDate,2026-04-25T17:02:34+05:30*%
%TF.ProjectId,TIME_BASED_RELAY,54494d45-5f42-4415-9345-445f52454c41,rev?*%
%TF.SameCoordinates,Original*%
%TF.FileFunction,Soldermask,Bot*%
%TF.FilePolarity,Negative*%
%FSLAX46Y46*%
G04 Gerber Fmt 4.6, Leading zero omitted, Abs format (unit mm)*
G04 Created by KiCad (PCBNEW 9.0.6) date 2026-04-25 17:02:34*
%MOMM*%
%LPD*%
G01*
G04 APERTURE LIST*
G04 Aperture macros list*
%AMRoundRect*
0 Rectangle with rounded corners*
0 $1 Rounding radius*
0 $2 $3 $4 $5 $6 $7 $8 $9 X,Y pos of 4 corners*
0 Add a 4 corners polygon primitive as box body*
4,1,4,$2,$3,$4,$5,$6,$7,$8,$9,$2,$3,0*
0 Add four circle primitives for the rounded corners*
1,1,$1+$1,$2,$3*
1,1,$1+$1,$4,$5*
1,1,$1+$1,$6,$7*
1,1,$1+$1,$8,$9*
0 Add four rect primitives between the rounded corners*
20,1,$1+$1,$2,$3,$4,$5,0*
20,1,$1+$1,$4,$5,$6,$7,0*
20,1,$1+$1,$6,$7,$8,$9,0*
20,1,$1+$1,$8,$9,$2,$3,0*%
G04 Aperture macros list end*
%ADD10RoundRect,0.750000X0.750000X0.750000X-0.750000X0.750000X-0.750000X-0.750000X0.750000X-0.750000X0*%
%ADD11C,3.000000*%
%ADD12RoundRect,0.102000X-0.990000X-0.990000X0.990000X-0.990000X0.990000X0.990000X-0.990000X0.990000X0*%
%ADD13C,2.184000*%
%ADD14C,2.139000*%
%ADD15RoundRect,0.250001X1.149999X1.149999X-1.149999X1.149999X-1.149999X-1.149999X1.149999X-1.149999X0*%
%ADD16C,2.800000*%
%ADD17RoundRect,0.250000X-0.600000X-0.750000X0.600000X-0.750000X0.600000X0.750000X-0.600000X0.750000X0*%
%ADD18O,1.700000X2.000000*%
%ADD19RoundRect,0.250001X-1.149999X1.149999X-1.149999X-1.149999X1.149999X-1.149999X1.149999X1.149999X0*%
%ADD20C,0.700000*%
%ADD21C,4.400000*%
%ADD22C,1.800000*%
%ADD23R,1.600000X1.600000*%
%ADD24C,1.600000*%
%ADD25R,2.540000X3.510000*%
G04 APERTURE END LIST*
D10*
%TO.C,F1*%
X196410000Y-115805000D03*
X188790000Y-115805000D03*
D11*
X169820000Y-115805000D03*
X162200000Y-115805000D03*
%TD*%
D12*
%TO.C,K4*%
X208915000Y-106857800D03*
D13*
X208915000Y-118857800D03*
D14*
X206915000Y-112857800D03*
D13*
X221115000Y-106857800D03*
X221115000Y-118857800D03*
%TD*%
D15*
%TO.C,J2*%
X186956400Y-66084600D03*
D16*
X181956400Y-66084600D03*
%TD*%
D17*
%TO.C,PS1*%
X164025000Y-98680000D03*
D18*
X164025000Y-103680000D03*
X193105000Y-93680000D03*
X193105000Y-108680000D03*
%TD*%
D15*
%TO.C,J4*%
X156071400Y-65992100D03*
D16*
X151071400Y-65992100D03*
%TD*%
D19*
%TO.C,J5*%
X164160000Y-81430000D03*
D16*
X164160000Y-86430000D03*
%TD*%
D12*
%TO.C,K3*%
X209010000Y-74360000D03*
D13*
X209010000Y-86360000D03*
D14*
X207010000Y-80360000D03*
D13*
X221210000Y-74360000D03*
X221210000Y-86360000D03*
%TD*%
D15*
%TO.C,J3*%
X171571400Y-65992100D03*
D16*
X166571400Y-65992100D03*
%TD*%
D20*
%TO.C,H3*%
X135765674Y-53468674D03*
X136248948Y-52301948D03*
X136248948Y-54635400D03*
X137415674Y-51818674D03*
D21*
X137415674Y-53468674D03*
D20*
X137415674Y-55118674D03*
X138582400Y-52301948D03*
X138582400Y-54635400D03*
X139065674Y-53468674D03*
%TD*%
D12*
%TO.C,K1*%
X209088800Y-58262000D03*
D13*
X209088800Y-70262000D03*
D14*
X207088800Y-64262000D03*
D13*
X221288800Y-58262000D03*
X221288800Y-70262000D03*
%TD*%
D20*
%TO.C,H2*%
X220410000Y-123812800D03*
X220893274Y-122646074D03*
X220893274Y-124979526D03*
X222060000Y-122162800D03*
D21*
X222060000Y-123812800D03*
D20*
X222060000Y-125462800D03*
X223226726Y-122646074D03*
X223226726Y-124979526D03*
X223710000Y-123812800D03*
%TD*%
%TO.C,H4*%
X220410000Y-53530000D03*
X220893274Y-52363274D03*
X220893274Y-54696726D03*
X222060000Y-51880000D03*
D21*
X222060000Y-53530000D03*
D20*
X222060000Y-55180000D03*
X223226726Y-52363274D03*
X223226726Y-54696726D03*
X223710000Y-53530000D03*
%TD*%
D12*
%TO.C,K2*%
X208965800Y-90601800D03*
D13*
X208965800Y-102601800D03*
D14*
X206965800Y-96601800D03*
D13*
X221165800Y-90601800D03*
X221165800Y-102601800D03*
%TD*%
D22*
%TO.C,RV1*%
X156047803Y-86379215D03*
X152047803Y-93879215D03*
%TD*%
D20*
%TO.C,H1*%
X135663400Y-123825000D03*
X136146674Y-122658274D03*
X136146674Y-124991726D03*
X137313400Y-122175000D03*
D21*
X137313400Y-123825000D03*
D20*
X137313400Y-125475000D03*
X138480126Y-122658274D03*
X138480126Y-124991726D03*
X138963400Y-123825000D03*
%TD*%
D23*
%TO.C,RN1*%
X142290000Y-106345000D03*
D24*
X144830000Y-106345000D03*
X147370000Y-106345000D03*
X149910000Y-106345000D03*
X152450000Y-106345000D03*
%TD*%
D25*
%TO.C,J6*%
X166410000Y-101430000D03*
X195770000Y-101430000D03*
%TD*%
M02*
