%TF.GenerationSoftware,KiCad,Pcbnew,9.0.6*%
%TF.CreationDate,2026-04-25T17:02:34+05:30*%
%TF.ProjectId,TIME_BASED_RELAY,54494d45-5f42-4415-9345-445f52454c41,rev?*%
%TF.SameCoordinates,Original*%
%TF.FileFunction,Legend,Top*%
%TF.FilePolarity,Positive*%
%FSLAX46Y46*%
G04 Gerber Fmt 4.6, Leading zero omitted, Abs format (unit mm)*
G04 Created by KiCad (PCBNEW 9.0.6) date 2026-04-25 17:02:34*
%MOMM*%
%LPD*%
G01*
G04 APERTURE LIST*
%ADD10C,0.120000*%
%ADD11C,0.127000*%
%ADD12C,0.300000*%
%ADD13C,0.200000*%
%ADD14C,0.150000*%
G04 APERTURE END LIST*
D10*
%TO.C,R5*%
X137964936Y-101550800D02*
X138419064Y-101550800D01*
X137964936Y-103020800D02*
X138419064Y-103020800D01*
%TO.C,Q4*%
X195633900Y-62009600D02*
X197153900Y-62009600D01*
X195633900Y-62059600D02*
X195633900Y-62009600D01*
X195633900Y-63959600D02*
X195633900Y-63179600D01*
X195633900Y-65129600D02*
X195633900Y-65079600D01*
X197153900Y-62009600D02*
X197153900Y-63009600D01*
X197153900Y-64129600D02*
X197153900Y-65129600D01*
X197153900Y-65129600D02*
X195633900Y-65129600D01*
X195333900Y-63519600D02*
X194853900Y-63519600D01*
X195093900Y-63189600D01*
X195333900Y-63519600D01*
G36*
X195333900Y-63519600D02*
G01*
X194853900Y-63519600D01*
X195093900Y-63189600D01*
X195333900Y-63519600D01*
G37*
%TO.C,F1*%
X162455000Y-114055000D02*
X162455000Y-111870000D01*
X162455000Y-117555000D02*
X162455000Y-119740000D01*
X162455000Y-119740000D02*
X169565000Y-119740000D01*
X169565000Y-111870000D02*
X162455000Y-111870000D01*
X169565000Y-111870000D02*
X169565000Y-114055000D01*
X169565000Y-112630000D02*
X189045000Y-112630000D01*
X169565000Y-118980000D02*
X189045000Y-118980000D01*
X169565000Y-119740000D02*
X169565000Y-117555000D01*
X189045000Y-111870000D02*
X189045000Y-114055000D01*
X189045000Y-111870000D02*
X196110000Y-111870000D01*
X189045000Y-119740000D02*
X189045000Y-117555000D01*
X189045000Y-119740000D02*
X196110000Y-119740000D01*
X196110000Y-111870000D02*
X196110000Y-114055000D01*
X196110000Y-119740000D02*
X196110000Y-117555000D01*
D11*
%TO.C,K4*%
X205465000Y-105107800D02*
X224565000Y-105107800D01*
X205465000Y-120607800D02*
X205465000Y-105107800D01*
X224565000Y-105107800D02*
X224565000Y-120607800D01*
X224565000Y-120607800D02*
X205465000Y-120607800D01*
D12*
X204915000Y-106738800D02*
G75*
G02*
X204715000Y-106738800I-100000J0D01*
G01*
X204715000Y-106738800D02*
G75*
G02*
X204915000Y-106738800I100000J0D01*
G01*
D10*
%TO.C,C2*%
X180496252Y-71745000D02*
X179973748Y-71745000D01*
X180496252Y-73215000D02*
X179973748Y-73215000D01*
D11*
%TO.C,U3*%
X173097800Y-44168600D02*
X186297800Y-44168600D01*
X173097800Y-49548600D02*
X173097800Y-44168600D01*
X186297800Y-44168600D02*
X186297800Y-49548600D01*
D13*
X172547800Y-51168600D02*
G75*
G02*
X172347800Y-51168600I-100000J0D01*
G01*
X172347800Y-51168600D02*
G75*
G02*
X172547800Y-51168600I100000J0D01*
G01*
D10*
%TO.C,C4*%
X180496252Y-74745000D02*
X179973748Y-74745000D01*
X180496252Y-76215000D02*
X179973748Y-76215000D01*
%TO.C,R4*%
X136224997Y-84981249D02*
X136224997Y-84527121D01*
X137694997Y-84981249D02*
X137694997Y-84527121D01*
%TO.C,D4*%
X200560000Y-88470000D02*
X200560000Y-82960000D01*
X200560000Y-88470000D02*
X203860000Y-88470000D01*
X203860000Y-88470000D02*
X203860000Y-82960000D01*
%TO.C,R7*%
X196683464Y-68784600D02*
X196229336Y-68784600D01*
X196683464Y-70254600D02*
X196229336Y-70254600D01*
%TO.C,BOOT1*%
X179630000Y-84500000D02*
X179630000Y-85700000D01*
X179630000Y-87300000D02*
X179630000Y-88500000D01*
X179630000Y-88500000D02*
X186030000Y-88500000D01*
X186030000Y-84500000D02*
X179630000Y-84500000D01*
X186030000Y-85700000D02*
X186030000Y-84500000D01*
X186030000Y-88500000D02*
X186030000Y-87300000D01*
%TO.C,D7*%
X136307000Y-103825800D02*
X136307000Y-105745800D01*
X136307000Y-105745800D02*
X139167000Y-105745800D01*
X139167000Y-103825800D02*
X136307000Y-103825800D01*
%TO.C,RST*%
X180035000Y-78230000D02*
X180035000Y-79430000D01*
X180035000Y-81030000D02*
X180035000Y-82230000D01*
X180035000Y-82230000D02*
X186435000Y-82230000D01*
X186435000Y-78230000D02*
X180035000Y-78230000D01*
X186435000Y-79430000D02*
X186435000Y-78230000D01*
X186435000Y-82230000D02*
X186435000Y-81030000D01*
%TO.C,D2*%
X200686400Y-70699600D02*
X200686400Y-65189600D01*
X200686400Y-70699600D02*
X203986400Y-70699600D01*
X203986400Y-70699600D02*
X203986400Y-65189600D01*
%TO.C,D1*%
X137852800Y-117749200D02*
X140712800Y-117749200D01*
X140712800Y-115829200D02*
X137852800Y-115829200D01*
X140712800Y-117749200D02*
X140712800Y-115829200D01*
%TO.C,J2*%
X179336400Y-62164600D02*
X186656400Y-62164600D01*
X179336400Y-70204600D02*
X179336400Y-62164600D01*
X180144400Y-65584600D02*
X179336400Y-65584600D01*
X180144400Y-66584600D02*
X179336400Y-66584600D01*
X181413400Y-64284600D02*
X179336400Y-64284600D01*
X185076400Y-64284600D02*
X182499400Y-64284600D01*
X185076400Y-65584600D02*
X183768400Y-65584600D01*
X185076400Y-66584600D02*
X183768400Y-66584600D01*
X187256400Y-62164600D02*
X190076400Y-62164600D01*
X190076400Y-62164600D02*
X190076400Y-70204600D01*
X190076400Y-64284600D02*
X188836400Y-64284600D01*
X190076400Y-65584600D02*
X188836400Y-65584600D01*
X190076400Y-66584600D02*
X188836400Y-66584600D01*
X190076400Y-70204600D02*
X179336400Y-70204600D01*
X186956400Y-62164600D02*
X186516400Y-61554600D01*
X187396400Y-61554600D01*
X186956400Y-62164600D01*
G36*
X186956400Y-62164600D02*
G01*
X186516400Y-61554600D01*
X187396400Y-61554600D01*
X186956400Y-62164600D01*
G37*
%TO.C,Q3*%
X141117800Y-77390900D02*
X141167800Y-77390900D01*
X141117800Y-78910900D02*
X141117800Y-77390900D01*
X142117800Y-78910900D02*
X141117800Y-78910900D01*
X142287800Y-77390900D02*
X143067800Y-77390900D01*
X144187800Y-77390900D02*
X144237800Y-77390900D01*
X144237800Y-77390900D02*
X144237800Y-78910900D01*
X144237800Y-78910900D02*
X143237800Y-78910900D01*
X143057800Y-76850900D02*
X142727800Y-77090900D01*
X142727800Y-76610900D01*
X143057800Y-76850900D01*
G36*
X143057800Y-76850900D02*
G01*
X142727800Y-77090900D01*
X142727800Y-76610900D01*
X143057800Y-76850900D01*
G37*
%TO.C,PS1*%
X160055000Y-89820000D02*
X197075000Y-89820000D01*
X160055000Y-98384000D02*
X160055000Y-89820000D01*
X160055000Y-112540000D02*
X160055000Y-98976000D01*
X197075000Y-89820000D02*
X197075000Y-112540000D01*
X197075000Y-112540000D02*
X160055000Y-112540000D01*
X160055000Y-98680000D02*
X159445000Y-99120000D01*
X159445000Y-98240000D01*
X160055000Y-98680000D01*
G36*
X160055000Y-98680000D02*
G01*
X159445000Y-99120000D01*
X159445000Y-98240000D01*
X160055000Y-98680000D01*
G37*
%TO.C,C6*%
X184533752Y-74745000D02*
X184011248Y-74745000D01*
X184533752Y-76215000D02*
X184011248Y-76215000D01*
%TO.C,R3*%
X184007936Y-71745000D02*
X184462064Y-71745000D01*
X184007936Y-73215000D02*
X184462064Y-73215000D01*
%TO.C,J4*%
X148451400Y-62072100D02*
X155771400Y-62072100D01*
X148451400Y-70112100D02*
X148451400Y-62072100D01*
X149259400Y-65492100D02*
X148451400Y-65492100D01*
X149259400Y-66492100D02*
X148451400Y-66492100D01*
X150528400Y-64192100D02*
X148451400Y-64192100D01*
X154191400Y-64192100D02*
X151614400Y-64192100D01*
X154191400Y-65492100D02*
X152883400Y-65492100D01*
X154191400Y-66492100D02*
X152883400Y-66492100D01*
X156371400Y-62072100D02*
X159191400Y-62072100D01*
X159191400Y-62072100D02*
X159191400Y-70112100D01*
X159191400Y-64192100D02*
X157951400Y-64192100D01*
X159191400Y-65492100D02*
X157951400Y-65492100D01*
X159191400Y-66492100D02*
X157951400Y-66492100D01*
X159191400Y-70112100D02*
X148451400Y-70112100D01*
X156071400Y-62072100D02*
X155631400Y-61462100D01*
X156511400Y-61462100D01*
X156071400Y-62072100D01*
G36*
X156071400Y-62072100D02*
G01*
X155631400Y-61462100D01*
X156511400Y-61462100D01*
X156071400Y-62072100D01*
G37*
%TO.C,D5*%
X200560000Y-117470000D02*
X200560000Y-111960000D01*
X200560000Y-117470000D02*
X203860000Y-117470000D01*
X203860000Y-117470000D02*
X203860000Y-111960000D01*
%TO.C,Q2*%
X136994500Y-106775800D02*
X138514500Y-106775800D01*
X136994500Y-107775800D02*
X136994500Y-106775800D01*
X136994500Y-109895800D02*
X136994500Y-108895800D01*
X138514500Y-106775800D02*
X138514500Y-106825800D01*
X138514500Y-107945800D02*
X138514500Y-108725800D01*
X138514500Y-109845800D02*
X138514500Y-109895800D01*
X138514500Y-109895800D02*
X136994500Y-109895800D01*
X139054500Y-108715800D02*
X138814500Y-108385800D01*
X139294500Y-108385800D01*
X139054500Y-108715800D01*
G36*
X139054500Y-108715800D02*
G01*
X138814500Y-108385800D01*
X139294500Y-108385800D01*
X139054500Y-108715800D01*
G37*
%TO.C,J5*%
X160240000Y-78310000D02*
X168280000Y-78310000D01*
X160240000Y-81130000D02*
X160240000Y-78310000D01*
X160240000Y-89050000D02*
X160240000Y-81730000D01*
X162360000Y-78310000D02*
X162360000Y-79550000D01*
X162360000Y-83310000D02*
X162360000Y-85887000D01*
X162360000Y-86973000D02*
X162360000Y-89050000D01*
X163660000Y-78310000D02*
X163660000Y-79550000D01*
X163660000Y-83310000D02*
X163660000Y-84618000D01*
X163660000Y-88242000D02*
X163660000Y-89050000D01*
X164660000Y-78310000D02*
X164660000Y-79550000D01*
X164660000Y-83310000D02*
X164660000Y-84618000D01*
X164660000Y-88242000D02*
X164660000Y-89050000D01*
X168280000Y-78310000D02*
X168280000Y-89050000D01*
X168280000Y-89050000D02*
X160240000Y-89050000D01*
X160240000Y-81430000D02*
X159630000Y-81870000D01*
X159630000Y-80990000D01*
X160240000Y-81430000D01*
G36*
X160240000Y-81430000D02*
G01*
X159630000Y-81870000D01*
X159630000Y-80990000D01*
X160240000Y-81430000D01*
G37*
%TO.C,C1*%
X139342800Y-113087948D02*
X139342800Y-113610452D01*
X140812800Y-113087948D02*
X140812800Y-113610452D01*
%TO.C,R2*%
X188556715Y-73462936D02*
X188556715Y-73917064D01*
X190026715Y-73462936D02*
X190026715Y-73917064D01*
D11*
%TO.C,K3*%
X205560000Y-72610000D02*
X224660000Y-72610000D01*
X205560000Y-88110000D02*
X205560000Y-72610000D01*
X224660000Y-72610000D02*
X224660000Y-88110000D01*
X224660000Y-88110000D02*
X205560000Y-88110000D01*
D12*
X205010000Y-74241000D02*
G75*
G02*
X204810000Y-74241000I-100000J0D01*
G01*
X204810000Y-74241000D02*
G75*
G02*
X205010000Y-74241000I100000J0D01*
G01*
D10*
%TO.C,J3*%
X163951400Y-62072100D02*
X171271400Y-62072100D01*
X163951400Y-70112100D02*
X163951400Y-62072100D01*
X164759400Y-65492100D02*
X163951400Y-65492100D01*
X164759400Y-66492100D02*
X163951400Y-66492100D01*
X166028400Y-64192100D02*
X163951400Y-64192100D01*
X169691400Y-64192100D02*
X167114400Y-64192100D01*
X169691400Y-65492100D02*
X168383400Y-65492100D01*
X169691400Y-66492100D02*
X168383400Y-66492100D01*
X171871400Y-62072100D02*
X174691400Y-62072100D01*
X174691400Y-62072100D02*
X174691400Y-70112100D01*
X174691400Y-64192100D02*
X173451400Y-64192100D01*
X174691400Y-65492100D02*
X173451400Y-65492100D01*
X174691400Y-66492100D02*
X173451400Y-66492100D01*
X174691400Y-70112100D02*
X163951400Y-70112100D01*
X171571400Y-62072100D02*
X171131400Y-61462100D01*
X172011400Y-61462100D01*
X171571400Y-62072100D01*
G36*
X171571400Y-62072100D02*
G01*
X171131400Y-61462100D01*
X172011400Y-61462100D01*
X171571400Y-62072100D01*
G37*
%TO.C,Q1*%
X141949997Y-84431685D02*
X141999997Y-84431685D01*
X141949997Y-85951685D02*
X141949997Y-84431685D01*
X142949997Y-85951685D02*
X141949997Y-85951685D01*
X143119997Y-84431685D02*
X143899997Y-84431685D01*
X145019997Y-84431685D02*
X145069997Y-84431685D01*
X145069997Y-84431685D02*
X145069997Y-85951685D01*
X145069997Y-85951685D02*
X144069997Y-85951685D01*
X143889997Y-83891685D02*
X143559997Y-84131685D01*
X143559997Y-83651685D01*
X143889997Y-83891685D01*
G36*
X143889997Y-83891685D02*
G01*
X143559997Y-84131685D01*
X143559997Y-83651685D01*
X143889997Y-83891685D01*
G37*
%TO.C,D8*%
X138167800Y-76738400D02*
X138167800Y-79598400D01*
X138167800Y-79598400D02*
X140087800Y-79598400D01*
X140087800Y-79598400D02*
X140087800Y-76738400D01*
%TO.C,U2*%
X136467800Y-90673400D02*
X137727800Y-90673400D01*
X136467800Y-94433400D02*
X136467800Y-90673400D01*
X143287800Y-90673400D02*
X142027800Y-90673400D01*
X143287800Y-94433400D02*
X143287800Y-90673400D01*
X136567800Y-95713400D02*
X136237800Y-95953400D01*
X136237800Y-95473400D01*
X136567800Y-95713400D01*
G36*
X136567800Y-95713400D02*
G01*
X136237800Y-95953400D01*
X136237800Y-95473400D01*
X136567800Y-95713400D01*
G37*
D11*
%TO.C,K1*%
X205638800Y-56512000D02*
X224738800Y-56512000D01*
X205638800Y-72012000D02*
X205638800Y-56512000D01*
X224738800Y-56512000D02*
X224738800Y-72012000D01*
X224738800Y-72012000D02*
X205638800Y-72012000D01*
D12*
X205088800Y-58143000D02*
G75*
G02*
X204888800Y-58143000I-100000J0D01*
G01*
X204888800Y-58143000D02*
G75*
G02*
X205088800Y-58143000I100000J0D01*
G01*
D10*
%TO.C,J1*%
X170350000Y-83915000D02*
X171400000Y-83915000D01*
X170350000Y-86415000D02*
X170350000Y-83915000D01*
X171400000Y-83915000D02*
X171400000Y-82925000D01*
X171520000Y-88385000D02*
X175400000Y-88385000D01*
X176570000Y-83915000D02*
X175520000Y-83915000D01*
X176570000Y-86415000D02*
X176570000Y-83915000D01*
%TO.C,D3*%
X200560000Y-105470000D02*
X200560000Y-99960000D01*
X200560000Y-105470000D02*
X203860000Y-105470000D01*
X203860000Y-105470000D02*
X203860000Y-99960000D01*
%TO.C,D6*%
X138999997Y-83779185D02*
X138999997Y-86639185D01*
X138999997Y-86639185D02*
X140919997Y-86639185D01*
X140919997Y-86639185D02*
X140919997Y-83779185D01*
%TO.C,C3*%
X142154048Y-97998400D02*
X142676552Y-97998400D01*
X142154048Y-99468400D02*
X142676552Y-99468400D01*
%TO.C,R6*%
X135892800Y-77940464D02*
X135892800Y-77486336D01*
X137362800Y-77940464D02*
X137362800Y-77486336D01*
%TO.C,U1*%
X146430000Y-109335000D02*
X154150000Y-109335000D01*
X146430000Y-109590000D02*
X146430000Y-109335000D01*
X146430000Y-119855000D02*
X146430000Y-119600000D01*
X154150000Y-109335000D02*
X154150000Y-109590000D01*
X154150000Y-119600000D02*
X154150000Y-119855000D01*
X154150000Y-119855000D02*
X146430000Y-119855000D01*
X145640000Y-109585000D02*
X145300000Y-109115000D01*
X145980000Y-109115000D01*
X145640000Y-109585000D01*
G36*
X145640000Y-109585000D02*
G01*
X145300000Y-109115000D01*
X145980000Y-109115000D01*
X145640000Y-109585000D01*
G37*
D11*
%TO.C,K2*%
X205515800Y-88851800D02*
X224615800Y-88851800D01*
X205515800Y-104351800D02*
X205515800Y-88851800D01*
X224615800Y-88851800D02*
X224615800Y-104351800D01*
X224615800Y-104351800D02*
X205515800Y-104351800D01*
D12*
X204965800Y-90482800D02*
G75*
G02*
X204765800Y-90482800I-100000J0D01*
G01*
X204765800Y-90482800D02*
G75*
G02*
X204965800Y-90482800I100000J0D01*
G01*
D10*
%TO.C,R1*%
X136842800Y-113062136D02*
X136842800Y-113516264D01*
X138312800Y-113062136D02*
X138312800Y-113516264D01*
%TO.C,C5*%
X138101552Y-97998400D02*
X137579048Y-97998400D01*
X138101552Y-99468400D02*
X137579048Y-99468400D01*
D14*
%TO.C,RV1*%
X150297803Y-82379215D02*
X150297803Y-97879215D01*
X157797803Y-82379215D02*
X150297803Y-82379215D01*
X157797803Y-82379215D02*
X157797803Y-97879215D01*
X157797803Y-97879215D02*
X150297803Y-97879215D01*
D10*
%TO.C,D9*%
X195481400Y-67979600D02*
X198341400Y-67979600D01*
X198341400Y-66059600D02*
X195481400Y-66059600D01*
X198341400Y-67979600D02*
X198341400Y-66059600D01*
%TO.C,RN1*%
X143560000Y-105035000D02*
X143560000Y-107655000D01*
X140940000Y-105035000D02*
X153800000Y-105035000D01*
X153800000Y-107655000D01*
X140940000Y-107655000D01*
X140940000Y-105035000D01*
%TD*%
M02*
