%TF.GenerationSoftware,KiCad,Pcbnew,9.0.6*%
%TF.CreationDate,2026-04-25T17:02:34+05:30*%
%TF.ProjectId,TIME_BASED_RELAY,54494d45-5f42-4415-9345-445f52454c41,rev?*%
%TF.SameCoordinates,Original*%
%TF.FileFunction,Copper,L2,Bot*%
%TF.FilePolarity,Positive*%
%FSLAX46Y46*%
G04 Gerber Fmt 4.6, Leading zero omitted, Abs format (unit mm)*
G04 Created by KiCad (PCBNEW 9.0.6) date 2026-04-25 17:02:34*
%MOMM*%
%LPD*%
G01*
G04 APERTURE LIST*
G04 Aperture macros list*
%AMRoundRect*
0 Rectangle with rounded corners*
0 $1 Rounding radius*
0 $2 $3 $4 $5 $6 $7 $8 $9 X,Y pos of 4 corners*
0 Add a 4 corners polygon primitive as box body*
4,1,4,$2,$3,$4,$5,$6,$7,$8,$9,$2,$3,0*
0 Add four circle primitives for the rounded corners*
1,1,$1+$1,$2,$3*
1,1,$1+$1,$4,$5*
1,1,$1+$1,$6,$7*
1,1,$1+$1,$8,$9*
0 Add four rect primitives between the rounded corners*
20,1,$1+$1,$2,$3,$4,$5,0*
20,1,$1+$1,$4,$5,$6,$7,0*
20,1,$1+$1,$6,$7,$8,$9,0*
20,1,$1+$1,$8,$9,$2,$3,0*%
G04 Aperture macros list end*
%TA.AperFunction,ComponentPad*%
%ADD10RoundRect,0.750000X0.750000X0.750000X-0.750000X0.750000X-0.750000X-0.750000X0.750000X-0.750000X0*%
%TD*%
%TA.AperFunction,ComponentPad*%
%ADD11C,3.000000*%
%TD*%
%TA.AperFunction,ComponentPad*%
%ADD12R,1.980000X1.980000*%
%TD*%
%TA.AperFunction,ComponentPad*%
%ADD13C,1.980000*%
%TD*%
%TA.AperFunction,ComponentPad*%
%ADD14C,1.935000*%
%TD*%
%TA.AperFunction,ComponentPad*%
%ADD15RoundRect,0.250001X1.149999X1.149999X-1.149999X1.149999X-1.149999X-1.149999X1.149999X-1.149999X0*%
%TD*%
%TA.AperFunction,ComponentPad*%
%ADD16C,2.800000*%
%TD*%
%TA.AperFunction,ComponentPad*%
%ADD17RoundRect,0.250000X-0.600000X-0.750000X0.600000X-0.750000X0.600000X0.750000X-0.600000X0.750000X0*%
%TD*%
%TA.AperFunction,ComponentPad*%
%ADD18O,1.700000X2.000000*%
%TD*%
%TA.AperFunction,ComponentPad*%
%ADD19RoundRect,0.250001X-1.149999X1.149999X-1.149999X-1.149999X1.149999X-1.149999X1.149999X1.149999X0*%
%TD*%
%TA.AperFunction,ComponentPad*%
%ADD20C,0.700000*%
%TD*%
%TA.AperFunction,ComponentPad*%
%ADD21C,4.400000*%
%TD*%
%TA.AperFunction,ComponentPad*%
%ADD22C,1.800000*%
%TD*%
%TA.AperFunction,ComponentPad*%
%ADD23R,1.600000X1.600000*%
%TD*%
%TA.AperFunction,ComponentPad*%
%ADD24C,1.600000*%
%TD*%
%TA.AperFunction,SMDPad,CuDef*%
%ADD25R,2.540000X3.510000*%
%TD*%
%TA.AperFunction,ViaPad*%
%ADD26C,0.600000*%
%TD*%
%TA.AperFunction,Conductor*%
%ADD27C,0.400000*%
%TD*%
G04 APERTURE END LIST*
D10*
%TO.P,F1,1*%
%TO.N,LIVE*%
X196410000Y-115805000D03*
X188790000Y-115805000D03*
D11*
%TO.P,F1,2*%
%TO.N,FUSED_LIVE*%
X169820000Y-115805000D03*
X162200000Y-115805000D03*
%TD*%
D12*
%TO.P,K4,A1*%
%TO.N,/RELAY MODULES/5V*%
X208915000Y-106857800D03*
D13*
%TO.P,K4,A2*%
%TO.N,/RELAY MODULES/MOS_4*%
X208915000Y-118857800D03*
D14*
%TO.P,K4,COM*%
%TO.N,LIVE*%
X206915000Y-112857800D03*
D13*
%TO.P,K4,NC*%
%TO.N,unconnected-(K4-PadNC)*%
X221115000Y-106857800D03*
%TO.P,K4,NO*%
%TO.N,/RELAY MODULES/LIVE4*%
X221115000Y-118857800D03*
%TD*%
D15*
%TO.P,J2,1,Pin_1*%
%TO.N,/RELAY MODULES/LIVE1*%
X186956400Y-66084600D03*
D16*
%TO.P,J2,2,Pin_2*%
%TO.N,NEUTRAL*%
X181956400Y-66084600D03*
%TD*%
D17*
%TO.P,PS1,1,AC/L*%
%TO.N,FUSED_LIVE*%
X164025000Y-98680000D03*
D18*
%TO.P,PS1,2,AC/N*%
%TO.N,NEUTRAL*%
X164025000Y-103680000D03*
%TO.P,PS1,3,-Vout*%
%TO.N,GND*%
X193105000Y-93680000D03*
%TO.P,PS1,4,+Vout*%
%TO.N,/5V*%
X193105000Y-108680000D03*
%TD*%
D15*
%TO.P,J4,1,Pin_1*%
%TO.N,/RELAY MODULES/LIVE2*%
X156071400Y-65992100D03*
D16*
%TO.P,J4,2,Pin_2*%
%TO.N,NEUTRAL*%
X151071400Y-65992100D03*
%TD*%
D19*
%TO.P,J5,1,Pin_1*%
%TO.N,/RELAY MODULES/LIVE4*%
X164160000Y-81430000D03*
D16*
%TO.P,J5,2,Pin_2*%
%TO.N,NEUTRAL*%
X164160000Y-86430000D03*
%TD*%
D12*
%TO.P,K3,A1*%
%TO.N,/RELAY MODULES/5V*%
X209010000Y-74360000D03*
D13*
%TO.P,K3,A2*%
%TO.N,/RELAY MODULES/MOS_3*%
X209010000Y-86360000D03*
D14*
%TO.P,K3,COM*%
%TO.N,LIVE*%
X207010000Y-80360000D03*
D13*
%TO.P,K3,NC*%
%TO.N,unconnected-(K3-PadNC)*%
X221210000Y-74360000D03*
%TO.P,K3,NO*%
%TO.N,/RELAY MODULES/LIVE3*%
X221210000Y-86360000D03*
%TD*%
D15*
%TO.P,J3,1,Pin_1*%
%TO.N,/RELAY MODULES/LIVE3*%
X171571400Y-65992100D03*
D16*
%TO.P,J3,2,Pin_2*%
%TO.N,NEUTRAL*%
X166571400Y-65992100D03*
%TD*%
D20*
%TO.P,H3,1*%
%TO.N,N/C*%
X135765674Y-53468674D03*
X136248948Y-52301948D03*
X136248948Y-54635400D03*
X137415674Y-51818674D03*
D21*
X137415674Y-53468674D03*
D20*
X137415674Y-55118674D03*
X138582400Y-52301948D03*
X138582400Y-54635400D03*
X139065674Y-53468674D03*
%TD*%
D12*
%TO.P,K1,A1*%
%TO.N,/RELAY MODULES/5V*%
X209088800Y-58262000D03*
D13*
%TO.P,K1,A2*%
%TO.N,/RELAY MODULES/MOS_1*%
X209088800Y-70262000D03*
D14*
%TO.P,K1,COM*%
%TO.N,LIVE*%
X207088800Y-64262000D03*
D13*
%TO.P,K1,NC*%
%TO.N,unconnected-(K1-PadNC)*%
X221288800Y-58262000D03*
%TO.P,K1,NO*%
%TO.N,/RELAY MODULES/LIVE1*%
X221288800Y-70262000D03*
%TD*%
D20*
%TO.P,H2,1*%
%TO.N,N/C*%
X220410000Y-123812800D03*
X220893274Y-122646074D03*
X220893274Y-124979526D03*
X222060000Y-122162800D03*
D21*
X222060000Y-123812800D03*
D20*
X222060000Y-125462800D03*
X223226726Y-122646074D03*
X223226726Y-124979526D03*
X223710000Y-123812800D03*
%TD*%
%TO.P,H4,1*%
%TO.N,N/C*%
X220410000Y-53530000D03*
X220893274Y-52363274D03*
X220893274Y-54696726D03*
X222060000Y-51880000D03*
D21*
X222060000Y-53530000D03*
D20*
X222060000Y-55180000D03*
X223226726Y-52363274D03*
X223226726Y-54696726D03*
X223710000Y-53530000D03*
%TD*%
D12*
%TO.P,K2,A1*%
%TO.N,/RELAY MODULES/5V*%
X208965800Y-90601800D03*
D13*
%TO.P,K2,A2*%
%TO.N,/RELAY MODULES/MOS_2*%
X208965800Y-102601800D03*
D14*
%TO.P,K2,COM*%
%TO.N,LIVE*%
X206965800Y-96601800D03*
D13*
%TO.P,K2,NC*%
%TO.N,unconnected-(K2-PadNC)*%
X221165800Y-90601800D03*
%TO.P,K2,NO*%
%TO.N,/RELAY MODULES/LIVE2*%
X221165800Y-102601800D03*
%TD*%
D22*
%TO.P,RV1,1*%
%TO.N,/5V*%
X156047803Y-86379215D03*
%TO.P,RV1,2*%
%TO.N,GND*%
X152047803Y-93879215D03*
%TD*%
D20*
%TO.P,H1,1*%
%TO.N,N/C*%
X135663400Y-123825000D03*
X136146674Y-122658274D03*
X136146674Y-124991726D03*
X137313400Y-122175000D03*
D21*
X137313400Y-123825000D03*
D20*
X137313400Y-125475000D03*
X138480126Y-122658274D03*
X138480126Y-124991726D03*
X138963400Y-123825000D03*
%TD*%
D23*
%TO.P,RN1,1,common*%
%TO.N,3V3*%
X142290000Y-106345000D03*
D24*
%TO.P,RN1,2,R1*%
%TO.N,unconnected-(RN1-R1-Pad2)*%
X144830000Y-106345000D03*
%TO.P,RN1,3,R2*%
%TO.N,INT*%
X147370000Y-106345000D03*
%TO.P,RN1,4,R3*%
%TO.N,SCL*%
X149910000Y-106345000D03*
%TO.P,RN1,5,R4*%
%TO.N,SDA*%
X152450000Y-106345000D03*
%TD*%
D25*
%TO.P,J6,1,Pin_1*%
%TO.N,VBAT*%
X166410000Y-101430000D03*
%TO.P,J6,2,Pin_2*%
%TO.N,GND*%
X195770000Y-101430000D03*
%TD*%
D26*
%TO.N,GND*%
X151968200Y-86588600D03*
X147701000Y-82448400D03*
X147774400Y-94411800D03*
%TO.N,3V3*%
X191084200Y-72618600D03*
X191084200Y-75311000D03*
%TO.N,/5V*%
X148183600Y-89712800D03*
%TO.N,/RELAY MODULES/5V*%
X199364600Y-69596000D03*
X196773800Y-70993000D03*
X199364600Y-66598800D03*
X170967400Y-60168600D03*
%TO.N,/RELAY MODULES/MOS_2*%
X206705200Y-102565200D03*
X204673200Y-104470200D03*
%TO.N,/RELAY MODULES/MOS_3*%
X207619600Y-83845400D03*
X141732000Y-75107800D03*
X139242800Y-80975200D03*
X202184000Y-89890600D03*
%TO.N,LIVE*%
X202717400Y-110210000D03*
X208915000Y-97282000D03*
X202742800Y-108610400D03*
X214503000Y-74955400D03*
%TO.N,TX*%
X170840400Y-73761600D03*
%TO.N,REL1*%
X169697400Y-58648600D03*
X174980600Y-58648600D03*
%TO.N,REL3*%
X178663600Y-58674000D03*
X146608800Y-71907400D03*
%TO.N,SDA*%
X178130200Y-68503800D03*
%TO.N,VBAT*%
X165227000Y-108026200D03*
%TD*%
D27*
%TO.N,GND*%
X147774400Y-94411800D02*
X148306985Y-93879215D01*
X147828000Y-82448400D02*
X151968200Y-86588600D01*
X147701000Y-82448400D02*
X147828000Y-82448400D01*
X148306985Y-93879215D02*
X152047803Y-93879215D01*
%TO.N,3V3*%
X191084200Y-75311000D02*
X191084200Y-72618600D01*
%TO.N,/5V*%
X148183600Y-89712800D02*
X152714218Y-89712800D01*
X152714218Y-89712800D02*
X156047803Y-86379215D01*
%TO.N,/RELAY MODULES/5V*%
X196215000Y-70993000D02*
X185390600Y-60168600D01*
X196773800Y-70993000D02*
X196215000Y-70993000D01*
X185390600Y-60168600D02*
X170967400Y-60168600D01*
X199364600Y-66598800D02*
X199364600Y-69596000D01*
%TO.N,/RELAY MODULES/MOS_2*%
X206705200Y-102565200D02*
X204800200Y-104470200D01*
X204800200Y-104470200D02*
X204673200Y-104470200D01*
%TO.N,/RELAY MODULES/MOS_3*%
X204698600Y-89103200D02*
X204698600Y-84302600D01*
X204698600Y-84302600D02*
X205155800Y-83845400D01*
X139268200Y-81000600D02*
X139242800Y-80975200D01*
X140690600Y-81000600D02*
X139268200Y-81000600D01*
X202184000Y-89890600D02*
X203911200Y-89890600D01*
X203911200Y-89890600D02*
X204698600Y-89103200D01*
X205155800Y-83845400D02*
X207619600Y-83845400D01*
X141732000Y-75107800D02*
X140690600Y-76149200D01*
X140690600Y-76149200D02*
X140690600Y-81000600D01*
%TO.N,LIVE*%
X214503000Y-74955400D02*
X212414600Y-74955400D01*
X208915000Y-97459800D02*
X202742800Y-103632000D01*
X212414600Y-74955400D02*
X207010000Y-80360000D01*
X208915000Y-97282000D02*
X208915000Y-97459800D01*
X202742800Y-103632000D02*
X202742800Y-108610400D01*
%TO.N,TX*%
X170266400Y-59878236D02*
X170677036Y-59467600D01*
X170266400Y-60458964D02*
X170266400Y-59878236D01*
X180638600Y-59467600D02*
X185699400Y-54406800D01*
X170677036Y-59467600D02*
X180638600Y-59467600D01*
X183732400Y-60869600D02*
X170677036Y-60869600D01*
X170677036Y-60869600D02*
X170266400Y-60458964D01*
X170840400Y-73761600D02*
X183732400Y-60869600D01*
%TO.N,REL1*%
X169697400Y-58648600D02*
X174980600Y-58648600D01*
%TO.N,REL3*%
X146608800Y-71907400D02*
X155447236Y-71907400D01*
X178587400Y-58750200D02*
X178663600Y-58674000D01*
X175681600Y-58750200D02*
X178587400Y-58750200D01*
X155447236Y-71907400D02*
X169407036Y-57947600D01*
X175681600Y-58358236D02*
X175681600Y-58750200D01*
X175270964Y-57947600D02*
X175681600Y-58358236D01*
X169407036Y-57947600D02*
X175270964Y-57947600D01*
%TO.N,SDA*%
X178130200Y-68529200D02*
X178054000Y-68605400D01*
X152450000Y-102616800D02*
X152450000Y-106345000D01*
X178054000Y-68605400D02*
X178054000Y-77012800D01*
X178130200Y-68503800D02*
X178130200Y-68529200D01*
X178054000Y-77012800D02*
X152450000Y-102616800D01*
%TO.N,VBAT*%
X165227000Y-108026200D02*
X166410000Y-106843200D01*
X166410000Y-106843200D02*
X166410000Y-101430000D01*
%TD*%
M02*
